<svg width="56" height="56" viewBox="0 0 56 56" fill="none" xmlns="http://www.w3.org/2000/svg">
<path d="M5.11887 13.0572C5.32966 10.9777 6.75831 9.39463 8.82299 9.06872C11.5769 8.63401 16.4172 8.16669 24.5001 8.16669C32.583 8.16669 37.4232 8.63401 40.1772 9.06872C42.2418 9.39462 43.6705 10.9777 43.8813 13.0572C44.1105 15.3187 44.3334 18.9456 44.3334 24.5C44.3334 30.0544 44.1105 33.6813 43.8813 35.9428C43.6705 38.0224 42.2418 39.6054 40.1772 39.9313C37.4232 40.366 32.583 40.8334 24.5001 40.8334C16.4172 40.8334 11.5769 40.366 8.82299 39.9313C6.75832 39.6054 5.32966 38.0224 5.11887 35.9428C4.88964 33.6813 4.66675 30.0544 4.66675 24.5C4.66675 18.9456 4.88964 15.3187 5.11887 13.0572Z" fill="#4C73FF"/>
<path d="M9.82603 17.7873C10.0405 15.7378 11.4586 14.19 13.4915 13.853C16.3866 13.373 21.5865 12.8333 30.3333 12.8333C39.08 12.8333 44.2799 13.373 47.175 13.853C49.2079 14.19 50.6259 15.7378 50.8405 17.7873C51.088 20.1525 51.3333 24.0747 51.3333 30.3333C51.3333 36.5919 51.088 40.5141 50.8405 42.8793C50.6259 44.9288 49.2079 46.4766 47.175 46.8136C44.2799 47.2936 39.08 47.8333 30.3333 47.8333C21.5865 47.8333 16.3866 47.2936 13.4915 46.8136C11.4586 46.4766 10.0405 44.9288 9.82603 42.8793C9.57845 40.5141 9.33325 36.5919 9.33325 30.3333C9.33325 24.0747 9.57845 20.1525 9.82603 17.7873Z" fill="#CEE5FF"/>
<path fill-rule="evenodd" clip-rule="evenodd" d="M9.33617 31.5C9.33424 31.1205 9.33325 30.7317 9.33325 30.3334C9.33325 26.9806 9.40362 24.2983 9.50703 22.1667H51.1594C51.2629 24.2983 51.3333 26.9806 51.3333 30.3334C51.3333 30.7317 51.3322 31.1205 51.3303 31.5H9.33617Z" fill="#4C73FF"/>
<path d="M44.3334 40.2698C44.3334 41.1202 43.7203 41.8351 42.8723 41.8985C42.1456 41.9526 41.1478 42 39.8788 42C38.7622 42 37.9605 41.9633 37.3948 41.9176C36.6531 41.8576 36.1667 41.2423 36.1667 40.4982V38.835C36.1667 38.0909 36.6531 37.4756 37.3948 37.4157C37.9605 37.3699 38.7622 37.3333 39.8788 37.3333C41.1478 37.3333 42.1456 37.3807 42.8723 37.4348C43.7203 37.4982 44.3334 38.2131 44.3334 39.0635V40.2698Z" fill="#4C73FF"/>
</svg>
