<svg width="56" height="56" viewBox="0 0 56 56" fill="none" xmlns="http://www.w3.org/2000/svg">
<path d="M28.0001 51.3334C40.8867 51.3334 51.3334 40.8867 51.3334 28C51.3334 15.1134 40.8867 4.66669 28.0001 4.66669C15.1134 4.66669 4.66675 15.1134 4.66675 28C4.66675 40.8867 15.1134 51.3334 28.0001 51.3334Z" fill="#CDE4FE"/>
<path fill-rule="evenodd" clip-rule="evenodd" d="M39.8934 18.1402C40.841 18.8737 41.1171 20.277 40.5147 21.3585C35.8403 29.7493 31.587 35.3322 29.0735 38.3205C27.7217 39.928 25.548 40.1341 24.0151 38.7317C21.8267 36.7294 18.6103 33.3301 15.5323 28.3788C14.9522 27.4457 15.0778 26.2016 15.8007 25.3947L17.6541 23.3261C18.5169 22.3631 19.9353 22.3366 20.8055 23.2918C23.8701 26.6557 26.2469 29.7061 26.2469 29.7061C26.2469 29.7061 29.7396 24.0401 35.1632 17.1703C35.9127 16.2207 37.206 16.0602 38.1438 16.786L39.8934 18.1402Z" fill="#4C73FE"/>
</svg>
