<svg width="57" height="57" viewBox="0 0 57 57" fill="none" xmlns="http://www.w3.org/2000/svg">
<path d="M28.4251 51.5223C41.3118 51.5223 51.7585 41.0756 51.7585 28.189C51.7585 15.3023 41.3118 4.85565 28.4251 4.85565C15.5385 4.85565 5.0918 15.3023 5.0918 28.189C5.0918 41.0756 15.5385 51.5223 28.4251 51.5223Z" fill="#CEE5FF"/>
<path d="M34.5378 17.1393C35.4721 16.2795 36.9013 16.3263 37.7947 17.2296L39.1371 18.5868C40.0305 19.49 40.0768 20.9351 39.2263 21.8797C37.9602 23.286 35.9579 25.4724 33.4747 28.0562C36.0761 30.7556 38.1725 33.0439 39.4817 34.4982C40.3322 35.4428 40.286 36.8878 39.3926 37.7911L38.0502 39.1483C37.1568 40.0516 35.7276 40.0984 34.7934 39.2386C33.3557 37.9153 31.0937 35.797 28.4254 33.1684C25.7572 35.797 23.4952 37.9153 22.0575 39.2386C21.1233 40.0984 19.6941 40.0516 18.8007 39.1483L17.4583 37.7911C16.5649 36.8878 16.5187 35.4428 17.3692 34.4982C18.6784 33.0439 20.7748 30.7556 23.3762 28.0562C20.893 25.4724 18.8907 23.286 17.6246 21.8797C16.7741 20.9351 16.8204 19.49 17.7138 18.5868L19.0562 17.2296C19.9496 16.3263 21.3788 16.2795 22.313 17.1393C23.7046 18.4201 25.8683 20.4458 28.4254 22.9582C30.9825 20.4458 33.1462 18.4201 34.5378 17.1393Z" fill="#5C81FF"/>
</svg>
