<svg width="56" height="56" viewBox="0 0 56 56" fill="none" xmlns="http://www.w3.org/2000/svg">
<path d="M19.4939 52.3518C16.7331 46.3152 17.0434 32.6673 17.0434 32.6673L47.1194 9.35156C46.2713 17.6202 32.9632 50.032 19.4939 52.3518Z" fill="#CEE5FE"/>
<path d="M6.32839 26.86C4.99398 25.6911 5.04997 23.8087 6.51445 22.8077C14.617 17.2689 37.3197 6.03214 49.1586 3.86595C51.06 3.51804 52.6223 5.06164 52.4874 6.98992C51.651 18.9455 47.2044 41.7662 43.2584 49.4672C42.575 50.8009 40.9802 51.0779 39.6802 50.3322C36.6615 48.6009 30.4793 44.837 20.8625 37.9903C12.8653 32.2966 8.56539 28.8194 6.32839 26.86Z" fill="#CEE5FE"/>
<path d="M46.9444 9.33348C45.7778 8.16681 18.6269 30.2359 16.4544 34.797C16.4544 34.797 16.3637 51.8589 19.4937 52.3515C21.187 52.3515 24.2927 43.3622 24.947 41.4107C25.0307 41.1613 25.1451 40.9416 25.3046 40.7323C32.1276 31.7823 48.0975 10.4867 46.9444 9.33348Z" fill="#4C73FF"/>
</svg>
