<svg width="447" height="504" viewBox="0 0 447 504" fill="none" xmlns="http://www.w3.org/2000/svg">
<path fill-rule="evenodd" clip-rule="evenodd" d="M201.319 294.907C202.77 291.003 205.055 279.017 210.865 273.915C214.7 270.557 213.422 268.895 209.313 271.877C206.309 274.065 203.347 277.904 201.582 281.904C201.451 277.273 201.397 255.973 199.831 227.968C199.506 222.338 199.042 221.705 197.515 222.455C195.609 223.429 194.653 224.904 194.69 226.827C194.694 226.876 196.31 284.845 195.695 284.864C195.596 284.871 195.023 284.097 194.337 283.134C189.773 276.546 185.927 274.177 184.041 276.828C183.142 278.077 184.088 280.281 187.092 283.993C188.336 285.534 190.917 289.202 192.856 292.175C197.807 299.698 199.349 300.206 201.319 294.907Z" fill="#BABABA"/>
<path fill-rule="evenodd" clip-rule="evenodd" d="M410.586 472.327C409.953 462.711 409.14 455.649 408.289 445.538C405.553 448.586 401.439 449.837 398.3 450.07C391.824 450.55 387.622 447.289 381.226 446.79C374.739 446.283 369.176 448.673 363.469 451.446C364.374 460.323 365.228 469.395 365.369 478.323C369.383 476.359 373.51 474.629 378.041 474.532C382.308 474.44 386.37 476.249 390.584 476.669C396.977 477.306 405.221 475.823 410.586 472.327Z" fill="white" stroke="#4C73FF" stroke-width="2.65957" stroke-miterlimit="1.5" stroke-linecap="round" stroke-linejoin="round"/>
<path d="M388.816 456.903C387.313 456.752 385.658 456.739 384.402 457.691C383.383 458.464 382.865 459.871 384.019 460.81C385.691 462.17 388.427 461.305 389.945 462.984C390.992 464.142 390.155 465.723 389.004 466.404C388.113 466.932 387.031 466.989 386.027 466.845C384.956 466.692 383.871 466.572 382.806 466.387" stroke="#4C73FF" stroke-width="2.65957" stroke-miterlimit="1.5" stroke-linecap="round" stroke-linejoin="round"/>
<path d="M386.723 456.919C386.739 456.294 386.779 455.673 386.758 455.047" stroke="#4C73FF" stroke-width="2.65957" stroke-miterlimit="1.5" stroke-linecap="round" stroke-linejoin="round"/>
<path d="M386.526 466.87C386.544 467.461 386.564 468.052 386.596 468.642" stroke="#4C73FF" stroke-width="2.65957" stroke-miterlimit="1.5" stroke-linecap="round" stroke-linejoin="round"/>
<path d="M378.376 468.809C376.627 468.587 374.752 468.718 373.107 469.382C372.45 468.272 371.174 467.678 369.904 467.75C369.616 464.348 369.399 460.922 369.159 457.518C370.609 456.665 371.43 455.258 371.539 453.601C374.637 451.789 377.868 451.133 381.382 451.869" stroke="#4C73FF" stroke-width="2.65957" stroke-miterlimit="1.5" stroke-linecap="round" stroke-linejoin="round"/>
<path d="M393.461 454.98C395.823 455.279 398.242 455.336 400.612 455.085C401.421 455.852 402.513 456.454 403.641 456.542C403.805 459.646 404.453 462.717 404.726 465.816C403.139 466.489 401.47 467.653 401.361 469.535C398.881 470.12 396.243 470.113 393.77 469.531" stroke="#4C73FF" stroke-width="2.65957" stroke-miterlimit="1.5" stroke-linecap="round" stroke-linejoin="round"/>
<g clip-path="url(#clip0_205_11)">
<path d="M424.178 355.054C423.502 346.073 410.279 342.58 405.136 350.038C402.032 354.539 405.179 359.864 403.874 364.734L414.331 369.011C415.145 367.899 416.373 366.683 417.176 365.955C418.845 364.444 420.621 363.736 421.963 361.837C423.239 360.029 424.338 357.19 424.178 355.054Z" stroke="#4C73FF" stroke-width="2.77778" stroke-miterlimit="1.5" stroke-linecap="round" stroke-linejoin="round"/>
<path d="M401.102 370.964C401.683 369.534 402.198 368.077 402.806 366.659C403.048 366.098 403.234 365.367 403.885 365.172C404.835 364.887 405.933 365.238 406.828 365.579C408.507 366.219 410.176 366.918 411.838 367.602C412.596 367.913 413.78 368.244 414.309 368.9C414.813 369.524 414.579 370.566 414.383 371.255C414.006 372.574 413.227 375.545 411.756 376.084C410.829 376.423 409.724 376.122 408.816 375.875C406.408 375.219 400.398 372.695 401.102 370.964Z" stroke="#4C73FF" stroke-width="2.77778" stroke-miterlimit="1.5" stroke-linecap="round" stroke-linejoin="round"/>
<path d="M406.547 375.089C406.248 375.874 405.937 376.659 405.559 377.411" stroke="#4C73FF" stroke-width="2.77778" stroke-miterlimit="1.5" stroke-linecap="round" stroke-linejoin="round"/>
<path d="M393.271 355.805C394.263 355.708 395.26 355.703 396.253 355.628" stroke="#4C73FF" stroke-width="2.77778" stroke-miterlimit="1.5" stroke-linecap="round" stroke-linejoin="round"/>
<path d="M400.114 339.076C400.788 340.026 401.398 341.021 402.076 341.968" stroke="#4C73FF" stroke-width="2.77778" stroke-miterlimit="1.5" stroke-linecap="round" stroke-linejoin="round"/>
<path d="M420.888 339.573C421.324 338.415 421.796 337.281 422.301 336.152" stroke="#4C73FF" stroke-width="2.77778" stroke-miterlimit="1.5" stroke-linecap="round" stroke-linejoin="round"/>
<path d="M431.792 353.138C433.244 352.849 434.712 352.62 436.171 352.369" stroke="#4C73FF" stroke-width="2.77778" stroke-miterlimit="1.5" stroke-linecap="round" stroke-linejoin="round"/>
<path d="M423.416 367.925C423.974 369.076 424.54 370.218 425.057 371.388" stroke="#4C73FF" stroke-width="2.77778" stroke-miterlimit="1.5" stroke-linecap="round" stroke-linejoin="round"/>
</g>
<path d="M80 59C80 75.5686 66.5686 89 50 89C33.4314 89 20 75.5686 20 59C20 42.4314 33.4314 29 50 29C66.5686 29 80 42.4314 80 59Z" fill="#BABABA"/>
<path d="M57.2057 75.4997C63.5599 72.7208 68 66.379 68 59C68 49.0589 59.9411 41 50 41C40.0589 41 32 49.0589 32 59C32 66.3794 36.4406 72.7215 42.7955 75.5003C38.8381 77.231 35.6231 80.3437 33.7607 84.2284C38.4416 87.2477 44.0166 89 50.0012 89C55.9856 89 61.5607 87.2477 66.2416 84.2284C64.379 80.3434 61.1636 77.2304 57.2057 75.4997Z" fill="#E8E8E8"/>
<path d="M212 36C212 52.5686 198.569 66 182 66C165.431 66 152 52.5686 152 36C152 19.4314 165.431 6 182 6C198.569 6 212 19.4314 212 36Z" fill="#BABABA"/>
<path d="M189.206 52.4997C195.56 49.7208 200 43.379 200 36C200 26.0589 191.941 18 182 18C172.059 18 164 26.0589 164 36C164 43.3794 168.441 49.7215 174.796 52.5003C170.838 54.231 167.623 57.3437 165.761 61.2284C170.442 64.2477 176.017 66 182.001 66C187.986 66 193.561 64.2477 198.242 61.2284C196.379 57.3434 193.164 54.2304 189.206 52.4997Z" fill="#E8E8E8"/>
<path d="M340 36C340 52.5686 326.569 66 310 66C293.431 66 280 52.5686 280 36C280 19.4314 293.431 6 310 6C326.569 6 340 19.4314 340 36Z" fill="#BABABA"/>
<path d="M317.206 52.4997C323.56 49.7208 328 43.379 328 36C328 26.0589 319.941 18 310 18C300.059 18 292 26.0589 292 36C292 43.3794 296.441 49.7215 302.796 52.5003C298.838 54.231 295.623 57.3437 293.761 61.2284C298.442 64.2477 304.017 66 310.001 66C315.986 66 321.561 64.2477 326.242 61.2284C324.379 57.3434 321.164 54.2304 317.206 52.4997Z" fill="#E8E8E8"/>
<path d="M152 131C152 147.569 138.569 161 122 161C105.431 161 92 147.569 92 131C92 114.431 105.431 101 122 101C138.569 101 152 114.431 152 131Z" fill="#BABABA"/>
<path d="M129.206 147.5C135.56 144.721 140 138.379 140 131C140 121.059 131.941 113 122 113C112.059 113 104 121.059 104 131C104 138.379 108.441 144.722 114.796 147.5C110.838 149.231 107.623 152.344 105.761 156.228C110.442 159.248 116.017 161 122.001 161C127.986 161 133.561 159.248 138.242 156.228C136.379 152.343 133.164 149.23 129.206 147.5Z" fill="#E8E8E8"/>
<path d="M391 123C391 139.569 377.569 153 361 153C344.431 153 331 139.569 331 123C331 106.431 344.431 93 361 93C377.569 93 391 106.431 391 123Z" fill="#BABABA"/>
<path d="M368.206 139.5C374.56 136.721 379 130.379 379 123C379 113.059 370.941 105 361 105C351.059 105 343 113.059 343 123C343 130.379 347.441 136.722 353.796 139.5C349.838 141.231 346.623 144.344 344.761 148.228C349.442 151.248 355.017 153 361.001 153C366.986 153 372.561 151.248 377.242 148.228C375.379 144.343 372.164 141.23 368.206 139.5Z" fill="#E8E8E8"/>
<path d="M282 144C282 160.569 268.569 174 252 174C235.431 174 222 160.569 222 144C222 127.431 235.431 114 252 114C268.569 114 282 127.431 282 144Z" fill="#BABABA"/>
<path d="M259.206 160.5C265.56 157.721 270 151.379 270 144C270 134.059 261.941 126 252 126C242.059 126 234 134.059 234 144C234 151.379 238.441 157.722 244.796 160.5C240.838 162.231 237.623 165.344 235.761 169.228C240.442 172.248 246.017 174 252.001 174C257.986 174 263.561 172.248 268.242 169.228C266.379 165.343 263.164 162.23 259.206 160.5Z" fill="#E8E8E8"/>
<path d="M95.4979 400.553C90.064 406.204 85.4977 412.804 80.6076 418.914C78.7807 421.195 76.905 424.667 74.5712 426.501" stroke="#4C73FF" stroke-width="2.77778" stroke-miterlimit="1.5" stroke-linecap="round" stroke-linejoin="round"/>
<path d="M136.11 439.654C134.825 431.92 132.261 424.315 130.283 416.743C129.545 413.915 127.882 410.337 127.806 407.369" stroke="#4C73FF" stroke-width="2.77778" stroke-miterlimit="1.5" stroke-linecap="round" stroke-linejoin="round"/>
<path d="M116.044 466.018C108.705 463.263 100.836 461.681 93.2903 459.608C90.4721 458.833 86.5417 458.484 83.9333 457.067" stroke="#4C73FF" stroke-width="2.77778" stroke-miterlimit="1.5" stroke-linecap="round" stroke-linejoin="round"/>
<path d="M176 468C176 484.569 162.569 498 146 498C129.431 498 116 484.569 116 468C116 451.431 129.431 438 146 438C162.569 438 176 451.431 176 468Z" fill="#4C73FF"/>
<path d="M153.206 484.5C159.56 481.721 164 475.379 164 468C164 458.059 155.941 450 146 450C136.059 450 128 458.059 128 468C128 475.379 132.441 481.722 138.796 484.5C134.838 486.231 131.623 489.344 129.761 493.228C134.442 496.248 140.017 498 146.001 498C151.986 498 157.561 496.248 162.242 493.228C160.379 489.343 157.164 486.23 153.206 484.5Z" fill="#CEE5FE"/>
<path d="M146 478.5C149.106 478.5 151.771 476.612 152.91 473.921C153.556 472.395 152.157 471 150.5 471H141.5C139.843 471 138.444 472.395 139.09 473.921C140.229 476.612 142.894 478.5 146 478.5Z" fill="#4C73FF"/>
<path d="M140 464.25C140 465.493 138.993 466.5 137.75 466.5C136.507 466.5 135.5 465.493 135.5 464.25C135.5 463.007 136.507 462 137.75 462C138.993 462 140 463.007 140 464.25Z" fill="#4C73FF"/>
<path d="M156.5 464.25C156.5 465.493 155.493 466.5 154.25 466.5C153.007 466.5 152 465.493 152 464.25C152 463.007 153.007 462 154.25 462C155.493 462 156.5 463.007 156.5 464.25Z" fill="#4C73FF"/>
<path d="M147 379C147 395.569 133.569 409 117 409C100.431 409 87 395.569 87 379C87 362.431 100.431 349 117 349C133.569 349 147 362.431 147 379Z" fill="#4C73FF"/>
<path d="M97.5 379C97.5 368.23 106.23 359.5 117 359.5C127.77 359.5 136.5 368.23 136.5 379V392.227C136.5 393.206 135.706 394 134.727 394C132.527 394 130.421 393.599 128.477 392.867C127.192 393.932 125.756 394.822 124.206 395.5C128.164 397.23 131.379 400.343 133.242 404.228C128.561 407.248 122.986 409 117.001 409C111.017 409 105.442 407.248 100.761 404.228C102.623 400.344 105.838 397.231 109.796 395.5C108.245 394.822 106.809 393.932 105.523 392.867C103.579 393.599 101.473 394 99.2727 394C98.2936 394 97.5 393.206 97.5 392.227V379Z" fill="#CEE5FE"/>
<path fill-rule="evenodd" clip-rule="evenodd" d="M112.5 383.5C113.328 383.5 114 384.172 114 385C114 386.657 115.343 388 117 388C118.657 388 120 386.657 120 385C120 384.172 120.672 383.5 121.5 383.5C122.328 383.5 123 384.172 123 385C123 388.314 120.314 391 117 391C113.686 391 111 388.314 111 385C111 384.172 111.672 383.5 112.5 383.5Z" fill="#4C73FF"/>
<path d="M111 375.25C111 376.493 109.993 377.5 108.75 377.5C107.507 377.5 106.5 376.493 106.5 375.25C106.5 374.007 107.507 373 108.75 373C109.993 373 111 374.007 111 375.25Z" fill="#4C73FF"/>
<path d="M127.5 375.25C127.5 376.493 126.493 377.5 125.25 377.5C124.007 377.5 123 376.493 123 375.25C123 374.007 124.007 373 125.25 373C126.493 373 127.5 374.007 127.5 375.25Z" fill="#4C73FF"/>
<path d="M86 450C86 466.569 72.5686 480 56 480C39.4314 480 26 466.569 26 450C26 433.431 39.4314 420 56 420C72.5686 420 86 433.431 86 450Z" fill="#4C73FF"/>
<path d="M36.65 448.95C36.65 450.205 37.2212 451.327 38.1179 452.07C38.8599 458.551 43.0436 463.985 48.7955 466.5C44.8381 468.231 41.6231 471.344 39.7607 475.228C44.4416 478.248 50.0166 480 56.0012 480C61.9856 480 67.5607 478.248 72.2416 475.228C70.3792 471.343 67.1638 468.23 63.2057 466.5C68.9571 463.985 73.1405 458.55 73.8824 452.07C74.7789 451.327 75.3498 450.205 75.3498 448.95C75.3498 448.135 75.1091 447.376 74.6949 446.741C75.6417 445.999 76.2503 444.846 76.2503 443.55C76.2503 442.116 75.505 440.856 74.3806 440.136C74.7114 439.55 74.9003 438.872 74.9003 438.15C74.9003 435.913 73.0871 434.1 70.8503 434.1C70.8503 431.863 69.0371 430.05 66.8003 430.05C66.2733 430.05 65.7699 430.151 65.3083 430.334C64.8403 428.614 63.2678 427.35 61.4002 427.35C60.6783 427.35 60.0007 427.539 59.4138 427.87C58.6941 426.745 57.4341 426 56.0001 426C54.5661 426 53.3062 426.745 52.5865 427.87C51.9997 427.539 51.322 427.35 50.6002 427.35C48.7325 427.35 47.1601 428.614 46.6921 430.334C46.2304 430.151 45.7269 430.05 45.2 430.05C42.9632 430.05 41.15 431.863 41.15 434.1C38.9132 434.1 37.1 435.913 37.1 438.15C37.1 438.872 37.2889 439.55 37.6198 440.136C36.4954 440.856 35.75 442.116 35.75 443.55C35.75 444.846 36.3584 445.999 37.3052 446.74C36.8908 447.376 36.65 448.135 36.65 448.95Z" fill="#CEE5FE"/>
<path fill-rule="evenodd" clip-rule="evenodd" d="M51.5 454.5C52.3284 454.5 53 455.172 53 456C53 457.657 54.3431 459 56 459C57.6569 459 59 457.657 59 456C59 455.172 59.6715 454.5 60.5 454.5C61.3285 454.5 62 455.172 62 456C62 459.314 59.3137 462 56 462C52.6863 462 50 459.314 50 456C50 455.172 50.6716 454.5 51.5 454.5Z" fill="#4C73FF"/>
<path d="M50 446.25C50 447.493 48.9926 448.5 47.75 448.5C46.5074 448.5 45.5 447.493 45.5 446.25C45.5 445.007 46.5074 444 47.75 444C48.9926 444 50 445.007 50 446.25Z" fill="#4C73FF"/>
<path d="M66.5 446.25C66.5 447.493 65.4926 448.5 64.25 448.5C63.0074 448.5 62 447.493 62 446.25C62 445.007 63.0074 444 64.25 444C65.4926 444 66.5 445.007 66.5 446.25Z" fill="#4C73FF"/>
<path d="M270.657 403.169C272.171 410.861 274.961 418.386 277.163 425.896C277.985 428.7 279.754 432.228 279.919 435.192" stroke="#4C73FF" stroke-width="2.77778" stroke-miterlimit="1.5" stroke-linecap="round" stroke-linejoin="round"/>
<path d="M325.977 392.312C318.904 388.93 311.202 386.671 303.865 383.95C301.125 382.934 297.24 382.245 294.764 380.606" stroke="#4C73FF" stroke-width="2.77778" stroke-miterlimit="1.5" stroke-linecap="round" stroke-linejoin="round"/>
<g clip-path="url(#clip1_205_11)">
<path d="M337.431 412.131C331.667 417.445 326.712 423.758 321.463 429.563C319.502 431.73 317.421 435.082 314.981 436.773" stroke="#4C73FF" stroke-width="2.77778" stroke-miterlimit="1.5" stroke-linecap="round" stroke-linejoin="round"/>
</g>
<path d="M382 392C382 408.569 368.569 422 352 422C335.431 422 322 408.569 322 392C322 375.431 335.431 362 352 362C368.569 362 382 375.431 382 392Z" fill="#4C73FF"/>
<path d="M359.206 408.5C365.56 405.721 370 399.379 370 392C370 382.059 361.941 374 352 374C342.059 374 334 382.059 334 392C334 399.379 338.441 405.722 344.796 408.5C340.838 410.231 337.623 413.344 335.761 417.228C340.442 420.248 346.017 422 352.001 422C357.986 422 363.561 420.248 368.242 417.228C366.379 413.343 363.164 410.23 359.206 408.5Z" fill="#CEE5FE"/>
<path d="M352 402.5C355.106 402.5 357.771 400.612 358.91 397.921C359.556 396.395 358.157 395 356.5 395H347.5C345.843 395 344.444 396.395 345.09 397.921C346.229 400.612 348.894 402.5 352 402.5Z" fill="#4C73FF"/>
<path d="M346 388.25C346 389.493 344.993 390.5 343.75 390.5C342.507 390.5 341.5 389.493 341.5 388.25C341.5 387.007 342.507 386 343.75 386C344.993 386 346 387.007 346 388.25Z" fill="#4C73FF"/>
<path d="M362.5 388.25C362.5 389.493 361.493 390.5 360.25 390.5C359.007 390.5 358 389.493 358 388.25C358 387.007 359.007 386 360.25 386C361.493 386 362.5 387.007 362.5 388.25Z" fill="#4C73FF"/>
<path d="M326 460C326 476.569 312.569 490 296 490C279.431 490 266 476.569 266 460C266 443.431 279.431 430 296 430C312.569 430 326 443.431 326 460Z" fill="#4C73FF"/>
<path d="M276.65 458.95C276.65 460.205 277.221 461.327 278.118 462.07C278.86 468.551 283.044 473.985 288.796 476.5C284.838 478.231 281.623 481.344 279.761 485.228C284.442 488.248 290.017 490 296.001 490C301.986 490 307.561 488.248 312.242 485.228C310.379 481.343 307.164 478.23 303.206 476.5C308.957 473.985 313.14 468.55 313.882 462.07C314.779 461.327 315.35 460.205 315.35 458.95C315.35 458.135 315.109 457.376 314.695 456.741C315.642 455.999 316.25 454.846 316.25 453.55C316.25 452.116 315.505 450.856 314.381 450.136C314.711 449.55 314.9 448.872 314.9 448.15C314.9 445.913 313.087 444.1 310.85 444.1C310.85 441.863 309.037 440.05 306.8 440.05C306.273 440.05 305.77 440.151 305.308 440.334C304.84 438.614 303.268 437.35 301.4 437.35C300.678 437.35 300.001 437.539 299.414 437.87C298.694 436.745 297.434 436 296 436C294.566 436 293.306 436.745 292.586 437.87C292 437.539 291.322 437.35 290.6 437.35C288.733 437.35 287.16 438.614 286.692 440.334C286.23 440.151 285.727 440.05 285.2 440.05C282.963 440.05 281.15 441.863 281.15 444.1C278.913 444.1 277.1 445.913 277.1 448.15C277.1 448.872 277.289 449.55 277.62 450.136C276.495 450.856 275.75 452.116 275.75 453.55C275.75 454.846 276.358 455.999 277.305 456.74C276.891 457.376 276.65 458.135 276.65 458.95Z" fill="#CEE5FE"/>
<path fill-rule="evenodd" clip-rule="evenodd" d="M291.5 464.5C292.328 464.5 293 465.172 293 466C293 467.657 294.343 469 296 469C297.657 469 299 467.657 299 466C299 465.172 299.672 464.5 300.5 464.5C301.328 464.5 302 465.172 302 466C302 469.314 299.314 472 296 472C292.686 472 290 469.314 290 466C290 465.172 290.672 464.5 291.5 464.5Z" fill="#4C73FF"/>
<path d="M290 456.25C290 457.493 288.993 458.5 287.75 458.5C286.507 458.5 285.5 457.493 285.5 456.25C285.5 455.007 286.507 454 287.75 454C288.993 454 290 455.007 290 456.25Z" fill="#4C73FF"/>
<path d="M306.5 456.25C306.5 457.493 305.493 458.5 304.25 458.5C303.007 458.5 302 457.493 302 456.25C302 455.007 303.007 454 304.25 454C305.493 454 306.5 455.007 306.5 456.25Z" fill="#4C73FF"/>
<path d="M296 380C296 396.569 282.569 410 266 410C249.431 410 236 396.569 236 380C236 363.431 249.431 350 266 350C282.569 350 296 363.431 296 380Z" fill="#4C73FF"/>
<path d="M246.65 378.95C246.65 380.205 247.221 381.327 248.118 382.07C248.86 388.551 253.044 393.985 258.796 396.5C254.838 398.231 251.623 401.344 249.761 405.228C254.442 408.248 260.017 410 266.001 410C271.986 410 277.561 408.248 282.242 405.228C280.379 401.343 277.164 398.23 273.206 396.5C278.957 393.985 283.14 388.55 283.882 382.07C284.779 381.327 285.35 380.205 285.35 378.95C285.35 378.135 285.109 377.376 284.695 376.741C285.642 375.999 286.25 374.846 286.25 373.55C286.25 372.116 285.505 370.856 284.381 370.136C284.711 369.55 284.9 368.872 284.9 368.15C284.9 365.913 283.087 364.1 280.85 364.1C280.85 361.863 279.037 360.05 276.8 360.05C276.273 360.05 275.77 360.151 275.308 360.334C274.84 358.614 273.268 357.35 271.4 357.35C270.678 357.35 270.001 357.539 269.414 357.87C268.694 356.745 267.434 356 266 356C264.566 356 263.306 356.745 262.586 357.87C262 357.539 261.322 357.35 260.6 357.35C258.733 357.35 257.16 358.614 256.692 360.334C256.23 360.151 255.727 360.05 255.2 360.05C252.963 360.05 251.15 361.863 251.15 364.1C248.913 364.1 247.1 365.913 247.1 368.15C247.1 368.872 247.289 369.55 247.62 370.136C246.495 370.856 245.75 372.116 245.75 373.55C245.75 374.846 246.358 375.999 247.305 376.74C246.891 377.376 246.65 378.135 246.65 378.95Z" fill="#CEE5FE"/>
<path fill-rule="evenodd" clip-rule="evenodd" d="M261.5 384.5C262.328 384.5 263 385.172 263 386C263 387.657 264.343 389 266 389C267.657 389 269 387.657 269 386C269 385.172 269.672 384.5 270.5 384.5C271.328 384.5 272 385.172 272 386C272 389.314 269.314 392 266 392C262.686 392 260 389.314 260 386C260 385.172 260.672 384.5 261.5 384.5Z" fill="#4C73FF"/>
<path d="M260 376.25C260 377.493 258.993 378.5 257.75 378.5C256.507 378.5 255.5 377.493 255.5 376.25C255.5 375.007 256.507 374 257.75 374C258.993 374 260 375.007 260 376.25Z" fill="#4C73FF"/>
<path d="M276.5 376.25C276.5 377.493 275.493 378.5 274.25 378.5C273.007 378.5 272 377.493 272 376.25C272 375.007 273.007 374 274.25 374C275.493 374 276.5 375.007 276.5 376.25Z" fill="#4C73FF"/>
<path d="M33.379 362.889C24.3405 358.728 13.2764 362.523 8.40362 370.564C3.38431 378.847 5.7989 392.067 15.3657 396.564C20.8966 399.163 29.2932 399.42 34.7838 396.288C45.0192 390.45 47.5772 375.657 38.9397 366.629" stroke="#4C73FF" stroke-width="2.77778" stroke-miterlimit="1.5" stroke-linecap="round" stroke-linejoin="round"/>
<path d="M27.1364 372.055C24.9382 372.16 22.5509 372.495 20.9454 374.136C19.6427 375.468 19.1984 377.607 21.0621 378.712C23.7619 380.314 27.5193 378.482 30.0653 380.575C31.8227 382.02 30.9552 384.475 29.4431 385.704C28.2721 386.655 26.7262 386.97 25.249 386.977C23.6728 386.985 22.0843 387.045 20.509 387.008" stroke="#4C73FF" stroke-width="2.77778" stroke-miterlimit="1.5" stroke-linecap="round" stroke-linejoin="round"/>
<path d="M24.7852 372.447C24.8089 371.536 24.8677 370.632 24.8368 369.721" stroke="#4C73FF" stroke-width="2.77778" stroke-miterlimit="1.5" stroke-linecap="round" stroke-linejoin="round"/>
<path d="M24.6362 386.974C24.6636 387.836 24.6918 388.696 24.7393 389.557" stroke="#4C73FF" stroke-width="2.77778" stroke-miterlimit="1.5" stroke-linecap="round" stroke-linejoin="round"/>
<defs>
<clipPath id="clip0_205_11">
<rect width="50" height="50" fill="white" transform="translate(399.929 324) rotate(22.2459)"/>
</clipPath>
<clipPath id="clip1_205_11">
<rect width="50" height="50" fill="white" transform="translate(287.952 431.352) rotate(-40.0174)"/>
</clipPath>
</defs>
</svg>
