<svg width="549" height="329" viewBox="0 0 549 329" fill="none" xmlns="http://www.w3.org/2000/svg">
<circle cx="414" cy="273" r="9" fill="#21EA4D"/>
<path d="M363.466 308.168C362.458 308.168 361.538 307.992 360.706 307.64C359.874 307.288 359.154 306.776 358.546 306.104C357.938 305.416 357.466 304.576 357.13 303.584C356.794 302.576 356.626 301.424 356.626 300.128V298.832C356.626 297.6 356.794 296.504 357.13 295.544C357.466 294.568 357.938 293.752 358.546 293.096C359.154 292.424 359.874 291.912 360.706 291.56C361.554 291.208 362.474 291.032 363.466 291.032C364.378 291.032 365.194 291.168 365.914 291.44C366.65 291.696 367.29 292.048 367.834 292.496C368.378 292.944 368.81 293.472 369.13 294.08C369.466 294.672 369.698 295.312 369.826 296H368.05C367.922 295.52 367.73 295.072 367.474 294.656C367.234 294.24 366.922 293.88 366.538 293.576C366.154 293.256 365.706 293.008 365.194 292.832C364.682 292.656 364.106 292.568 363.466 292.568C362.73 292.568 362.05 292.704 361.426 292.976C360.802 293.248 360.258 293.648 359.794 294.176C359.346 294.704 358.994 295.36 358.738 296.144C358.482 296.912 358.354 297.808 358.354 298.832V300.128C358.354 301.2 358.482 302.144 358.738 302.96C359.01 303.776 359.37 304.456 359.818 305C360.282 305.544 360.826 305.952 361.45 306.224C362.074 306.496 362.746 306.632 363.466 306.632C364.762 306.632 365.786 306.288 366.538 305.6C367.306 304.912 367.81 304.032 368.05 302.96H369.826C369.698 303.712 369.466 304.408 369.13 305.048C368.81 305.672 368.378 306.216 367.834 306.68C367.29 307.144 366.65 307.512 365.914 307.784C365.194 308.04 364.378 308.168 363.466 308.168ZM373.185 296H374.433L374.625 297.8H374.673C375.201 297.112 375.785 296.616 376.425 296.312C377.065 295.992 377.817 295.832 378.681 295.832C379.385 295.832 380.033 295.96 380.625 296.216C381.217 296.456 381.721 296.824 382.137 297.32C382.569 297.8 382.905 298.4 383.145 299.12C383.385 299.84 383.505 300.664 383.505 301.592V302.408C383.505 303.336 383.385 304.16 383.145 304.88C382.905 305.584 382.569 306.184 382.137 306.68C381.705 307.16 381.193 307.528 380.601 307.784C380.009 308.04 379.369 308.168 378.681 308.168C376.953 308.168 375.665 307.552 374.817 306.32H374.769V312.8H373.185V296ZM378.321 306.728C379.377 306.728 380.233 306.376 380.889 305.672C381.545 304.952 381.873 303.864 381.873 302.408V301.592C381.873 300.168 381.537 299.096 380.865 298.376C380.209 297.64 379.361 297.272 378.321 297.272C377.265 297.272 376.409 297.632 375.753 298.352C375.097 299.056 374.769 300.136 374.769 301.592V302.408C374.769 303.832 375.097 304.912 375.753 305.648C376.425 306.368 377.281 306.728 378.321 306.728ZM389.992 308.168C388.664 308.168 387.672 307.864 387.016 307.256C386.36 306.632 386.032 305.776 386.032 304.688C386.032 303.552 386.424 302.648 387.208 301.976C387.992 301.304 389.24 300.968 390.952 300.968H394.048V300.08C394.048 299.12 393.816 298.424 393.352 297.992C392.888 297.544 392.128 297.32 391.072 297.32C390.096 297.32 389.376 297.488 388.912 297.824C388.464 298.16 388.208 298.592 388.144 299.12H386.512C386.544 298.688 386.664 298.272 386.872 297.872C387.08 297.472 387.368 297.12 387.736 296.816C388.12 296.512 388.592 296.272 389.152 296.096C389.712 295.92 390.352 295.832 391.072 295.832C392.624 295.832 393.768 296.192 394.504 296.912C395.256 297.616 395.632 298.672 395.632 300.08V308H394.384L394.192 305.96H394.144C393.664 306.68 393.064 307.232 392.344 307.616C391.64 307.984 390.856 308.168 389.992 308.168ZM390.112 306.68C390.688 306.68 391.216 306.592 391.696 306.416C392.176 306.224 392.592 305.968 392.944 305.648C393.296 305.312 393.568 304.92 393.76 304.472C393.952 304.008 394.048 303.504 394.048 302.96V302.312H391.072C389.84 302.312 388.96 302.528 388.432 302.96C387.92 303.392 387.664 303.968 387.664 304.688C387.664 305.296 387.856 305.784 388.24 306.152C388.64 306.504 389.264 306.68 390.112 306.68ZM404.303 308.168C402.671 308.168 401.375 307.648 400.415 306.608C399.471 305.552 398.999 303.912 398.999 301.688V300.392C398.999 299.48 399.039 298.616 399.119 297.8C399.199 296.984 399.335 296.24 399.527 295.568C399.735 294.896 400.015 294.304 400.367 293.792C400.719 293.264 401.175 292.832 401.735 292.496C402.231 292.208 402.719 292.016 403.199 291.92C403.695 291.808 404.215 291.728 404.759 291.68C405.303 291.632 405.887 291.576 406.511 291.512C407.135 291.432 407.831 291.272 408.599 291.032V292.496C407.991 292.72 407.399 292.864 406.823 292.928C406.263 292.992 405.719 293.048 405.191 293.096C404.679 293.144 404.191 293.208 403.727 293.288C403.263 293.368 402.839 293.528 402.455 293.768C401.863 294.152 401.415 294.696 401.111 295.4C400.823 296.104 400.631 297.024 400.535 298.16H400.583C400.999 297.488 401.543 296.976 402.215 296.624C402.903 296.256 403.695 296.072 404.591 296.072C405.311 296.072 405.975 296.2 406.583 296.456C407.191 296.712 407.711 297.08 408.143 297.56C408.591 298.04 408.935 298.632 409.175 299.336C409.431 300.04 409.559 300.832 409.559 301.712V302.528C409.559 303.408 409.431 304.2 409.175 304.904C408.919 305.592 408.559 306.184 408.095 306.68C407.647 307.16 407.095 307.528 406.439 307.784C405.799 308.04 405.087 308.168 404.303 308.168ZM404.303 306.728C405.391 306.728 406.263 306.376 406.919 305.672C407.591 304.952 407.927 303.904 407.927 302.528V301.712C407.927 300.336 407.591 299.296 406.919 298.592C406.263 297.872 405.391 297.512 404.303 297.512C403.183 297.512 402.287 297.864 401.615 298.568C400.959 299.272 400.631 300.32 400.631 301.712V302.528C400.631 303.888 400.967 304.928 401.639 305.648C402.311 306.368 403.199 306.728 404.303 306.728ZM417.471 308.168C415.855 308.168 414.567 307.672 413.607 306.68C412.663 305.688 412.191 304.264 412.191 302.408V301.592C412.191 300.68 412.311 299.864 412.551 299.144C412.807 298.424 413.167 297.824 413.631 297.344C414.095 296.848 414.647 296.472 415.287 296.216C415.943 295.96 416.671 295.832 417.471 295.832C419.087 295.832 420.367 296.328 421.311 297.32C422.271 298.312 422.751 299.736 422.751 301.592V302.408C422.751 303.32 422.623 304.136 422.367 304.856C422.127 305.576 421.775 306.184 421.311 306.68C420.847 307.16 420.287 307.528 419.631 307.784C418.991 308.04 418.271 308.168 417.471 308.168ZM417.471 306.728C418.575 306.728 419.455 306.368 420.111 305.648C420.783 304.928 421.119 303.848 421.119 302.408V301.592C421.119 300.168 420.783 299.096 420.111 298.376C419.439 297.64 418.559 297.272 417.471 297.272C416.367 297.272 415.479 297.632 414.807 298.352C414.151 299.072 413.823 300.152 413.823 301.592V302.408C413.823 303.832 414.159 304.912 414.831 305.648C415.503 306.368 416.383 306.728 417.471 306.728ZM428.086 297.44H424.078V296H433.678V297.44H429.67V308H428.086V297.44ZM439.094 308.168C437.766 308.168 436.774 307.864 436.118 307.256C435.462 306.632 435.134 305.776 435.134 304.688C435.134 303.552 435.526 302.648 436.31 301.976C437.094 301.304 438.342 300.968 440.054 300.968H443.15V300.08C443.15 299.12 442.918 298.424 442.454 297.992C441.99 297.544 441.23 297.32 440.174 297.32C439.198 297.32 438.478 297.488 438.014 297.824C437.566 298.16 437.31 298.592 437.246 299.12H435.614C435.646 298.688 435.766 298.272 435.974 297.872C436.182 297.472 436.47 297.12 436.838 296.816C437.222 296.512 437.694 296.272 438.254 296.096C438.814 295.92 439.454 295.832 440.174 295.832C441.726 295.832 442.87 296.192 443.606 296.912C444.358 297.616 444.734 298.672 444.734 300.08V308H443.486L443.294 305.96H443.246C442.766 306.68 442.166 307.232 441.446 307.616C440.742 307.984 439.958 308.168 439.094 308.168ZM439.214 306.68C439.79 306.68 440.318 306.592 440.798 306.416C441.278 306.224 441.694 305.968 442.046 305.648C442.398 305.312 442.67 304.92 442.862 304.472C443.054 304.008 443.15 303.504 443.15 302.96V302.312H440.174C438.942 302.312 438.062 302.528 437.534 302.96C437.022 303.392 436.766 303.968 436.766 304.688C436.766 305.296 436.958 305.784 437.342 306.152C437.742 306.504 438.366 306.68 439.214 306.68ZM447.14 306.728H447.5C447.996 306.728 448.38 306.56 448.652 306.224C448.924 305.888 449.124 305.4 449.252 304.76C449.396 304.12 449.476 303.344 449.492 302.432C449.524 301.52 449.54 300.496 449.54 299.36V296H457.7V308H456.116V297.44H451.124V299.36C451.124 300.656 451.1 301.84 451.052 302.912C451.02 303.984 450.884 304.912 450.644 305.696C450.42 306.48 450.06 307.088 449.564 307.52C449.084 307.952 448.396 308.168 447.5 308.168H447.14V306.728ZM466.338 308.168C464.722 308.168 463.434 307.672 462.474 306.68C461.53 305.688 461.058 304.264 461.058 302.408V301.592C461.058 300.68 461.178 299.864 461.418 299.144C461.674 298.424 462.034 297.824 462.498 297.344C462.962 296.848 463.514 296.472 464.154 296.216C464.81 295.96 465.538 295.832 466.338 295.832C467.954 295.832 469.234 296.328 470.178 297.32C471.138 298.312 471.618 299.736 471.618 301.592V302.408C471.618 303.32 471.49 304.136 471.234 304.856C470.994 305.576 470.642 306.184 470.178 306.68C469.714 307.16 469.154 307.528 468.498 307.784C467.858 308.04 467.138 308.168 466.338 308.168ZM466.338 306.728C467.442 306.728 468.322 306.368 468.978 305.648C469.65 304.928 469.986 303.848 469.986 302.408V301.592C469.986 300.168 469.65 299.096 468.978 298.376C468.306 297.64 467.426 297.272 466.338 297.272C465.234 297.272 464.346 297.632 463.674 298.352C463.018 299.072 462.69 300.152 462.69 301.592V302.408C462.69 303.832 463.026 304.912 463.698 305.648C464.37 306.368 465.25 306.728 466.338 306.728Z" fill="black"/>
<circle cx="239" cy="9" r="9" fill="#FF4B53"/>
<path d="M202.461 27.2H214.941V44H213.261V28.736H204.141V44H202.461V27.2ZM223.705 44.168C222.089 44.168 220.801 43.672 219.841 42.68C218.897 41.688 218.425 40.264 218.425 38.408V37.592C218.425 36.68 218.545 35.864 218.785 35.144C219.041 34.424 219.401 33.824 219.865 33.344C220.329 32.848 220.881 32.472 221.521 32.216C222.177 31.96 222.905 31.832 223.705 31.832C225.321 31.832 226.601 32.328 227.545 33.32C228.505 34.312 228.985 35.736 228.985 37.592V38.408C228.985 39.32 228.857 40.136 228.601 40.856C228.361 41.576 228.009 42.184 227.545 42.68C227.081 43.16 226.521 43.528 225.865 43.784C225.225 44.04 224.505 44.168 223.705 44.168ZM223.705 42.728C224.809 42.728 225.689 42.368 226.345 41.648C227.017 40.928 227.353 39.848 227.353 38.408V37.592C227.353 36.168 227.017 35.096 226.345 34.376C225.673 33.64 224.793 33.272 223.705 33.272C222.601 33.272 221.713 33.632 221.041 34.352C220.385 35.072 220.057 36.152 220.057 37.592V38.408C220.057 39.832 220.393 40.912 221.065 41.648C221.737 42.368 222.617 42.728 223.705 42.728ZM234.32 33.44H230.312V32H239.912V33.44H235.904V44H234.32V33.44ZM246.414 44.168C245.646 44.168 244.942 44.04 244.302 43.784C243.662 43.528 243.118 43.16 242.67 42.68C242.222 42.184 241.87 41.584 241.614 40.88C241.374 40.16 241.254 39.336 241.254 38.408V37.592C241.254 36.68 241.374 35.864 241.614 35.144C241.87 34.424 242.222 33.824 242.67 33.344C243.134 32.848 243.678 32.472 244.302 32.216C244.942 31.96 245.646 31.832 246.414 31.832C247.182 31.832 247.886 31.96 248.526 32.216C249.166 32.472 249.71 32.848 250.158 33.344C250.606 33.84 250.95 34.456 251.19 35.192C251.446 35.912 251.574 36.752 251.574 37.712V38.432H242.886C242.886 39.824 243.19 40.888 243.798 41.624C244.406 42.36 245.278 42.728 246.414 42.728C248.126 42.728 249.262 42.032 249.822 40.64H251.454C251.166 41.792 250.59 42.672 249.726 43.28C248.878 43.872 247.774 44.168 246.414 44.168ZM246.414 33.272C245.39 33.272 244.566 33.6 243.942 34.256C243.318 34.896 242.966 35.84 242.886 37.088H249.942C249.862 35.792 249.502 34.832 248.862 34.208C248.238 33.584 247.422 33.272 246.414 33.272ZM254.935 32H256.183L256.375 33.8H256.423C256.951 33.112 257.535 32.616 258.175 32.312C258.815 31.992 259.567 31.832 260.431 31.832C261.135 31.832 261.783 31.96 262.375 32.216C262.967 32.456 263.471 32.824 263.887 33.32C264.319 33.8 264.655 34.4 264.895 35.12C265.135 35.84 265.255 36.664 265.255 37.592V38.408C265.255 39.336 265.135 40.16 264.895 40.88C264.655 41.584 264.319 42.184 263.887 42.68C263.455 43.16 262.943 43.528 262.351 43.784C261.759 44.04 261.119 44.168 260.431 44.168C258.703 44.168 257.415 43.552 256.567 42.32H256.519V48.8H254.935V32ZM260.071 42.728C261.127 42.728 261.983 42.376 262.639 41.672C263.295 40.952 263.623 39.864 263.623 38.408V37.592C263.623 36.168 263.287 35.096 262.615 34.376C261.959 33.64 261.111 33.272 260.071 33.272C259.015 33.272 258.159 33.632 257.503 34.352C256.847 35.056 256.519 36.136 256.519 37.592V38.408C256.519 39.832 256.847 40.912 257.503 41.648C258.175 42.368 259.031 42.728 260.071 42.728ZM270.35 39.2C269.534 38.928 268.942 38.504 268.574 37.928C268.206 37.352 268.022 36.632 268.022 35.768C268.022 34.568 268.39 33.64 269.126 32.984C269.878 32.328 271.11 32 272.822 32H276.662V44H275.078V39.536H272.822C272.662 39.536 272.502 39.536 272.342 39.536C272.198 39.536 272.054 39.528 271.91 39.512L269.366 44H267.542L270.35 39.2ZM269.654 35.768C269.654 36.52 269.894 37.096 270.374 37.496C270.854 37.896 271.71 38.096 272.942 38.096H275.078V33.44H272.942C271.71 33.44 270.854 33.64 270.374 34.04C269.894 34.44 269.654 35.016 269.654 35.768ZM197.869 75.168C196.237 75.168 194.941 74.648 193.981 73.608C193.037 72.552 192.565 70.912 192.565 68.688V67.392C192.565 66.48 192.605 65.616 192.685 64.8C192.765 63.984 192.901 63.24 193.093 62.568C193.301 61.896 193.581 61.304 193.933 60.792C194.285 60.264 194.741 59.832 195.301 59.496C195.797 59.208 196.285 59.016 196.765 58.92C197.261 58.808 197.781 58.728 198.325 58.68C198.869 58.632 199.453 58.576 200.077 58.512C200.701 58.432 201.397 58.272 202.165 58.032V59.496C201.557 59.72 200.965 59.864 200.389 59.928C199.829 59.992 199.285 60.048 198.757 60.096C198.245 60.144 197.757 60.208 197.293 60.288C196.829 60.368 196.405 60.528 196.021 60.768C195.429 61.152 194.981 61.696 194.677 62.4C194.389 63.104 194.197 64.024 194.101 65.16H194.149C194.565 64.488 195.109 63.976 195.781 63.624C196.469 63.256 197.261 63.072 198.157 63.072C198.877 63.072 199.541 63.2 200.149 63.456C200.757 63.712 201.277 64.08 201.709 64.56C202.157 65.04 202.501 65.632 202.741 66.336C202.997 67.04 203.125 67.832 203.125 68.712V69.528C203.125 70.408 202.997 71.2 202.741 71.904C202.485 72.592 202.125 73.184 201.661 73.68C201.213 74.16 200.661 74.528 200.005 74.784C199.365 75.04 198.653 75.168 197.869 75.168ZM197.869 73.728C198.957 73.728 199.829 73.376 200.485 72.672C201.157 71.952 201.493 70.904 201.493 69.528V68.712C201.493 67.336 201.157 66.296 200.485 65.592C199.829 64.872 198.957 64.512 197.869 64.512C196.749 64.512 195.853 64.864 195.181 65.568C194.525 66.272 194.197 67.32 194.197 68.712V69.528C194.197 70.888 194.533 71.928 195.205 72.648C195.877 73.368 196.765 73.728 197.869 73.728ZM206.478 63H208.062V68.16H210.75C210.782 67.328 210.926 66.584 211.182 65.928C211.438 65.256 211.79 64.696 212.238 64.248C212.686 63.784 213.214 63.432 213.822 63.192C214.43 62.952 215.094 62.832 215.814 62.832C216.566 62.832 217.254 62.96 217.878 63.216C218.502 63.472 219.03 63.848 219.462 64.344C219.91 64.824 220.254 65.424 220.494 66.144C220.75 66.848 220.878 67.664 220.878 68.592V69.408C220.878 70.32 220.75 71.136 220.494 71.856C220.254 72.576 219.91 73.184 219.462 73.68C219.014 74.16 218.478 74.528 217.854 74.784C217.23 75.04 216.55 75.168 215.814 75.168C215.062 75.168 214.374 75.048 213.75 74.808C213.142 74.552 212.614 74.192 212.166 73.728C211.734 73.248 211.39 72.664 211.134 71.976C210.878 71.288 210.75 70.496 210.75 69.6H208.062V75H206.478V63ZM215.814 73.728C216.806 73.728 217.622 73.368 218.262 72.648C218.918 71.928 219.246 70.848 219.246 69.408V68.592C219.246 67.872 219.158 67.248 218.982 66.72C218.806 66.176 218.566 65.728 218.262 65.376C217.958 65.008 217.598 64.736 217.182 64.56C216.766 64.368 216.31 64.272 215.814 64.272C214.806 64.272 213.982 64.624 213.342 65.328C212.702 66.032 212.382 67.08 212.382 68.472V69.288C212.382 70.776 212.702 71.888 213.342 72.624C213.998 73.36 214.822 73.728 215.814 73.728ZM222.449 73.56H223.769C224.025 73.16 224.233 72.752 224.393 72.336C224.569 71.92 224.705 71.448 224.801 70.92C224.913 70.392 224.985 69.784 225.017 69.096C225.065 68.392 225.089 67.56 225.089 66.6V63H233.249V73.56H234.809V78.12H233.273V75H223.985V78.12H222.449V73.56ZM231.665 73.56V64.44H226.625V66.6C226.625 67.464 226.609 68.224 226.577 68.88C226.545 69.536 226.489 70.136 226.409 70.68C226.329 71.208 226.217 71.704 226.073 72.168C225.929 72.616 225.753 73.064 225.545 73.512V73.56H231.665ZM239.929 68.688L236.473 63H238.249L241.201 68.04H243.361V63H244.945V68.04H247.105L250.057 63H251.833L248.377 68.688L252.073 75H250.249L247.105 69.48H244.945V75H243.361V69.48H241.201L238.057 75H236.233L239.929 68.688ZM258.8 75.168C258.032 75.168 257.328 75.04 256.688 74.784C256.048 74.528 255.504 74.16 255.056 73.68C254.608 73.184 254.256 72.584 254 71.88C253.76 71.16 253.64 70.336 253.64 69.408V68.592C253.64 67.68 253.76 66.864 254 66.144C254.256 65.424 254.608 64.824 255.056 64.344C255.52 63.848 256.064 63.472 256.688 63.216C257.328 62.96 258.032 62.832 258.8 62.832C259.568 62.832 260.272 62.96 260.912 63.216C261.552 63.472 262.096 63.848 262.544 64.344C262.992 64.84 263.336 65.456 263.576 66.192C263.832 66.912 263.96 67.752 263.96 68.712V69.432H255.272C255.272 70.824 255.576 71.888 256.184 72.624C256.792 73.36 257.664 73.728 258.8 73.728C260.512 73.728 261.648 73.032 262.208 71.64H263.84C263.552 72.792 262.976 73.672 262.112 74.28C261.264 74.872 260.16 75.168 258.8 75.168ZM258.8 64.272C257.776 64.272 256.952 64.6 256.328 65.256C255.704 65.896 255.352 66.84 255.272 68.088H262.328C262.248 66.792 261.888 65.832 261.248 65.208C260.624 64.584 259.808 64.272 258.8 64.272ZM269.301 64.44H265.293V63H274.893V64.44H270.885V75H269.301V64.44ZM280.308 75.168C278.98 75.168 277.988 74.864 277.332 74.256C276.676 73.632 276.348 72.776 276.348 71.688C276.348 70.552 276.74 69.648 277.524 68.976C278.308 68.304 279.556 67.968 281.268 67.968H284.364V67.08C284.364 66.12 284.132 65.424 283.668 64.992C283.204 64.544 282.444 64.32 281.388 64.32C280.412 64.32 279.692 64.488 279.228 64.824C278.78 65.16 278.524 65.592 278.46 66.12H276.828C276.86 65.688 276.98 65.272 277.188 64.872C277.396 64.472 277.684 64.12 278.052 63.816C278.436 63.512 278.908 63.272 279.468 63.096C280.028 62.92 280.668 62.832 281.388 62.832C282.94 62.832 284.084 63.192 284.82 63.912C285.572 64.616 285.948 65.672 285.948 67.08V75H284.7L284.508 72.96H284.46C283.98 73.68 283.38 74.232 282.66 74.616C281.956 74.984 281.172 75.168 280.308 75.168ZM280.428 73.68C281.004 73.68 281.532 73.592 282.012 73.416C282.492 73.224 282.908 72.968 283.26 72.648C283.612 72.312 283.884 71.92 284.076 71.472C284.268 71.008 284.364 70.504 284.364 69.96V69.312H281.388C280.156 69.312 279.276 69.528 278.748 69.96C278.236 70.392 277.98 70.968 277.98 71.688C277.98 72.296 278.172 72.784 278.556 73.152C278.956 73.504 279.58 73.68 280.428 73.68Z" fill="black"/>
<path d="M411.996 132.909C411.946 132.359 411.459 131.954 410.909 132.004L401.946 132.819C401.396 132.869 400.991 133.355 401.041 133.905C401.091 134.455 401.577 134.861 402.127 134.811L410.095 134.086L410.819 142.054C410.869 142.604 411.355 143.009 411.905 142.959C412.455 142.909 412.861 142.423 412.811 141.873L411.996 132.909ZM361.768 193.64L364.268 190.64L362.732 189.36L360.232 192.36L361.768 193.64ZM369.268 184.64L374.268 178.64L372.732 177.36L367.732 183.36L369.268 184.64ZM379.268 172.64L384.268 166.64L382.732 165.36L377.732 171.36L379.268 172.64ZM389.268 160.64L394.268 154.64L392.732 153.36L387.732 159.36L389.268 160.64ZM399.268 148.64L404.268 142.64L402.732 141.36L397.732 147.36L399.268 148.64ZM409.268 136.64L411.768 133.64L410.232 132.36L407.732 135.36L409.268 136.64Z" fill="#8DC4FF"/>
<path d="M402.783 259.976C403.322 260.096 403.856 259.756 403.976 259.217L405.929 250.431C406.048 249.892 405.708 249.358 405.169 249.238C404.63 249.118 404.096 249.458 403.976 249.997L402.241 257.807L394.431 256.071C393.892 255.952 393.358 256.292 393.238 256.831C393.118 257.37 393.458 257.904 393.997 258.024L402.783 259.976ZM360.156 193.537L362.256 196.837L363.944 195.763L361.844 192.463L360.156 193.537ZM366.456 203.437L370.656 210.037L372.344 208.963L368.144 202.363L366.456 203.437ZM374.856 216.637L379.056 223.237L380.744 222.163L376.544 215.563L374.856 216.637ZM383.256 229.837L387.456 236.437L389.144 235.363L384.944 228.763L383.256 229.837ZM391.656 243.037L395.856 249.637L397.544 248.563L393.344 241.963L391.656 243.037ZM400.056 256.237L402.156 259.537L403.844 258.463L401.744 255.163L400.056 256.237Z" fill="#8DC4FF"/>
<circle cx="45" cy="103" r="9" fill="#8DC4FF"/>
<path d="M13.5623 121.2H15.2423V128.592H17.8823L23.3543 121.2H25.3223L19.2743 129.312L25.8023 138H23.7383L17.8823 130.128H15.2423V138H13.5623V121.2ZM28.6767 126H30.2607V131.16H36.9327V126H38.5167V138H36.9327V132.6H30.2607V138H28.6767V126ZM42.5986 126H44.1826V136.2H44.2306L50.2306 126H52.4386V138H50.8546V127.8H50.8066L44.8066 138H42.5986V126ZM56.5205 126H64.2005V127.44H58.1045V138H56.5205V126ZM66.7158 126H68.2998V136.2H68.3478L74.3478 126H76.5558V138H74.9718V127.8H74.9238L68.9238 138H66.7158V126Z" fill="black"/>
<path d="M46 103H245.5C254.337 103 261.5 110.163 261.5 119V192.5" stroke="#8DC4FF" stroke-width="2" stroke-dasharray="8 8"/>
<circle cx="45" cy="193" r="9" fill="#8DC4FF"/>
<path d="M15.818 228.168C14.81 228.168 13.89 227.992 13.058 227.64C12.226 227.288 11.506 226.776 10.898 226.104C10.29 225.416 9.81797 224.576 9.48197 223.584C9.14597 222.576 8.97797 221.424 8.97797 220.128V218.832C8.97797 217.6 9.14597 216.504 9.48197 215.544C9.81797 214.568 10.29 213.752 10.898 213.096C11.506 212.424 12.226 211.912 13.058 211.56C13.906 211.208 14.826 211.032 15.818 211.032C16.73 211.032 17.546 211.168 18.266 211.44C19.002 211.696 19.642 212.048 20.186 212.496C20.73 212.944 21.162 213.472 21.482 214.08C21.818 214.672 22.05 215.312 22.178 216H20.402C20.274 215.52 20.082 215.072 19.826 214.656C19.586 214.24 19.274 213.88 18.89 213.576C18.506 213.256 18.058 213.008 17.546 212.832C17.034 212.656 16.458 212.568 15.818 212.568C15.082 212.568 14.402 212.704 13.778 212.976C13.154 213.248 12.61 213.648 12.146 214.176C11.698 214.704 11.346 215.36 11.09 216.144C10.834 216.912 10.706 217.808 10.706 218.832V220.128C10.706 221.2 10.834 222.144 11.09 222.96C11.362 223.776 11.722 224.456 12.17 225C12.634 225.544 13.178 225.952 13.802 226.224C14.426 226.496 15.098 226.632 15.818 226.632C17.114 226.632 18.138 226.288 18.89 225.6C19.658 224.912 20.162 224.032 20.402 222.96H22.178C22.05 223.712 21.818 224.408 21.482 225.048C21.162 225.672 20.73 226.216 20.186 226.68C19.642 227.144 19.002 227.512 18.266 227.784C17.546 228.04 16.73 228.168 15.818 228.168ZM28.2185 217.44H24.2105V216H33.8105V217.44H29.8025V228H28.2185V217.44ZM39.2264 228.168C37.8984 228.168 36.9064 227.864 36.2504 227.256C35.5944 226.632 35.2664 225.776 35.2664 224.688C35.2664 223.552 35.6584 222.648 36.4424 221.976C37.2264 221.304 38.4744 220.968 40.1864 220.968H43.2824V220.08C43.2824 219.12 43.0504 218.424 42.5864 217.992C42.1224 217.544 41.3624 217.32 40.3064 217.32C39.3304 217.32 38.6104 217.488 38.1464 217.824C37.6984 218.16 37.4424 218.592 37.3784 219.12H35.7464C35.7784 218.688 35.8984 218.272 36.1064 217.872C36.3144 217.472 36.6024 217.12 36.9704 216.816C37.3544 216.512 37.8264 216.272 38.3864 216.096C38.9464 215.92 39.5864 215.832 40.3064 215.832C41.8584 215.832 43.0024 216.192 43.7384 216.912C44.4904 217.616 44.8664 218.672 44.8664 220.08V228H43.6184L43.4264 225.96H43.3784C42.8984 226.68 42.2984 227.232 41.5784 227.616C40.8744 227.984 40.0904 228.168 39.2264 228.168ZM39.3464 226.68C39.9224 226.68 40.4504 226.592 40.9304 226.416C41.4104 226.224 41.8264 225.968 42.1784 225.648C42.5304 225.312 42.8024 224.92 42.9944 224.472C43.1864 224.008 43.2824 223.504 43.2824 222.96V222.312H40.3064C39.0744 222.312 38.1944 222.528 37.6664 222.96C37.1544 223.392 36.8984 223.968 36.8984 224.688C36.8984 225.296 37.0904 225.784 37.4744 226.152C37.8744 226.504 38.4984 226.68 39.3464 226.68ZM50.8122 217.44H46.8042V216H56.4042V217.44H52.3962V228H50.8122V217.44ZM58.9345 216H60.5185V220.32H63.2545C64.8065 220.32 65.9505 220.664 66.6865 221.352C67.4385 222.04 67.8145 222.976 67.8145 224.16C67.8145 225.328 67.4385 226.264 66.6865 226.968C65.9345 227.656 64.7905 228 63.2545 228H58.9345V216ZM60.5185 221.76V226.56H63.1345C64.2385 226.56 65.0225 226.352 65.4865 225.936C65.9505 225.52 66.1825 224.928 66.1825 224.16C66.1825 223.392 65.9425 222.8 65.4625 222.384C64.9985 221.968 64.2225 221.76 63.1345 221.76H60.5185ZM70.7002 216H72.2842V226.2H72.3322L78.3322 216H80.5402V228H78.9562V217.8H78.9082L72.9082 228H70.7002V216Z" fill="black"/>
<path d="M47.5 192.5H263.5" stroke="#8DC4FF" stroke-width="2" stroke-dasharray="8 8"/>
<path d="M266 194H269.958V192H266V194ZM277.875 194H285.792V192H277.875V194ZM293.708 194H301.625V192H293.708V194ZM309.542 194H317.458V192H309.542V194ZM325.375 194H333.292V192H325.375V194ZM341.208 194H349.125V192H341.208V194ZM357.042 194H361V192H357.042V194Z" fill="#8DC4FF"/>
<circle cx="414" cy="87" r="9" fill="#FF4B53"/>
<path d="M341.207 105.2H342.887V112.592H352.247V105.2H353.927V122H352.247V114.128H342.887V122H341.207V105.2ZM362.566 122.168C361.798 122.168 361.094 122.04 360.454 121.784C359.814 121.528 359.27 121.16 358.822 120.68C358.374 120.184 358.022 119.584 357.766 118.88C357.526 118.16 357.406 117.336 357.406 116.408V115.592C357.406 114.68 357.526 113.864 357.766 113.144C358.022 112.424 358.374 111.824 358.822 111.344C359.286 110.848 359.83 110.472 360.454 110.216C361.094 109.96 361.798 109.832 362.566 109.832C363.334 109.832 364.038 109.96 364.678 110.216C365.318 110.472 365.862 110.848 366.31 111.344C366.758 111.84 367.102 112.456 367.342 113.192C367.598 113.912 367.726 114.752 367.726 115.712V116.432H359.038C359.038 117.824 359.342 118.888 359.95 119.624C360.558 120.36 361.43 120.728 362.566 120.728C364.278 120.728 365.414 120.032 365.974 118.64H367.606C367.318 119.792 366.742 120.672 365.878 121.28C365.03 121.872 363.926 122.168 362.566 122.168ZM362.566 111.272C361.542 111.272 360.718 111.6 360.094 112.256C359.47 112.896 359.118 113.84 359.038 115.088H366.094C366.014 113.792 365.654 112.832 365.014 112.208C364.39 111.584 363.574 111.272 362.566 111.272ZM381.407 122.168C380.655 122.168 379.967 122.048 379.343 121.808C378.719 121.552 378.183 121.176 377.735 120.68C377.303 120.184 376.967 119.568 376.727 118.832C376.487 118.096 376.367 117.248 376.367 116.288V115.472C376.367 114.576 376.487 113.784 376.727 113.096C376.983 112.392 377.327 111.8 377.759 111.32C378.207 110.84 378.735 110.472 379.343 110.216C379.967 109.96 380.655 109.832 381.407 109.832C382.111 109.832 382.743 109.928 383.303 110.12C383.863 110.296 384.343 110.552 384.743 110.888C385.143 111.208 385.463 111.584 385.703 112.016C385.943 112.432 386.111 112.88 386.207 113.36H384.575C384.399 112.768 384.071 112.272 383.591 111.872C383.111 111.472 382.423 111.272 381.527 111.272C380.503 111.272 379.655 111.632 378.983 112.352C378.327 113.072 377.999 114.112 377.999 115.472V116.288C377.999 117.76 378.335 118.872 379.007 119.624C379.679 120.36 380.519 120.728 381.527 120.728C382.423 120.728 383.111 120.52 383.591 120.104C384.071 119.688 384.399 119.12 384.575 118.4H386.207C386.111 118.944 385.943 119.448 385.703 119.912C385.463 120.36 385.143 120.752 384.743 121.088C384.343 121.424 383.863 121.688 383.303 121.88C382.743 122.072 382.111 122.168 381.407 122.168ZM389.204 110H390.452L390.644 111.8H390.692C391.22 111.112 391.804 110.616 392.444 110.312C393.084 109.992 393.836 109.832 394.7 109.832C395.404 109.832 396.052 109.96 396.644 110.216C397.236 110.456 397.74 110.824 398.156 111.32C398.588 111.8 398.924 112.4 399.164 113.12C399.404 113.84 399.524 114.664 399.524 115.592V116.408C399.524 117.336 399.404 118.16 399.164 118.88C398.924 119.584 398.588 120.184 398.156 120.68C397.724 121.16 397.212 121.528 396.62 121.784C396.028 122.04 395.388 122.168 394.7 122.168C392.972 122.168 391.684 121.552 390.836 120.32H390.788V126.8H389.204V110ZM394.34 120.728C395.396 120.728 396.252 120.376 396.908 119.672C397.564 118.952 397.892 117.864 397.892 116.408V115.592C397.892 114.168 397.556 113.096 396.884 112.376C396.228 111.64 395.38 111.272 394.34 111.272C393.284 111.272 392.428 111.632 391.772 112.352C391.116 113.056 390.788 114.136 390.788 115.592V116.408C390.788 117.832 391.116 118.912 391.772 119.648C392.444 120.368 393.3 120.728 394.34 120.728ZM406.012 122.168C404.684 122.168 403.692 121.864 403.036 121.256C402.38 120.632 402.052 119.776 402.052 118.688C402.052 117.552 402.444 116.648 403.228 115.976C404.012 115.304 405.26 114.968 406.972 114.968H410.068V114.08C410.068 113.12 409.836 112.424 409.372 111.992C408.908 111.544 408.148 111.32 407.092 111.32C406.116 111.32 405.396 111.488 404.932 111.824C404.484 112.16 404.228 112.592 404.164 113.12H402.532C402.564 112.688 402.684 112.272 402.892 111.872C403.1 111.472 403.388 111.12 403.756 110.816C404.14 110.512 404.612 110.272 405.172 110.096C405.732 109.92 406.372 109.832 407.092 109.832C408.644 109.832 409.788 110.192 410.524 110.912C411.276 111.616 411.652 112.672 411.652 114.08V122H410.404L410.212 119.96H410.164C409.684 120.68 409.084 121.232 408.364 121.616C407.66 121.984 406.876 122.168 406.012 122.168ZM406.132 120.68C406.708 120.68 407.236 120.592 407.716 120.416C408.196 120.224 408.612 119.968 408.964 119.648C409.316 119.312 409.588 118.92 409.78 118.472C409.972 118.008 410.068 117.504 410.068 116.96V116.312H407.092C405.86 116.312 404.98 116.528 404.452 116.96C403.94 117.392 403.684 117.968 403.684 118.688C403.684 119.296 403.876 119.784 404.26 120.152C404.66 120.504 405.284 120.68 406.132 120.68ZM420.322 122.168C418.69 122.168 417.394 121.648 416.434 120.608C415.49 119.552 415.018 117.912 415.018 115.688V114.392C415.018 113.48 415.058 112.616 415.138 111.8C415.218 110.984 415.354 110.24 415.546 109.568C415.754 108.896 416.034 108.304 416.386 107.792C416.738 107.264 417.194 106.832 417.754 106.496C418.25 106.208 418.738 106.016 419.218 105.92C419.714 105.808 420.234 105.728 420.778 105.68C421.322 105.632 421.906 105.576 422.53 105.512C423.154 105.432 423.85 105.272 424.618 105.032V106.496C424.01 106.72 423.418 106.864 422.842 106.928C422.282 106.992 421.738 107.048 421.21 107.096C420.698 107.144 420.21 107.208 419.746 107.288C419.282 107.368 418.858 107.528 418.474 107.768C417.882 108.152 417.434 108.696 417.13 109.4C416.842 110.104 416.65 111.024 416.554 112.16H416.602C417.018 111.488 417.562 110.976 418.234 110.624C418.922 110.256 419.714 110.072 420.61 110.072C421.33 110.072 421.994 110.2 422.602 110.456C423.21 110.712 423.73 111.08 424.162 111.56C424.61 112.04 424.954 112.632 425.194 113.336C425.45 114.04 425.578 114.832 425.578 115.712V116.528C425.578 117.408 425.45 118.2 425.194 118.904C424.938 119.592 424.578 120.184 424.114 120.68C423.666 121.16 423.114 121.528 422.458 121.784C421.818 122.04 421.106 122.168 420.322 122.168ZM420.322 120.728C421.41 120.728 422.282 120.376 422.938 119.672C423.61 118.952 423.946 117.904 423.946 116.528V115.712C423.946 114.336 423.61 113.296 422.938 112.592C422.282 111.872 421.41 111.512 420.322 111.512C419.202 111.512 418.306 111.864 417.634 112.568C416.978 113.272 416.65 114.32 416.65 115.712V116.528C416.65 117.888 416.986 118.928 417.658 119.648C418.33 120.368 419.218 120.728 420.322 120.728ZM433.491 122.168C431.875 122.168 430.587 121.672 429.627 120.68C428.683 119.688 428.211 118.264 428.211 116.408V115.592C428.211 114.68 428.331 113.864 428.571 113.144C428.827 112.424 429.187 111.824 429.651 111.344C430.115 110.848 430.667 110.472 431.307 110.216C431.963 109.96 432.691 109.832 433.491 109.832C435.107 109.832 436.387 110.328 437.331 111.32C438.291 112.312 438.771 113.736 438.771 115.592V116.408C438.771 117.32 438.643 118.136 438.387 118.856C438.147 119.576 437.795 120.184 437.331 120.68C436.867 121.16 436.307 121.528 435.651 121.784C435.011 122.04 434.291 122.168 433.491 122.168ZM433.491 120.728C434.595 120.728 435.475 120.368 436.131 119.648C436.803 118.928 437.139 117.848 437.139 116.408V115.592C437.139 114.168 436.803 113.096 436.131 112.376C435.459 111.64 434.579 111.272 433.491 111.272C432.387 111.272 431.499 111.632 430.827 112.352C430.171 113.072 429.843 114.152 429.843 115.592V116.408C429.843 117.832 430.179 118.912 430.851 119.648C431.523 120.368 432.403 120.728 433.491 120.728ZM444.105 111.44H440.097V110H449.697V111.44H445.689V122H444.105V111.44ZM455.113 122.168C453.785 122.168 452.793 121.864 452.137 121.256C451.481 120.632 451.153 119.776 451.153 118.688C451.153 117.552 451.545 116.648 452.329 115.976C453.113 115.304 454.361 114.968 456.073 114.968H459.169V114.08C459.169 113.12 458.937 112.424 458.473 111.992C458.009 111.544 457.249 111.32 456.193 111.32C455.217 111.32 454.497 111.488 454.033 111.824C453.585 112.16 453.329 112.592 453.265 113.12H451.633C451.665 112.688 451.785 112.272 451.993 111.872C452.201 111.472 452.489 111.12 452.857 110.816C453.241 110.512 453.713 110.272 454.273 110.096C454.833 109.92 455.473 109.832 456.193 109.832C457.745 109.832 458.889 110.192 459.625 110.912C460.377 111.616 460.753 112.672 460.753 114.08V122H459.505L459.313 119.96H459.265C458.785 120.68 458.185 121.232 457.465 121.616C456.761 121.984 455.977 122.168 455.113 122.168ZM455.233 120.68C455.809 120.68 456.337 120.592 456.817 120.416C457.297 120.224 457.713 119.968 458.065 119.648C458.417 119.312 458.689 118.92 458.881 118.472C459.073 118.008 459.169 117.504 459.169 116.96V116.312H456.193C454.961 116.312 454.081 116.528 453.553 116.96C453.041 117.392 452.785 117.968 452.785 118.688C452.785 119.296 452.977 119.784 453.361 120.152C453.761 120.504 454.385 120.68 455.233 120.68ZM463.16 120.728H463.52C464.016 120.728 464.4 120.56 464.672 120.224C464.944 119.888 465.144 119.4 465.272 118.76C465.416 118.12 465.496 117.344 465.512 116.432C465.544 115.52 465.56 114.496 465.56 113.36V110H473.72V122H472.136V111.44H467.144V113.36C467.144 114.656 467.12 115.84 467.072 116.912C467.04 117.984 466.904 118.912 466.664 119.696C466.44 120.48 466.08 121.088 465.584 121.52C465.104 121.952 464.416 122.168 463.52 122.168H463.16V120.728ZM482.358 122.168C480.742 122.168 479.454 121.672 478.494 120.68C477.55 119.688 477.078 118.264 477.078 116.408V115.592C477.078 114.68 477.198 113.864 477.438 113.144C477.694 112.424 478.054 111.824 478.518 111.344C478.982 110.848 479.534 110.472 480.174 110.216C480.83 109.96 481.558 109.832 482.358 109.832C483.974 109.832 485.254 110.328 486.198 111.32C487.158 112.312 487.638 113.736 487.638 115.592V116.408C487.638 117.32 487.51 118.136 487.254 118.856C487.014 119.576 486.662 120.184 486.198 120.68C485.734 121.16 485.174 121.528 484.518 121.784C483.878 122.04 483.158 122.168 482.358 122.168ZM482.358 120.728C483.462 120.728 484.342 120.368 484.998 119.648C485.67 118.928 486.006 117.848 486.006 116.408V115.592C486.006 114.168 485.67 113.096 484.998 112.376C484.326 111.64 483.446 111.272 482.358 111.272C481.254 111.272 480.366 111.632 479.694 112.352C479.038 113.072 478.71 114.152 478.71 115.592V116.408C478.71 117.832 479.046 118.912 479.718 119.648C480.39 120.368 481.27 120.728 482.358 120.728Z" fill="black"/>
<path d="M239 8.0002L238.98 8.99999L239 8.0002ZM61.0503 77.8133C61.2232 78.3378 61.7886 78.6228 62.3131 78.4499L70.8606 75.6321C71.3851 75.4591 71.6701 74.8938 71.4972 74.3692C71.3243 73.8447 70.7589 73.5597 70.2344 73.7326L62.6366 76.2374L60.1319 68.6396C59.9589 68.1151 59.3936 67.8301 58.869 68.003C58.3445 68.1759 58.0595 68.7413 58.2324 69.2658L61.0503 77.8133ZM62.8929 77.9504C63.4334 76.8782 64.0917 75.7083 64.8733 74.4545L63.1761 73.3965C62.3662 74.6957 61.6776 75.9182 61.1071 77.05L62.8929 77.9504ZM69.6083 67.8341C71.1801 65.8732 72.9792 63.8093 75.0164 61.675L73.5696 60.2941C71.494 62.4686 69.6569 64.5758 68.0477 66.5832L69.6083 67.8341ZM80.8898 55.9581C82.8165 54.21 84.8948 52.4363 87.1297 50.6527L85.8822 49.0895C83.6145 50.8992 81.504 52.7003 79.5459 54.477L80.8898 55.9581ZM93.6907 45.7237C95.8535 44.1931 98.1345 42.6657 100.537 41.1513L99.4704 39.4594C97.0379 40.9927 94.7272 42.5399 92.5353 44.0912L93.6907 45.7237ZM107.579 36.9557C109.902 35.6482 112.322 34.358 114.84 33.0918L113.942 31.3049C111.395 32.5851 108.948 33.89 106.598 35.2129L107.579 36.9557ZM122.285 29.5557C124.721 28.4635 127.239 27.3958 129.84 26.3575L129.099 24.5C126.472 25.5485 123.928 26.6271 121.466 27.7307L122.285 29.5557ZM137.535 23.4638C140.066 22.5683 142.668 21.7014 145.344 20.8669L144.748 18.9576C142.049 19.7996 139.422 20.6744 136.867 21.5783L137.535 23.4638ZM153.247 18.5574C155.843 17.8483 158.503 17.1698 161.227 16.525L160.766 14.5788C158.02 15.2289 155.339 15.9129 152.72 16.628L153.247 18.5574ZM169.269 14.7588C171.911 14.2229 174.609 13.7184 177.363 13.2476L177.026 11.2762C174.252 11.7504 171.534 12.2587 168.872 12.7987L169.269 14.7588ZM185.499 11.9804C188.173 11.6038 190.896 11.2585 193.67 10.9465L193.447 8.95905C190.654 9.27311 187.912 9.62073 185.22 10L185.499 11.9804ZM201.872 10.1355C204.571 9.90474 207.314 9.70496 210.103 9.53779L209.983 7.54137C207.177 7.70955 204.417 7.91056 201.702 8.1428L201.872 10.1355ZM218.36 9.14435C221.061 9.0483 223.803 8.98233 226.586 8.94776L226.561 6.94792C223.763 6.98267 221.006 7.04901 218.289 7.14561L218.36 9.14435ZM234.81 8.93708C236.19 8.95041 237.58 8.97133 238.98 8.99999L239.02 7.00041C237.614 6.9716 236.217 6.95057 234.829 6.93717L234.81 8.93708ZM238.98 8.99999C240.388 9.02882 241.786 9.06497 243.174 9.10828L243.237 7.10926C241.841 7.06572 240.436 7.02939 239.02 7.00041L238.98 8.99999ZM251.447 9.45616C254.244 9.60456 256.998 9.78248 259.711 9.98863L259.863 7.99438C257.134 7.78707 254.365 7.60817 251.553 7.45897L251.447 9.45616ZM268.001 10.7177C270.799 10.9978 273.55 11.3084 276.256 11.6479L276.505 9.66341C273.783 9.32185 271.015 9.0094 268.2 8.72762L268.001 10.7177ZM284.476 12.7875C287.254 13.2101 289.98 13.6634 292.657 14.1457L293.011 12.1774C290.317 11.6919 287.572 11.2355 284.777 10.8103L284.476 12.7875ZM300.794 15.7318C303.546 16.3096 306.241 16.9183 308.88 17.5556L309.35 15.6115C306.691 14.9694 303.976 14.3563 301.204 13.7745L300.794 15.7318ZM316.907 19.627C319.623 20.3739 322.275 21.1512 324.863 21.956L325.457 20.0461C322.847 19.2348 320.174 18.4513 317.437 17.6986L316.907 19.627ZM332.735 24.5521C335.398 25.4821 337.988 26.4407 340.506 27.4245L341.234 25.5615C338.693 24.5689 336.08 23.6019 333.395 22.664L332.735 24.5521ZM348.156 30.5809C350.741 31.7061 353.243 32.8567 355.663 34.0279L356.534 32.2276C354.09 31.0447 351.564 29.883 348.954 28.7471L348.156 30.5809ZM363.057 37.801C365.556 39.1446 367.957 40.5076 370.261 41.8834L371.287 40.1662C368.957 38.775 366.53 37.3973 364.004 36.0394L363.057 37.801ZM377.248 46.2812C379.63 47.8623 381.892 49.4511 384.036 51.0381L385.226 49.4305C383.054 47.8231 380.764 46.2147 378.353 44.6148L377.248 46.2812ZM390.542 56.1328C392.758 57.9712 394.819 59.7934 396.73 61.5844L398.097 60.1254C396.157 58.3064 394.066 56.4574 391.819 54.5934L390.542 56.1328ZM402.557 67.4291C404.581 69.6085 406.368 71.7089 407.928 73.6987L409.502 72.4647C407.906 70.4294 406.083 68.2867 404.022 66.068L402.557 67.4291ZM412.635 80.4094C413.414 81.6814 414.068 82.8643 414.604 83.9444L416.396 83.0559C415.831 81.9165 415.147 80.6813 414.34 79.3645L412.635 80.4094Z" fill="#FF4B53"/>
<circle cx="45" cy="283" r="9" fill="#8DC4FF"/>
<path d="M4.02188 316.632H4.26188C4.96588 316.632 5.50988 316.416 5.89388 315.984C6.29388 315.552 6.58188 314.96 6.75788 314.208C6.94988 313.44 7.06188 312.544 7.09388 311.52C7.12588 310.48 7.14188 309.36 7.14188 308.16V301.2H17.7019V318H16.0219V302.736H8.82188V308.16C8.82188 309.488 8.78988 310.752 8.72588 311.952C8.67788 313.152 8.50988 314.216 8.22188 315.144C7.93388 316.072 7.47788 316.808 6.85388 317.352C6.24588 317.896 5.38188 318.168 4.26188 318.168H4.02188V316.632ZM26.3316 318.168C25.5636 318.168 24.8596 318.04 24.2196 317.784C23.5796 317.528 23.0356 317.16 22.5876 316.68C22.1396 316.184 21.7876 315.584 21.5316 314.88C21.2916 314.16 21.1716 313.336 21.1716 312.408V311.592C21.1716 310.68 21.2916 309.864 21.5316 309.144C21.7876 308.424 22.1396 307.824 22.5876 307.344C23.0516 306.848 23.5956 306.472 24.2196 306.216C24.8596 305.96 25.5636 305.832 26.3316 305.832C27.0996 305.832 27.8036 305.96 28.4436 306.216C29.0836 306.472 29.6276 306.848 30.0756 307.344C30.5236 307.84 30.8676 308.456 31.1076 309.192C31.3636 309.912 31.4916 310.752 31.4916 311.712V312.432H22.8036C22.8036 313.824 23.1076 314.888 23.7156 315.624C24.3236 316.36 25.1956 316.728 26.3316 316.728C28.0436 316.728 29.1796 316.032 29.7396 314.64H31.3716C31.0836 315.792 30.5076 316.672 29.6436 317.28C28.7956 317.872 27.6916 318.168 26.3316 318.168ZM26.3316 307.272C25.3076 307.272 24.4836 307.6 23.8596 308.256C23.2356 308.896 22.8836 309.84 22.8036 311.088H29.8596C29.7796 309.792 29.4196 308.832 28.7796 308.208C28.1556 307.584 27.3396 307.272 26.3316 307.272ZM34.8525 306H36.4365V311.04H38.5965L42.1005 306H43.9725L39.8685 311.712L44.4525 318H42.5325L38.5965 312.48H36.4365V318H34.8525V306ZM56.5429 318H47.0869V306H48.6709V316.56H54.7429V306H56.3269V316.56H58.1269V321.12H56.5429V318ZM60.7744 306H62.3584V316.2H62.4064L68.4064 306H70.6144V318H69.0304V307.8H68.9824L62.9824 318H60.7744V306ZM74.6963 306H76.2803V316.2H76.3283L82.3283 306H84.5363V318H82.9523V307.8H82.9043L76.9043 318H74.6963V306Z" fill="black"/>
<path d="M45.5 283.5H245.5C254.06 283.5 261 276.56 261 268V268" stroke="#8DC4FF" stroke-width="2" stroke-dasharray="8 8"/>
<circle cx="262" cy="193" r="9" fill="#8DC4FF"/>
<path d="M210.894 211.2H223.374V228H221.694V212.736H212.574V228H210.894V211.2ZM227.579 216H228.827L229.019 217.8H229.067C229.595 217.112 230.179 216.616 230.819 216.312C231.459 215.992 232.211 215.832 233.075 215.832C233.779 215.832 234.427 215.96 235.019 216.216C235.611 216.456 236.115 216.824 236.531 217.32C236.963 217.8 237.299 218.4 237.539 219.12C237.779 219.84 237.899 220.664 237.899 221.592V222.408C237.899 223.336 237.779 224.16 237.539 224.88C237.299 225.584 236.963 226.184 236.531 226.68C236.099 227.16 235.587 227.528 234.995 227.784C234.403 228.04 233.763 228.168 233.075 228.168C231.347 228.168 230.059 227.552 229.211 226.32H229.163V232.8H227.579V216ZM232.715 226.728C233.771 226.728 234.627 226.376 235.283 225.672C235.939 224.952 236.267 223.864 236.267 222.408V221.592C236.267 220.168 235.931 219.096 235.259 218.376C234.603 217.64 233.755 217.272 232.715 217.272C231.659 217.272 230.803 217.632 230.147 218.352C229.491 219.056 229.163 220.136 229.163 221.592V222.408C229.163 223.832 229.491 224.912 230.147 225.648C230.819 226.368 231.675 226.728 232.715 226.728ZM245.827 228.168C244.211 228.168 242.923 227.672 241.963 226.68C241.019 225.688 240.547 224.264 240.547 222.408V221.592C240.547 220.68 240.667 219.864 240.907 219.144C241.163 218.424 241.523 217.824 241.987 217.344C242.451 216.848 243.003 216.472 243.643 216.216C244.299 215.96 245.027 215.832 245.827 215.832C247.443 215.832 248.723 216.328 249.667 217.32C250.627 218.312 251.107 219.736 251.107 221.592V222.408C251.107 223.32 250.979 224.136 250.723 224.856C250.483 225.576 250.131 226.184 249.667 226.68C249.203 227.16 248.643 227.528 247.987 227.784C247.347 228.04 246.627 228.168 245.827 228.168ZM245.827 226.728C246.931 226.728 247.811 226.368 248.467 225.648C249.139 224.928 249.475 223.848 249.475 222.408V221.592C249.475 220.168 249.139 219.096 248.467 218.376C247.795 217.64 246.915 217.272 245.827 217.272C244.723 217.272 243.835 217.632 243.163 218.352C242.507 219.072 242.179 220.152 242.179 221.592V222.408C242.179 223.832 242.515 224.912 243.187 225.648C243.859 226.368 244.739 226.728 245.827 226.728ZM254.462 216H259.022C260.43 216 261.462 216.296 262.118 216.888C262.774 217.48 263.102 218.28 263.102 219.288C263.102 219.816 262.966 220.296 262.694 220.728C262.438 221.16 262.07 221.496 261.59 221.736V221.784C262.246 222.04 262.742 222.408 263.078 222.888C263.414 223.368 263.582 223.928 263.582 224.568C263.582 225.64 263.254 226.48 262.598 227.088C261.942 227.696 260.91 228 259.502 228H254.462V216ZM261.47 219.312C261.47 218.72 261.278 218.264 260.894 217.944C260.51 217.608 259.846 217.44 258.902 217.44H256.046V221.208H258.902C259.846 221.208 260.51 221.048 260.894 220.728C261.278 220.392 261.47 219.92 261.47 219.312ZM261.95 224.544C261.95 223.888 261.758 223.392 261.374 223.056C260.99 222.72 260.326 222.552 259.382 222.552H256.046V226.56H259.382C260.326 226.56 260.99 226.392 261.374 226.056C261.758 225.72 261.95 225.216 261.95 224.544ZM271.371 228.168C270.603 228.168 269.899 228.04 269.259 227.784C268.619 227.528 268.075 227.16 267.627 226.68C267.179 226.184 266.827 225.584 266.571 224.88C266.331 224.16 266.211 223.336 266.211 222.408V221.592C266.211 220.68 266.331 219.864 266.571 219.144C266.827 218.424 267.179 217.824 267.627 217.344C268.091 216.848 268.635 216.472 269.259 216.216C269.899 215.96 270.603 215.832 271.371 215.832C272.139 215.832 272.843 215.96 273.483 216.216C274.123 216.472 274.667 216.848 275.115 217.344C275.563 217.84 275.907 218.456 276.147 219.192C276.403 219.912 276.531 220.752 276.531 221.712V222.432H267.843C267.843 223.824 268.147 224.888 268.755 225.624C269.363 226.36 270.235 226.728 271.371 226.728C273.083 226.728 274.219 226.032 274.779 224.64H276.411C276.123 225.792 275.547 226.672 274.683 227.28C273.835 227.872 272.731 228.168 271.371 228.168ZM271.371 217.272C270.347 217.272 269.523 217.6 268.899 218.256C268.275 218.896 267.923 219.84 267.843 221.088H274.899C274.819 219.792 274.459 218.832 273.819 218.208C273.195 217.584 272.379 217.272 271.371 217.272ZM279.892 216H281.14L281.332 217.8H281.38C281.908 217.112 282.492 216.616 283.132 216.312C283.772 215.992 284.524 215.832 285.388 215.832C286.092 215.832 286.74 215.96 287.332 216.216C287.924 216.456 288.428 216.824 288.844 217.32C289.276 217.8 289.612 218.4 289.852 219.12C290.092 219.84 290.212 220.664 290.212 221.592V222.408C290.212 223.336 290.092 224.16 289.852 224.88C289.612 225.584 289.276 226.184 288.844 226.68C288.412 227.16 287.9 227.528 287.308 227.784C286.716 228.04 286.076 228.168 285.388 228.168C283.66 228.168 282.372 227.552 281.524 226.32H281.476V232.8H279.892V216ZM285.028 226.728C286.084 226.728 286.94 226.376 287.596 225.672C288.252 224.952 288.58 223.864 288.58 222.408V221.592C288.58 220.168 288.244 219.096 287.572 218.376C286.916 217.64 286.068 217.272 285.028 217.272C283.972 217.272 283.116 217.632 282.46 218.352C281.804 219.056 281.476 220.136 281.476 221.592V222.408C281.476 223.832 281.804 224.912 282.46 225.648C283.132 226.368 283.988 226.728 285.028 226.728ZM293.579 216H295.163V221.04H297.323L300.827 216H302.699L298.595 221.712L303.179 228H301.259L297.323 222.48H295.163V228H293.579V216ZM308.699 228.168C307.371 228.168 306.379 227.864 305.723 227.256C305.067 226.632 304.739 225.776 304.739 224.688C304.739 223.552 305.131 222.648 305.915 221.976C306.699 221.304 307.947 220.968 309.659 220.968H312.755V220.08C312.755 219.12 312.523 218.424 312.059 217.992C311.595 217.544 310.835 217.32 309.779 217.32C308.803 217.32 308.083 217.488 307.619 217.824C307.171 218.16 306.915 218.592 306.851 219.12H305.219C305.251 218.688 305.371 218.272 305.579 217.872C305.787 217.472 306.075 217.12 306.443 216.816C306.827 216.512 307.299 216.272 307.859 216.096C308.419 215.92 309.059 215.832 309.779 215.832C311.331 215.832 312.475 216.192 313.211 216.912C313.963 217.616 314.339 218.672 314.339 220.08V228H313.091L312.899 225.96H312.851C312.371 226.68 311.771 227.232 311.051 227.616C310.347 227.984 309.563 228.168 308.699 228.168ZM308.819 226.68C309.395 226.68 309.923 226.592 310.403 226.416C310.883 226.224 311.299 225.968 311.651 225.648C312.003 225.312 312.275 224.92 312.467 224.472C312.659 224.008 312.755 223.504 312.755 222.96V222.312H309.779C308.547 222.312 307.667 222.528 307.139 222.96C306.627 223.392 306.371 223.968 306.371 224.688C306.371 225.296 306.563 225.784 306.947 226.152C307.347 226.504 307.971 226.68 308.819 226.68ZM197.392 247H198.976V252.16H205.648V247H207.232V259H205.648V253.6H198.976V259H197.392V247ZM214.433 259.168C213.105 259.168 212.113 258.864 211.457 258.256C210.801 257.632 210.473 256.776 210.473 255.688C210.473 254.552 210.865 253.648 211.649 252.976C212.433 252.304 213.681 251.968 215.393 251.968H218.489V251.08C218.489 250.12 218.257 249.424 217.793 248.992C217.329 248.544 216.569 248.32 215.513 248.32C214.537 248.32 213.817 248.488 213.353 248.824C212.905 249.16 212.649 249.592 212.585 250.12H210.953C210.985 249.688 211.105 249.272 211.313 248.872C211.521 248.472 211.809 248.12 212.177 247.816C212.561 247.512 213.033 247.272 213.593 247.096C214.153 246.92 214.793 246.832 215.513 246.832C217.065 246.832 218.209 247.192 218.945 247.912C219.697 248.616 220.073 249.672 220.073 251.08V259H218.825L218.633 256.96H218.585C218.105 257.68 217.505 258.232 216.785 258.616C216.081 258.984 215.297 259.168 214.433 259.168ZM214.553 257.68C215.129 257.68 215.657 257.592 216.137 257.416C216.617 257.224 217.033 256.968 217.385 256.648C217.737 256.312 218.009 255.92 218.201 255.472C218.393 255.008 218.489 254.504 218.489 253.96V253.312H215.513C214.281 253.312 213.401 253.528 212.873 253.96C212.361 254.392 212.105 254.968 212.105 255.688C212.105 256.296 212.297 256.784 212.681 257.152C213.081 257.504 213.705 257.68 214.553 257.68ZM230.04 247H239.4V259H237.816V248.44H231.624V259H230.04V247ZM243.47 247H244.718L244.91 248.8H244.958C245.486 248.112 246.07 247.616 246.71 247.312C247.35 246.992 248.102 246.832 248.966 246.832C249.67 246.832 250.318 246.96 250.91 247.216C251.502 247.456 252.006 247.824 252.422 248.32C252.854 248.8 253.19 249.4 253.43 250.12C253.67 250.84 253.79 251.664 253.79 252.592V253.408C253.79 254.336 253.67 255.16 253.43 255.88C253.19 256.584 252.854 257.184 252.422 257.68C251.99 258.16 251.478 258.528 250.886 258.784C250.294 259.04 249.654 259.168 248.966 259.168C247.238 259.168 245.95 258.552 245.102 257.32H245.054V263.8H243.47V247ZM248.606 257.728C249.662 257.728 250.518 257.376 251.174 256.672C251.83 255.952 252.158 254.864 252.158 253.408V252.592C252.158 251.168 251.822 250.096 251.15 249.376C250.494 248.64 249.646 248.272 248.606 248.272C247.55 248.272 246.694 248.632 246.038 249.352C245.382 250.056 245.054 251.136 245.054 252.592V253.408C245.054 254.832 245.382 255.912 246.038 256.648C246.71 257.368 247.566 257.728 248.606 257.728ZM260.277 259.168C258.949 259.168 257.957 258.864 257.301 258.256C256.645 257.632 256.317 256.776 256.317 255.688C256.317 254.552 256.709 253.648 257.493 252.976C258.277 252.304 259.525 251.968 261.237 251.968H264.333V251.08C264.333 250.12 264.101 249.424 263.637 248.992C263.173 248.544 262.413 248.32 261.357 248.32C260.381 248.32 259.661 248.488 259.197 248.824C258.749 249.16 258.493 249.592 258.429 250.12H256.797C256.829 249.688 256.949 249.272 257.157 248.872C257.365 248.472 257.653 248.12 258.021 247.816C258.405 247.512 258.877 247.272 259.437 247.096C259.997 246.92 260.637 246.832 261.357 246.832C262.909 246.832 264.053 247.192 264.789 247.912C265.541 248.616 265.917 249.672 265.917 251.08V259H264.669L264.477 256.96H264.429C263.949 257.68 263.349 258.232 262.629 258.616C261.925 258.984 261.141 259.168 260.277 259.168ZM260.397 257.68C260.973 257.68 261.501 257.592 261.981 257.416C262.461 257.224 262.877 256.968 263.229 256.648C263.581 256.312 263.853 255.92 264.045 255.472C264.237 255.008 264.333 254.504 264.333 253.96V253.312H261.357C260.125 253.312 259.245 253.528 258.717 253.96C258.205 254.392 257.949 254.968 257.949 255.688C257.949 256.296 258.141 256.784 258.525 257.152C258.925 257.504 259.549 257.68 260.397 257.68ZM269.884 247H271.468V252.04H273.628L277.132 247H279.004L274.9 252.712L279.484 259H277.564L273.628 253.48H271.468V259H269.884V247ZM284.801 248.44H280.793V247H290.393V248.44H286.385V259H284.801V248.44ZM292.923 247H294.507V257.2H294.555L300.555 247H302.763V259H301.179V248.8H301.131L295.131 259H292.923V247ZM306.845 247H308.429V252.04H310.589L314.093 247H315.965L311.861 252.712L316.445 259H314.525L310.589 253.48H308.429V259H306.845V247ZM323.168 259.168C322.4 259.168 321.696 259.04 321.056 258.784C320.416 258.528 319.872 258.16 319.424 257.68C318.976 257.184 318.624 256.584 318.368 255.88C318.128 255.16 318.008 254.336 318.008 253.408V252.592C318.008 251.68 318.128 250.864 318.368 250.144C318.624 249.424 318.976 248.824 319.424 248.344C319.888 247.848 320.432 247.472 321.056 247.216C321.696 246.96 322.4 246.832 323.168 246.832C323.936 246.832 324.64 246.96 325.28 247.216C325.92 247.472 326.464 247.848 326.912 248.344C327.36 248.84 327.704 249.456 327.944 250.192C328.2 250.912 328.328 251.752 328.328 252.712V253.432H319.64C319.64 254.824 319.944 255.888 320.552 256.624C321.16 257.36 322.032 257.728 323.168 257.728C324.88 257.728 326.016 257.032 326.576 255.64H328.208C327.92 256.792 327.344 257.672 326.48 258.28C325.632 258.872 324.528 259.168 323.168 259.168ZM323.168 248.272C322.144 248.272 321.32 248.6 320.696 249.256C320.072 249.896 319.72 250.84 319.64 252.088H326.696C326.616 250.792 326.256 249.832 325.616 249.208C324.992 248.584 324.176 248.272 323.168 248.272Z" fill="black"/>
</svg>
