<svg width="282" height="293" viewBox="0 0 282 293" fill="none" xmlns="http://www.w3.org/2000/svg">
<rect width="118" height="51" transform="translate(82)" fill="white"/>
<circle cx="141" cy="9" r="9" fill="#8DC4FF"/>
<path d="M29.4881 27.2H41.9681V44H40.2881V28.736H31.1681V44H29.4881V27.2ZM50.7328 44.168C49.1168 44.168 47.8288 43.672 46.8688 42.68C45.9248 41.688 45.4528 40.264 45.4528 38.408V37.592C45.4528 36.68 45.5728 35.864 45.8128 35.144C46.0688 34.424 46.4288 33.824 46.8928 33.344C47.3568 32.848 47.9088 32.472 48.5488 32.216C49.2048 31.96 49.9328 31.832 50.7328 31.832C52.3488 31.832 53.6288 32.328 54.5728 33.32C55.5328 34.312 56.0128 35.736 56.0128 37.592V38.408C56.0128 39.32 55.8848 40.136 55.6288 40.856C55.3888 41.576 55.0368 42.184 54.5728 42.68C54.1088 43.16 53.5488 43.528 52.8928 43.784C52.2528 44.04 51.5328 44.168 50.7328 44.168ZM50.7328 42.728C51.8368 42.728 52.7168 42.368 53.3728 41.648C54.0448 40.928 54.3808 39.848 54.3808 38.408V37.592C54.3808 36.168 54.0448 35.096 53.3728 34.376C52.7008 33.64 51.8208 33.272 50.7328 33.272C49.6288 33.272 48.7408 33.632 48.0688 34.352C47.4128 35.072 47.0848 36.152 47.0848 37.592V38.408C47.0848 39.832 47.4208 40.912 48.0928 41.648C48.7648 42.368 49.6448 42.728 50.7328 42.728ZM57.5738 42.728H57.9338C58.4297 42.728 58.8138 42.56 59.0858 42.224C59.3578 41.888 59.5578 41.4 59.6858 40.76C59.8298 40.12 59.9098 39.344 59.9258 38.432C59.9578 37.52 59.9738 36.496 59.9738 35.36V32H68.1338V44H66.5498V33.44H61.5578V35.36C61.5578 36.656 61.5338 37.84 61.4858 38.912C61.4538 39.984 61.3178 40.912 61.0778 41.696C60.8538 42.48 60.4938 43.088 59.9978 43.52C59.5178 43.952 58.8298 44.168 57.9338 44.168H57.5738V42.728ZM75.7879 44L70.7719 32H72.4999L76.6039 42.032H76.6519L80.4199 32H82.0519L75.5719 48.8H73.9399L75.7879 44ZM88.755 39.92C87.155 39.92 85.995 39.576 85.275 38.888C84.555 38.2 84.195 37.136 84.195 35.696V32H85.779V35.6C85.779 36.656 85.995 37.4 86.427 37.832C86.875 38.264 87.651 38.48 88.755 38.48C89.363 38.48 89.923 38.44 90.435 38.36C90.947 38.264 91.379 38.176 91.731 38.096V32H93.315V44H91.731V39.536C91.379 39.616 90.947 39.704 90.435 39.8C89.923 39.88 89.363 39.92 88.755 39.92ZM100.504 44.168C99.1758 44.168 98.1838 43.864 97.5278 43.256C96.8718 42.632 96.5438 41.776 96.5438 40.688C96.5438 39.552 96.9358 38.648 97.7198 37.976C98.5038 37.304 99.7518 36.968 101.464 36.968H104.56V36.08C104.56 35.12 104.328 34.424 103.864 33.992C103.4 33.544 102.64 33.32 101.584 33.32C100.608 33.32 99.8878 33.488 99.4238 33.824C98.9758 34.16 98.7198 34.592 98.6558 35.12H97.0238C97.0558 34.688 97.1758 34.272 97.3838 33.872C97.5918 33.472 97.8798 33.12 98.2478 32.816C98.6318 32.512 99.1038 32.272 99.6638 32.096C100.224 31.92 100.864 31.832 101.584 31.832C103.136 31.832 104.28 32.192 105.016 32.912C105.768 33.616 106.144 34.672 106.144 36.08V44H104.896L104.704 41.96H104.656C104.176 42.68 103.576 43.232 102.856 43.616C102.152 43.984 101.368 44.168 100.504 44.168ZM100.624 42.68C101.2 42.68 101.728 42.592 102.208 42.416C102.688 42.224 103.104 41.968 103.456 41.648C103.808 41.312 104.08 40.92 104.272 40.472C104.464 40.008 104.56 39.504 104.56 38.96V38.312H101.584C100.352 38.312 99.4718 38.528 98.9438 38.96C98.4318 39.392 98.1758 39.968 98.1758 40.688C98.1758 41.296 98.3678 41.784 98.7518 42.152C99.1518 42.504 99.7758 42.68 100.624 42.68ZM114.55 44.168C113.782 44.168 113.078 44.04 112.438 43.784C111.798 43.528 111.254 43.16 110.806 42.68C110.358 42.184 110.006 41.584 109.75 40.88C109.51 40.16 109.39 39.336 109.39 38.408V37.592C109.39 36.68 109.51 35.864 109.75 35.144C110.006 34.424 110.358 33.824 110.806 33.344C111.27 32.848 111.814 32.472 112.438 32.216C113.078 31.96 113.782 31.832 114.55 31.832C115.318 31.832 116.022 31.96 116.662 32.216C117.302 32.472 117.846 32.848 118.294 33.344C118.742 33.84 119.086 34.456 119.326 35.192C119.582 35.912 119.71 36.752 119.71 37.712V38.432H111.022C111.022 39.824 111.326 40.888 111.934 41.624C112.542 42.36 113.414 42.728 114.55 42.728C116.262 42.728 117.398 42.032 117.958 40.64H119.59C119.302 41.792 118.726 42.672 117.862 43.28C117.014 43.872 115.91 44.168 114.55 44.168ZM114.55 33.272C113.526 33.272 112.702 33.6 112.078 34.256C111.454 34.896 111.102 35.84 111.022 37.088H118.078C117.998 35.792 117.638 34.832 116.998 34.208C116.374 33.584 115.558 33.272 114.55 33.272ZM125.051 33.44H121.043V32H130.643V33.44H126.635V44H125.051V33.44ZM137.144 44.168C136.376 44.168 135.672 44.04 135.032 43.784C134.392 43.528 133.848 43.16 133.4 42.68C132.952 42.184 132.6 41.584 132.344 40.88C132.104 40.16 131.984 39.336 131.984 38.408V37.592C131.984 36.68 132.104 35.864 132.344 35.144C132.6 34.424 132.952 33.824 133.4 33.344C133.864 32.848 134.408 32.472 135.032 32.216C135.672 31.96 136.376 31.832 137.144 31.832C137.912 31.832 138.616 31.96 139.256 32.216C139.896 32.472 140.44 32.848 140.888 33.344C141.336 33.84 141.68 34.456 141.92 35.192C142.176 35.912 142.304 36.752 142.304 37.712V38.432H133.616C133.616 39.824 133.92 40.888 134.528 41.624C135.136 42.36 136.008 42.728 137.144 42.728C138.856 42.728 139.992 42.032 140.552 40.64H142.184C141.896 41.792 141.32 42.672 140.456 43.28C139.608 43.872 138.504 44.168 137.144 44.168ZM137.144 33.272C136.12 33.272 135.296 33.6 134.672 34.256C134.048 34.896 133.696 35.84 133.616 37.088H140.672C140.592 35.792 140.232 34.832 139.592 34.208C138.968 33.584 138.152 33.272 137.144 33.272ZM151.665 32H153.969L157.809 39.392H157.857L161.697 32H163.905V44H162.321V34.04H162.273L158.577 41.12H156.993L153.297 34.04H153.249V44H151.665V32ZM171.098 44.168C169.77 44.168 168.778 43.864 168.122 43.256C167.466 42.632 167.138 41.776 167.138 40.688C167.138 39.552 167.53 38.648 168.314 37.976C169.098 37.304 170.346 36.968 172.058 36.968H175.154V36.08C175.154 35.12 174.922 34.424 174.458 33.992C173.994 33.544 173.234 33.32 172.178 33.32C171.202 33.32 170.482 33.488 170.018 33.824C169.57 34.16 169.314 34.592 169.25 35.12H167.618C167.65 34.688 167.77 34.272 167.978 33.872C168.186 33.472 168.474 33.12 168.842 32.816C169.226 32.512 169.698 32.272 170.258 32.096C170.818 31.92 171.458 31.832 172.178 31.832C173.73 31.832 174.874 32.192 175.61 32.912C176.362 33.616 176.738 34.672 176.738 36.08V44H175.49L175.298 41.96H175.25C174.77 42.68 174.17 43.232 173.45 43.616C172.746 43.984 171.962 44.168 171.098 44.168ZM171.218 42.68C171.794 42.68 172.322 42.592 172.802 42.416C173.282 42.224 173.698 41.968 174.05 41.648C174.402 41.312 174.674 40.92 174.866 40.472C175.058 40.008 175.154 39.504 175.154 38.96V38.312H172.178C170.946 38.312 170.066 38.528 169.538 38.96C169.026 39.392 168.77 39.968 168.77 40.688C168.77 41.296 168.962 41.784 169.346 42.152C169.746 42.504 170.37 42.68 171.218 42.68ZM182.683 33.44H178.675V32H188.275V33.44H184.267V44H182.683V33.44ZM194.777 44.168C194.009 44.168 193.305 44.04 192.665 43.784C192.025 43.528 191.481 43.16 191.033 42.68C190.585 42.184 190.233 41.584 189.977 40.88C189.737 40.16 189.617 39.336 189.617 38.408V37.592C189.617 36.68 189.737 35.864 189.977 35.144C190.233 34.424 190.585 33.824 191.033 33.344C191.497 32.848 192.041 32.472 192.665 32.216C193.305 31.96 194.009 31.832 194.777 31.832C195.545 31.832 196.249 31.96 196.889 32.216C197.529 32.472 198.073 32.848 198.521 33.344C198.969 33.84 199.313 34.456 199.553 35.192C199.809 35.912 199.937 36.752 199.937 37.712V38.432H191.249C191.249 39.824 191.553 40.888 192.161 41.624C192.769 42.36 193.641 42.728 194.777 42.728C196.489 42.728 197.625 42.032 198.185 40.64H199.817C199.529 41.792 198.953 42.672 198.089 43.28C197.241 43.872 196.137 44.168 194.777 44.168ZM194.777 33.272C193.753 33.272 192.929 33.6 192.305 34.256C191.681 34.896 191.329 35.84 191.249 37.088H198.305C198.225 35.792 197.865 34.832 197.225 34.208C196.601 33.584 195.785 33.272 194.777 33.272ZM203.298 32H204.546L204.738 33.8H204.786C205.314 33.112 205.898 32.616 206.538 32.312C207.178 31.992 207.93 31.832 208.794 31.832C209.498 31.832 210.146 31.96 210.738 32.216C211.33 32.456 211.834 32.824 212.25 33.32C212.682 33.8 213.018 34.4 213.258 35.12C213.498 35.84 213.618 36.664 213.618 37.592V38.408C213.618 39.336 213.498 40.16 213.258 40.88C213.018 41.584 212.682 42.184 212.25 42.68C211.818 43.16 211.306 43.528 210.714 43.784C210.122 44.04 209.482 44.168 208.794 44.168C207.066 44.168 205.778 43.552 204.93 42.32H204.882V48.8H203.298V32ZM208.434 42.728C209.49 42.728 210.346 42.376 211.002 41.672C211.658 40.952 211.986 39.864 211.986 38.408V37.592C211.986 36.168 211.65 35.096 210.978 34.376C210.322 33.64 209.474 33.272 208.434 33.272C207.378 33.272 206.522 33.632 205.866 34.352C205.21 35.056 204.882 36.136 204.882 37.592V38.408C204.882 39.832 205.21 40.912 205.866 41.648C206.538 42.368 207.394 42.728 208.434 42.728ZM216.985 32H218.569V42.2H218.617L224.617 32H226.825V44H225.241V33.8H225.193L219.193 44H216.985V32ZM234.027 44.168C232.699 44.168 231.707 43.864 231.051 43.256C230.395 42.632 230.067 41.776 230.067 40.688C230.067 39.552 230.459 38.648 231.243 37.976C232.027 37.304 233.275 36.968 234.987 36.968H238.083V36.08C238.083 35.12 237.851 34.424 237.387 33.992C236.923 33.544 236.163 33.32 235.107 33.32C234.131 33.32 233.411 33.488 232.947 33.824C232.499 34.16 232.243 34.592 232.179 35.12H230.547C230.579 34.688 230.699 34.272 230.907 33.872C231.115 33.472 231.403 33.12 231.771 32.816C232.155 32.512 232.627 32.272 233.187 32.096C233.747 31.92 234.387 31.832 235.107 31.832C236.659 31.832 237.803 32.192 238.539 32.912C239.291 33.616 239.667 34.672 239.667 36.08V44H238.419L238.227 41.96H238.179C237.699 42.68 237.099 43.232 236.379 43.616C235.675 43.984 234.891 44.168 234.027 44.168ZM234.147 42.68C234.723 42.68 235.251 42.592 235.731 42.416C236.211 42.224 236.627 41.968 236.979 41.648C237.331 41.312 237.603 40.92 237.795 40.472C237.987 40.008 238.083 39.504 238.083 38.96V38.312H235.107C233.875 38.312 232.995 38.528 232.467 38.96C231.955 39.392 231.699 39.968 231.699 40.688C231.699 41.296 231.891 41.784 232.275 42.152C232.675 42.504 233.299 42.68 234.147 42.68ZM242.074 42.728H242.434C242.93 42.728 243.314 42.56 243.586 42.224C243.858 41.888 244.058 41.4 244.186 40.76C244.33 40.12 244.41 39.344 244.426 38.432C244.458 37.52 244.474 36.496 244.474 35.36V32H252.634V44H251.05V33.44H246.058V35.36C246.058 36.656 246.034 37.84 245.986 38.912C245.954 39.984 245.818 40.912 245.578 41.696C245.354 42.48 244.994 43.088 244.498 43.52C244.018 43.952 243.33 44.168 242.434 44.168H242.074V42.728Z" fill="black"/>
<path d="M140.293 115.707C140.683 116.098 141.317 116.098 141.707 115.707L148.071 109.343C148.462 108.953 148.462 108.319 148.071 107.929C147.681 107.538 147.047 107.538 146.657 107.929L141 113.586L135.343 107.929C134.953 107.538 134.319 107.538 133.929 107.929C133.538 108.319 133.538 108.953 133.929 109.343L140.293 115.707ZM142 115L142 111.375L140 111.375L140 115L142 115ZM142 104.125L142 96.875L140 96.875L140 104.125L142 104.125ZM142 89.625L142 82.375L140 82.375L140 89.625L142 89.625ZM142 75.125L142 67.875L140 67.875L140 75.125L142 75.125ZM142 60.625L142 57L140 57L140 60.625L142 60.625Z" fill="#8DC4FF"/>
<rect width="118" height="51" transform="translate(82 121)" fill="white"/>
<circle cx="141" cy="130" r="9" fill="#8DC4FF"/>
<path d="M8.27328 148.2H20.7533V165H19.0733V149.736H9.95328V165H8.27328V148.2ZM24.958 153H26.206L26.398 154.8H26.446C26.974 154.112 27.558 153.616 28.198 153.312C28.838 152.992 29.59 152.832 30.454 152.832C31.158 152.832 31.806 152.96 32.398 153.216C32.99 153.456 33.494 153.824 33.91 154.32C34.342 154.8 34.678 155.4 34.918 156.12C35.158 156.84 35.278 157.664 35.278 158.592V159.408C35.278 160.336 35.158 161.16 34.918 161.88C34.678 162.584 34.342 163.184 33.91 163.68C33.478 164.16 32.966 164.528 32.374 164.784C31.782 165.04 31.142 165.168 30.454 165.168C28.726 165.168 27.438 164.552 26.59 163.32H26.542V169.8H24.958V153ZM30.094 163.728C31.15 163.728 32.006 163.376 32.662 162.672C33.318 161.952 33.646 160.864 33.646 159.408V158.592C33.646 157.168 33.31 156.096 32.638 155.376C31.982 154.64 31.134 154.272 30.094 154.272C29.038 154.272 28.182 154.632 27.526 155.352C26.87 156.056 26.542 157.136 26.542 158.592V159.408C26.542 160.832 26.87 161.912 27.526 162.648C28.198 163.368 29.054 163.728 30.094 163.728ZM43.2055 165.168C41.5895 165.168 40.3015 164.672 39.3415 163.68C38.3975 162.688 37.9255 161.264 37.9255 159.408V158.592C37.9255 157.68 38.0455 156.864 38.2855 156.144C38.5415 155.424 38.9015 154.824 39.3655 154.344C39.8295 153.848 40.3815 153.472 41.0215 153.216C41.6775 152.96 42.4055 152.832 43.2055 152.832C44.8215 152.832 46.1015 153.328 47.0455 154.32C48.0055 155.312 48.4855 156.736 48.4855 158.592V159.408C48.4855 160.32 48.3575 161.136 48.1015 161.856C47.8615 162.576 47.5095 163.184 47.0455 163.68C46.5815 164.16 46.0215 164.528 45.3655 164.784C44.7255 165.04 44.0055 165.168 43.2055 165.168ZM43.2055 163.728C44.3095 163.728 45.1895 163.368 45.8455 162.648C46.5175 161.928 46.8535 160.848 46.8535 159.408V158.592C46.8535 157.168 46.5175 156.096 45.8455 155.376C45.1735 154.64 44.2935 154.272 43.2055 154.272C42.1015 154.272 41.2135 154.632 40.5415 155.352C39.8855 156.072 39.5575 157.152 39.5575 158.592V159.408C39.5575 160.832 39.8935 161.912 40.5655 162.648C41.2375 163.368 42.1175 163.728 43.2055 163.728ZM51.8408 153H56.4008C57.8088 153 58.8408 153.296 59.4968 153.888C60.1528 154.48 60.4808 155.28 60.4808 156.288C60.4808 156.816 60.3448 157.296 60.0728 157.728C59.8168 158.16 59.4488 158.496 58.9688 158.736V158.784C59.6248 159.04 60.1208 159.408 60.4568 159.888C60.7928 160.368 60.9608 160.928 60.9608 161.568C60.9608 162.64 60.6328 163.48 59.9768 164.088C59.3208 164.696 58.2888 165 56.8808 165H51.8408V153ZM58.8488 156.312C58.8488 155.72 58.6568 155.264 58.2728 154.944C57.8888 154.608 57.2248 154.44 56.2808 154.44H53.4248V158.208H56.2808C57.2248 158.208 57.8888 158.048 58.2728 157.728C58.6568 157.392 58.8488 156.92 58.8488 156.312ZM59.3288 161.544C59.3288 160.888 59.1368 160.392 58.7528 160.056C58.3688 159.72 57.7048 159.552 56.7608 159.552H53.4248V163.56H56.7608C57.7048 163.56 58.3688 163.392 58.7528 163.056C59.1368 162.72 59.3288 162.216 59.3288 161.544ZM68.7495 165.168C67.9815 165.168 67.2775 165.04 66.6375 164.784C65.9975 164.528 65.4535 164.16 65.0055 163.68C64.5575 163.184 64.2055 162.584 63.9495 161.88C63.7095 161.16 63.5895 160.336 63.5895 159.408V158.592C63.5895 157.68 63.7095 156.864 63.9495 156.144C64.2055 155.424 64.5575 154.824 65.0055 154.344C65.4695 153.848 66.0135 153.472 66.6375 153.216C67.2775 152.96 67.9815 152.832 68.7495 152.832C69.5175 152.832 70.2215 152.96 70.8615 153.216C71.5015 153.472 72.0455 153.848 72.4935 154.344C72.9415 154.84 73.2855 155.456 73.5255 156.192C73.7815 156.912 73.9095 157.752 73.9095 158.712V159.432H65.2215C65.2215 160.824 65.5255 161.888 66.1335 162.624C66.7415 163.36 67.6135 163.728 68.7495 163.728C70.4615 163.728 71.5975 163.032 72.1575 161.64H73.7895C73.5015 162.792 72.9255 163.672 72.0615 164.28C71.2135 164.872 70.1095 165.168 68.7495 165.168ZM68.7495 154.272C67.7255 154.272 66.9015 154.6 66.2775 155.256C65.6535 155.896 65.3015 156.84 65.2215 158.088H72.2775C72.1975 156.792 71.8375 155.832 71.1975 155.208C70.5735 154.584 69.7575 154.272 68.7495 154.272ZM77.2705 153H78.5185L78.7105 154.8H78.7585C79.2865 154.112 79.8705 153.616 80.5105 153.312C81.1505 152.992 81.9025 152.832 82.7665 152.832C83.4705 152.832 84.1185 152.96 84.7105 153.216C85.3025 153.456 85.8065 153.824 86.2225 154.32C86.6545 154.8 86.9905 155.4 87.2305 156.12C87.4705 156.84 87.5905 157.664 87.5905 158.592V159.408C87.5905 160.336 87.4705 161.16 87.2305 161.88C86.9905 162.584 86.6545 163.184 86.2225 163.68C85.7905 164.16 85.2785 164.528 84.6865 164.784C84.0945 165.04 83.4545 165.168 82.7665 165.168C81.0385 165.168 79.7505 164.552 78.9025 163.32H78.8545V169.8H77.2705V153ZM82.4065 163.728C83.4625 163.728 84.3185 163.376 84.9745 162.672C85.6305 161.952 85.9585 160.864 85.9585 159.408V158.592C85.9585 157.168 85.6225 156.096 84.9505 155.376C84.2945 154.64 83.4465 154.272 82.4065 154.272C81.3505 154.272 80.4945 154.632 79.8385 155.352C79.1825 156.056 78.8545 157.136 78.8545 158.592V159.408C78.8545 160.832 79.1825 161.912 79.8385 162.648C80.5105 163.368 81.3665 163.728 82.4065 163.728ZM92.686 160.2C91.87 159.928 91.278 159.504 90.91 158.928C90.542 158.352 90.358 157.632 90.358 156.768C90.358 155.568 90.726 154.64 91.462 153.984C92.214 153.328 93.446 153 95.158 153H98.998V165H97.414V160.536H95.158C94.998 160.536 94.838 160.536 94.678 160.536C94.534 160.536 94.39 160.528 94.246 160.512L91.702 165H89.878L92.686 160.2ZM91.99 156.768C91.99 157.52 92.23 158.096 92.71 158.496C93.19 158.896 94.046 159.096 95.278 159.096H97.414V154.44H95.278C94.046 154.44 93.19 154.64 92.71 155.04C92.23 155.44 91.99 156.016 91.99 156.768ZM107.515 165.168C106.747 165.168 106.043 165.04 105.403 164.784C104.763 164.528 104.219 164.16 103.771 163.68C103.323 163.184 102.971 162.584 102.715 161.88C102.475 161.16 102.355 160.336 102.355 159.408V158.592C102.355 157.68 102.475 156.864 102.715 156.144C102.971 155.424 103.323 154.824 103.771 154.344C104.235 153.848 104.779 153.472 105.403 153.216C106.043 152.96 106.747 152.832 107.515 152.832C108.283 152.832 108.987 152.96 109.627 153.216C110.267 153.472 110.811 153.848 111.259 154.344C111.707 154.84 112.051 155.456 112.291 156.192C112.547 156.912 112.675 157.752 112.675 158.712V159.432H103.987C103.987 160.824 104.291 161.888 104.899 162.624C105.507 163.36 106.379 163.728 107.515 163.728C109.227 163.728 110.363 163.032 110.923 161.64H112.555C112.267 162.792 111.691 163.672 110.827 164.28C109.979 164.872 108.875 165.168 107.515 165.168ZM107.515 154.272C106.491 154.272 105.667 154.6 105.043 155.256C104.419 155.896 104.067 156.84 103.987 158.088H111.043C110.963 156.792 110.603 155.832 109.963 155.208C109.339 154.584 108.523 154.272 107.515 154.272ZM118.015 154.44H114.007V153H123.607V154.44H119.599V165H118.015V154.44ZM130.109 165.168C129.341 165.168 128.637 165.04 127.997 164.784C127.357 164.528 126.813 164.16 126.365 163.68C125.917 163.184 125.565 162.584 125.309 161.88C125.069 161.16 124.949 160.336 124.949 159.408V158.592C124.949 157.68 125.069 156.864 125.309 156.144C125.565 155.424 125.917 154.824 126.365 154.344C126.829 153.848 127.373 153.472 127.997 153.216C128.637 152.96 129.341 152.832 130.109 152.832C130.877 152.832 131.581 152.96 132.221 153.216C132.861 153.472 133.405 153.848 133.853 154.344C134.301 154.84 134.645 155.456 134.885 156.192C135.141 156.912 135.269 157.752 135.269 158.712V159.432H126.581C126.581 160.824 126.885 161.888 127.493 162.624C128.101 163.36 128.973 163.728 130.109 163.728C131.821 163.728 132.957 163.032 133.517 161.64H135.149C134.861 162.792 134.285 163.672 133.421 164.28C132.573 164.872 131.469 165.168 130.109 165.168ZM130.109 154.272C129.085 154.272 128.261 154.6 127.637 155.256C127.013 155.896 126.661 156.84 126.581 158.088H133.637C133.557 156.792 133.197 155.832 132.557 155.208C131.933 154.584 131.117 154.272 130.109 154.272ZM144.63 153H146.214V158.16H152.886V153H154.47V165H152.886V159.6H146.214V165H144.63V153ZM161.672 165.168C160.344 165.168 159.352 164.864 158.696 164.256C158.04 163.632 157.712 162.776 157.712 161.688C157.712 160.552 158.104 159.648 158.888 158.976C159.672 158.304 160.92 157.968 162.632 157.968H165.728V157.08C165.728 156.12 165.496 155.424 165.032 154.992C164.568 154.544 163.808 154.32 162.752 154.32C161.776 154.32 161.056 154.488 160.592 154.824C160.144 155.16 159.888 155.592 159.824 156.12H158.192C158.224 155.688 158.344 155.272 158.552 154.872C158.76 154.472 159.048 154.12 159.416 153.816C159.8 153.512 160.272 153.272 160.832 153.096C161.392 152.92 162.032 152.832 162.752 152.832C164.304 152.832 165.448 153.192 166.184 153.912C166.936 154.616 167.312 155.672 167.312 157.08V165H166.064L165.872 162.96H165.824C165.344 163.68 164.744 164.232 164.024 164.616C163.32 164.984 162.536 165.168 161.672 165.168ZM161.792 163.68C162.368 163.68 162.896 163.592 163.376 163.416C163.856 163.224 164.272 162.968 164.624 162.648C164.976 162.312 165.248 161.92 165.44 161.472C165.632 161.008 165.728 160.504 165.728 159.96V159.312H162.752C161.52 159.312 160.64 159.528 160.112 159.96C159.6 160.392 159.344 160.968 159.344 161.688C159.344 162.296 159.536 162.784 159.92 163.152C160.32 163.504 160.944 163.68 161.792 163.68ZM177.278 153H186.638V165H185.054V154.44H178.862V165H177.278V153ZM190.708 153H191.956L192.148 154.8H192.196C192.724 154.112 193.308 153.616 193.948 153.312C194.588 152.992 195.34 152.832 196.204 152.832C196.908 152.832 197.556 152.96 198.148 153.216C198.74 153.456 199.244 153.824 199.66 154.32C200.092 154.8 200.428 155.4 200.668 156.12C200.908 156.84 201.028 157.664 201.028 158.592V159.408C201.028 160.336 200.908 161.16 200.668 161.88C200.428 162.584 200.092 163.184 199.66 163.68C199.228 164.16 198.716 164.528 198.124 164.784C197.532 165.04 196.892 165.168 196.204 165.168C194.476 165.168 193.188 164.552 192.34 163.32H192.292V169.8H190.708V153ZM195.844 163.728C196.9 163.728 197.756 163.376 198.412 162.672C199.068 161.952 199.396 160.864 199.396 159.408V158.592C199.396 157.168 199.06 156.096 198.388 155.376C197.732 154.64 196.884 154.272 195.844 154.272C194.788 154.272 193.932 154.632 193.276 155.352C192.62 156.056 192.292 157.136 192.292 158.592V159.408C192.292 160.832 192.62 161.912 193.276 162.648C193.948 163.368 194.804 163.728 195.844 163.728ZM207.515 165.168C206.187 165.168 205.195 164.864 204.539 164.256C203.883 163.632 203.555 162.776 203.555 161.688C203.555 160.552 203.947 159.648 204.731 158.976C205.515 158.304 206.763 157.968 208.475 157.968H211.571V157.08C211.571 156.12 211.339 155.424 210.875 154.992C210.411 154.544 209.651 154.32 208.595 154.32C207.619 154.32 206.899 154.488 206.435 154.824C205.987 155.16 205.731 155.592 205.667 156.12H204.035C204.067 155.688 204.187 155.272 204.395 154.872C204.603 154.472 204.891 154.12 205.259 153.816C205.643 153.512 206.115 153.272 206.675 153.096C207.235 152.92 207.875 152.832 208.595 152.832C210.147 152.832 211.291 153.192 212.027 153.912C212.779 154.616 213.155 155.672 213.155 157.08V165H211.907L211.715 162.96H211.667C211.187 163.68 210.587 164.232 209.867 164.616C209.163 164.984 208.379 165.168 207.515 165.168ZM207.635 163.68C208.211 163.68 208.739 163.592 209.219 163.416C209.699 163.224 210.115 162.968 210.467 162.648C210.819 162.312 211.091 161.92 211.283 161.472C211.475 161.008 211.571 160.504 211.571 159.96V159.312H208.595C207.363 159.312 206.483 159.528 205.955 159.96C205.443 160.392 205.187 160.968 205.187 161.688C205.187 162.296 205.379 162.784 205.763 163.152C206.163 163.504 206.787 163.68 207.635 163.68ZM217.122 153H218.706V158.04H220.866L224.37 153H226.242L222.138 158.712L226.722 165H224.802L220.866 159.48H218.706V165H217.122V153ZM232.039 154.44H228.031V153H237.631V154.44H233.623V165H232.039V154.44ZM240.161 153H241.745V163.2H241.793L247.793 153H250.001V165H248.417V154.8H248.369L242.369 165H240.161V153ZM254.083 153H255.667V158.04H257.827L261.331 153H263.203L259.099 158.712L263.683 165H261.763L257.827 159.48H255.667V165H254.083V153ZM270.406 165.168C269.638 165.168 268.934 165.04 268.294 164.784C267.654 164.528 267.11 164.16 266.662 163.68C266.214 163.184 265.862 162.584 265.606 161.88C265.366 161.16 265.246 160.336 265.246 159.408V158.592C265.246 157.68 265.366 156.864 265.606 156.144C265.862 155.424 266.214 154.824 266.662 154.344C267.126 153.848 267.67 153.472 268.294 153.216C268.934 152.96 269.638 152.832 270.406 152.832C271.174 152.832 271.878 152.96 272.518 153.216C273.158 153.472 273.702 153.848 274.15 154.344C274.598 154.84 274.942 155.456 275.182 156.192C275.438 156.912 275.566 157.752 275.566 158.712V159.432H266.878C266.878 160.824 267.182 161.888 267.79 162.624C268.398 163.36 269.27 163.728 270.406 163.728C272.118 163.728 273.254 163.032 273.814 161.64H275.446C275.158 162.792 274.582 163.672 273.718 164.28C272.87 164.872 271.766 165.168 270.406 165.168ZM270.406 154.272C269.382 154.272 268.558 154.6 267.934 155.256C267.31 155.896 266.958 156.84 266.878 158.088H273.934C273.854 156.792 273.494 155.832 272.854 155.208C272.23 154.584 271.414 154.272 270.406 154.272Z" fill="black"/>
<path d="M140.293 236.707C140.683 237.098 141.317 237.098 141.707 236.707L148.071 230.343C148.462 229.953 148.462 229.319 148.071 228.929C147.681 228.538 147.047 228.538 146.657 228.929L141 234.586L135.343 228.929C134.953 228.538 134.319 228.538 133.929 228.929C133.538 229.319 133.538 229.953 133.929 230.343L140.293 236.707ZM142 236L142 232.375L140 232.375L140 236L142 236ZM142 225.125L142 217.875L140 217.875L140 225.125L142 225.125ZM142 210.625L142 203.375L140 203.375L140 210.625L142 210.625ZM142 196.125L142 188.875L140 188.875L140 196.125L142 196.125ZM142 181.625L142 178L140 178L140 181.625L142 181.625Z" fill="#8DC4FF"/>
<rect width="118" height="51" transform="translate(82 242)" fill="white"/>
<circle cx="141" cy="251" r="9" fill="#21EA4D"/>
<path d="M93.6366 269.2H99.0366C101.037 269.2 102.517 269.656 103.477 270.568C104.437 271.48 104.917 272.76 104.917 274.408C104.917 276.04 104.429 277.32 103.453 278.248C102.477 279.16 101.005 279.616 99.0366 279.616H95.3166V286H93.6366V269.2ZM95.3166 270.736V278.08H98.9166C100.437 278.08 101.525 277.776 102.181 277.168C102.853 276.544 103.189 275.624 103.189 274.408C103.189 273.208 102.853 272.296 102.181 271.672C101.509 271.048 100.421 270.736 98.9166 270.736H95.3166ZM110.793 286.168C109.465 286.168 108.473 285.864 107.817 285.256C107.161 284.632 106.833 283.776 106.833 282.688C106.833 281.552 107.225 280.648 108.009 279.976C108.793 279.304 110.041 278.968 111.753 278.968H114.849V278.08C114.849 277.12 114.617 276.424 114.153 275.992C113.689 275.544 112.929 275.32 111.873 275.32C110.897 275.32 110.177 275.488 109.713 275.824C109.265 276.16 109.009 276.592 108.945 277.12H107.313C107.345 276.688 107.465 276.272 107.673 275.872C107.881 275.472 108.169 275.12 108.537 274.816C108.921 274.512 109.393 274.272 109.953 274.096C110.513 273.92 111.153 273.832 111.873 273.832C113.425 273.832 114.569 274.192 115.305 274.912C116.057 275.616 116.433 276.672 116.433 278.08V286H115.185L114.993 283.96H114.945C114.465 284.68 113.865 285.232 113.145 285.616C112.441 285.984 111.657 286.168 110.793 286.168ZM110.913 284.68C111.489 284.68 112.017 284.592 112.497 284.416C112.977 284.224 113.393 283.968 113.745 283.648C114.097 283.312 114.369 282.92 114.561 282.472C114.753 282.008 114.849 281.504 114.849 280.96V280.312H111.873C110.641 280.312 109.761 280.528 109.233 280.96C108.721 281.392 108.465 281.968 108.465 282.688C108.465 283.296 108.657 283.784 109.041 284.152C109.441 284.504 110.065 284.68 110.913 284.68ZM125.103 286.168C123.471 286.168 122.175 285.648 121.215 284.608C120.271 283.552 119.799 281.912 119.799 279.688V278.392C119.799 277.48 119.839 276.616 119.919 275.8C119.999 274.984 120.135 274.24 120.327 273.568C120.535 272.896 120.815 272.304 121.167 271.792C121.519 271.264 121.975 270.832 122.535 270.496C123.031 270.208 123.519 270.016 123.999 269.92C124.495 269.808 125.015 269.728 125.559 269.68C126.103 269.632 126.687 269.576 127.311 269.512C127.935 269.432 128.631 269.272 129.399 269.032V270.496C128.791 270.72 128.199 270.864 127.623 270.928C127.063 270.992 126.519 271.048 125.991 271.096C125.479 271.144 124.991 271.208 124.527 271.288C124.063 271.368 123.639 271.528 123.255 271.768C122.663 272.152 122.215 272.696 121.911 273.4C121.623 274.104 121.431 275.024 121.335 276.16H121.383C121.799 275.488 122.343 274.976 123.015 274.624C123.703 274.256 124.495 274.072 125.391 274.072C126.111 274.072 126.775 274.2 127.383 274.456C127.991 274.712 128.511 275.08 128.943 275.56C129.391 276.04 129.735 276.632 129.975 277.336C130.231 278.04 130.359 278.832 130.359 279.712V280.528C130.359 281.408 130.231 282.2 129.975 282.904C129.719 283.592 129.359 284.184 128.895 284.68C128.447 285.16 127.895 285.528 127.239 285.784C126.599 286.04 125.887 286.168 125.103 286.168ZM125.103 284.728C126.191 284.728 127.063 284.376 127.719 283.672C128.391 282.952 128.727 281.904 128.727 280.528V279.712C128.727 278.336 128.391 277.296 127.719 276.592C127.063 275.872 126.191 275.512 125.103 275.512C123.983 275.512 123.087 275.864 122.415 276.568C121.759 277.272 121.431 278.32 121.431 279.712V280.528C121.431 281.888 121.767 282.928 122.439 283.648C123.111 284.368 123.999 284.728 125.103 284.728ZM138.272 286.168C136.656 286.168 135.368 285.672 134.408 284.68C133.464 283.688 132.992 282.264 132.992 280.408V279.592C132.992 278.68 133.112 277.864 133.352 277.144C133.608 276.424 133.968 275.824 134.432 275.344C134.896 274.848 135.448 274.472 136.088 274.216C136.744 273.96 137.472 273.832 138.272 273.832C139.888 273.832 141.168 274.328 142.112 275.32C143.072 276.312 143.552 277.736 143.552 279.592V280.408C143.552 281.32 143.424 282.136 143.168 282.856C142.928 283.576 142.576 284.184 142.112 284.68C141.648 285.16 141.088 285.528 140.432 285.784C139.792 286.04 139.072 286.168 138.272 286.168ZM138.272 284.728C139.376 284.728 140.256 284.368 140.912 283.648C141.584 282.928 141.92 281.848 141.92 280.408V279.592C141.92 278.168 141.584 277.096 140.912 276.376C140.24 275.64 139.36 275.272 138.272 275.272C137.168 275.272 136.28 275.632 135.608 276.352C134.952 277.072 134.624 278.152 134.624 279.592V280.408C134.624 281.832 134.96 282.912 135.632 283.648C136.304 284.368 137.184 284.728 138.272 284.728ZM148.886 275.44H144.878V274H154.478V275.44H150.47V286H148.886V275.44ZM159.894 286.168C158.566 286.168 157.574 285.864 156.918 285.256C156.262 284.632 155.934 283.776 155.934 282.688C155.934 281.552 156.326 280.648 157.11 279.976C157.894 279.304 159.142 278.968 160.854 278.968H163.95V278.08C163.95 277.12 163.718 276.424 163.254 275.992C162.79 275.544 162.03 275.32 160.974 275.32C159.998 275.32 159.278 275.488 158.814 275.824C158.366 276.16 158.11 276.592 158.046 277.12H156.414C156.446 276.688 156.566 276.272 156.774 275.872C156.982 275.472 157.27 275.12 157.638 274.816C158.022 274.512 158.494 274.272 159.054 274.096C159.614 273.92 160.254 273.832 160.974 273.832C162.526 273.832 163.67 274.192 164.406 274.912C165.158 275.616 165.534 276.672 165.534 278.08V286H164.286L164.094 283.96H164.046C163.566 284.68 162.966 285.232 162.246 285.616C161.542 285.984 160.758 286.168 159.894 286.168ZM160.014 284.68C160.59 284.68 161.118 284.592 161.598 284.416C162.078 284.224 162.494 283.968 162.846 283.648C163.198 283.312 163.47 282.92 163.662 282.472C163.854 282.008 163.95 281.504 163.95 280.96V280.312H160.974C159.742 280.312 158.862 280.528 158.334 280.96C157.822 281.392 157.566 281.968 157.566 282.688C157.566 283.296 157.758 283.784 158.142 284.152C158.542 284.504 159.166 284.68 160.014 284.68ZM173.941 286.168C173.173 286.168 172.469 286.04 171.829 285.784C171.189 285.528 170.645 285.16 170.197 284.68C169.749 284.184 169.397 283.584 169.141 282.88C168.901 282.16 168.781 281.336 168.781 280.408V279.592C168.781 278.68 168.901 277.864 169.141 277.144C169.397 276.424 169.749 275.824 170.197 275.344C170.661 274.848 171.205 274.472 171.829 274.216C172.469 273.96 173.173 273.832 173.941 273.832C174.709 273.832 175.413 273.96 176.053 274.216C176.693 274.472 177.237 274.848 177.685 275.344C178.133 275.84 178.477 276.456 178.717 277.192C178.973 277.912 179.101 278.752 179.101 279.712V280.432H170.413C170.413 281.824 170.717 282.888 171.325 283.624C171.933 284.36 172.805 284.728 173.941 284.728C175.653 284.728 176.789 284.032 177.349 282.64H178.981C178.693 283.792 178.117 284.672 177.253 285.28C176.405 285.872 175.301 286.168 173.941 286.168ZM173.941 275.272C172.917 275.272 172.093 275.6 171.469 276.256C170.845 276.896 170.493 277.84 170.413 279.088H177.469C177.389 277.792 177.029 276.832 176.389 276.208C175.765 275.584 174.949 275.272 173.941 275.272ZM184.441 275.44H180.433V274H190.033V275.44H186.025V286H184.441V275.44Z" fill="black"/>
</svg>
