<svg width="339" height="241" viewBox="0 0 339 241" fill="none" xmlns="http://www.w3.org/2000/svg">
<g clip-path="url(#clip0_119_605)">
<path d="M870.872 -3948.53H-138.286V2235.75H870.872V-3948.53Z" fill="white"/>
<path d="M29.2067 94.0626C32.69 94.0626 35.5139 91.234 35.5139 87.7449C35.5139 84.2558 32.69 81.4272 29.2067 81.4272C25.7233 81.4272 22.8994 84.2558 22.8994 87.7449C22.8994 91.234 25.7233 94.0626 29.2067 94.0626Z" fill="#8DC4FF"/>
<path d="M7.1748 100.521H8.35216V105.71H10.2023L14.0371 100.521H15.4163L11.1778 106.215L15.7527 112.314H14.3062L10.2023 106.788H8.35216V112.314H7.1748V100.521ZM17.767 103.89H18.8771V107.513H23.5529V103.89H24.663V112.314H23.5529V108.523H18.8771V112.314H17.767V103.89ZM27.5236 103.89H28.6336V111.05H28.6673L32.8721 103.89H34.4195V112.314H33.3094V105.154H33.2758L29.071 112.314H27.5236V103.89ZM37.2801 103.89H42.6623V104.901H38.3902V112.314H37.2801V103.89ZM44.425 103.89H45.5351V111.05H45.5687L49.7736 103.89H51.3209V112.314H50.2109V105.154H50.1772L45.9724 112.314H44.425V103.89Z" fill="black"/>
<path d="M29.9072 87.7451H169.718C175.911 87.7451 180.931 92.7733 180.931 98.9765V150.571" stroke="#8DC4FF" stroke-width="2" stroke-dasharray="8 8"/>
<path d="M29.2067 157.239C32.69 157.239 35.5139 154.411 35.5139 150.922C35.5139 147.433 32.69 144.604 29.2067 144.604C25.7233 144.604 22.8994 147.433 22.8994 150.922C22.8994 154.411 25.7233 157.239 29.2067 157.239Z" fill="#8DC4FF"/>
<path d="M8.75542 175.608C8.04901 175.608 7.40427 175.485 6.8212 175.238C6.23813 174.991 5.73355 174.631 5.30746 174.16C4.88137 173.677 4.55059 173.087 4.31512 172.391C4.07965 171.683 3.96191 170.874 3.96191 169.965V169.055C3.96191 168.19 4.07965 167.421 4.31512 166.747C4.55059 166.062 4.88137 165.489 5.30746 165.028C5.73355 164.557 6.23813 164.197 6.8212 163.95C7.41548 163.703 8.06022 163.58 8.75542 163.58C9.39455 163.58 9.96641 163.675 10.471 163.866C10.9868 164.046 11.4353 164.293 11.8165 164.607C12.1978 164.922 12.5005 165.292 12.7248 165.719C12.9602 166.135 13.1228 166.584 13.2125 167.067H11.9679C11.8782 166.73 11.7436 166.416 11.5642 166.124C11.396 165.831 11.1774 165.579 10.9083 165.365C10.6392 165.141 10.3252 164.967 9.96641 164.843C9.60759 164.72 9.20393 164.658 8.75542 164.658C8.23962 164.658 7.76308 164.753 7.32578 164.944C6.88847 165.135 6.50724 165.416 6.18206 165.787C5.8681 166.157 5.62142 166.618 5.44201 167.168C5.26261 167.707 5.1729 168.336 5.1729 169.055V169.965C5.1729 170.717 5.26261 171.38 5.44201 171.953C5.63263 172.525 5.88492 173.003 6.19888 173.385C6.52406 173.766 6.90529 174.053 7.34259 174.244C7.7799 174.435 8.25084 174.53 8.75542 174.53C9.66366 174.53 10.3813 174.289 10.9083 173.806C11.4465 173.323 11.7997 172.705 11.9679 171.953H13.2125C13.1228 172.48 12.9602 172.969 12.7248 173.418C12.5005 173.856 12.1978 174.238 11.8165 174.564C11.4353 174.89 10.9868 175.148 10.471 175.339C9.96641 175.519 9.39455 175.608 8.75542 175.608ZM17.4457 168.078H14.6369V167.067H21.3646V168.078H18.5558V175.49H17.4457V168.078ZM25.1601 175.608C24.2295 175.608 23.5343 175.395 23.0745 174.968C22.6148 174.53 22.3849 173.929 22.3849 173.166C22.3849 172.368 22.6597 171.734 23.2091 171.262C23.7585 170.79 24.6331 170.554 25.8329 170.554H28.0026V169.931C28.0026 169.257 27.84 168.768 27.5148 168.465C27.1897 168.151 26.657 167.994 25.917 167.994C25.233 167.994 24.7284 168.111 24.4033 168.347C24.0893 168.583 23.9099 168.886 23.865 169.257H22.7213C22.7438 168.954 22.8279 168.662 22.9736 168.381C23.1194 168.1 23.3212 167.853 23.5791 167.64C23.8482 167.426 24.179 167.258 24.5715 167.134C24.9639 167.011 25.4124 166.949 25.917 166.949C27.0046 166.949 27.8064 167.202 28.3222 167.707C28.8492 168.201 29.1127 168.943 29.1127 169.931V175.49H28.2381L28.1035 174.058H28.0699C27.7335 174.564 27.313 174.951 26.8084 175.221C26.3151 175.479 25.7656 175.608 25.1601 175.608ZM25.2442 174.564C25.6479 174.564 26.0179 174.502 26.3543 174.379C26.6907 174.244 26.9822 174.064 27.2289 173.839C27.4756 173.604 27.6662 173.328 27.8008 173.014C27.9353 172.688 28.0026 172.334 28.0026 171.953V171.498H25.917C25.0536 171.498 24.4369 171.649 24.0669 171.953C23.7081 172.256 23.5287 172.66 23.5287 173.166C23.5287 173.592 23.6632 173.935 23.9323 174.193C24.2126 174.44 24.6499 174.564 25.2442 174.564ZM33.2795 168.078H30.4707V167.067H37.1984V168.078H34.3896V175.49H33.2795V168.078ZM38.9717 167.067H40.0817V170.099H41.9991C43.0868 170.099 43.8885 170.341 44.4043 170.824C44.9313 171.307 45.1948 171.964 45.1948 172.795C45.1948 173.615 44.9313 174.272 44.4043 174.766C43.8773 175.249 43.0756 175.49 41.9991 175.49H38.9717V167.067ZM40.0817 171.11V174.48H41.915C42.6887 174.48 43.2382 174.334 43.5633 174.042C43.8885 173.75 44.0511 173.334 44.0511 172.795C44.0511 172.256 43.8829 171.84 43.5465 171.548C43.2213 171.256 42.6775 171.11 41.915 171.11H40.0817ZM47.2171 167.067H48.3272V174.227H48.3608L52.5657 167.067H54.113V175.49H53.0029V168.33H52.9693L48.7645 175.49H47.2171V167.067Z" fill="black"/>
<path d="M30.9585 150.571H182.332" stroke="#8DC4FF" stroke-width="2" stroke-dasharray="8 8"/>
<path d="M184.084 151.624H186.858V150.22H184.084V151.624ZM192.407 151.624H197.955V150.22H192.407V151.624ZM203.502 151.624H209.051V150.22H203.502V151.624ZM214.599 151.624H220.146V150.22H214.599V151.624ZM225.695 151.624H231.243V150.22H225.695V151.624ZM236.791 151.624H242.339V150.22H236.791V151.624ZM247.887 151.624H250.661V150.22H247.887V151.624Z" fill="#8DC4FF"/>
<path d="M287.803 82.8311C291.287 82.8311 294.111 80.0026 294.111 76.5135C294.111 73.0243 291.287 70.1958 287.803 70.1958C284.32 70.1958 281.496 73.0243 281.496 76.5135C281.496 80.0026 284.32 82.8311 287.803 82.8311Z" fill="#FF4B53"/>
<path d="M236.79 89.2893H237.967V94.4782H244.526V89.2893H245.704V101.082H244.526V95.5564H237.967V101.082H236.79V89.2893ZM251.758 101.2C251.22 101.2 250.726 101.11 250.278 100.931C249.829 100.751 249.448 100.493 249.134 100.156C248.82 99.8075 248.574 99.3863 248.394 98.8922C248.226 98.3867 248.142 97.8083 248.142 97.1569V96.5841C248.142 95.9439 248.226 95.3711 248.394 94.8657C248.574 94.3603 248.82 93.9391 249.134 93.6022C249.459 93.254 249.841 92.9901 250.278 92.8104C250.726 92.6307 251.22 92.5408 251.758 92.5408C252.296 92.5408 252.79 92.6307 253.238 92.8104C253.687 92.9901 254.068 93.254 254.382 93.6022C254.696 93.9503 254.937 94.3828 255.105 94.8994C255.284 95.4048 255.374 95.9945 255.374 96.6683V97.1738H249.286C249.286 98.1509 249.499 98.8978 249.925 99.4144C250.351 99.931 250.962 100.189 251.758 100.189C252.958 100.189 253.754 99.7008 254.146 98.7237H255.29C255.088 99.5323 254.685 100.15 254.079 100.577C253.485 100.992 252.711 101.2 251.758 101.2ZM251.758 93.5516C251.04 93.5516 250.463 93.7819 250.026 94.2424C249.588 94.6916 249.342 95.3543 249.286 96.2303H254.23C254.174 95.3206 253.922 94.6467 253.474 94.2087C253.036 93.7706 252.464 93.5516 251.758 93.5516ZM264.962 101.2C264.435 101.2 263.953 101.116 263.515 100.947C263.078 100.768 262.702 100.504 262.389 100.156C262.086 99.8075 261.85 99.3751 261.682 98.8585C261.514 98.3418 261.43 97.7465 261.43 97.0727V96.4999C261.43 95.8709 261.514 95.3149 261.682 94.832C261.862 94.3378 262.103 93.9223 262.405 93.5853C262.719 93.2484 263.089 92.9901 263.515 92.8104C263.953 92.6307 264.435 92.5408 264.962 92.5408C265.455 92.5408 265.898 92.6082 266.291 92.743C266.683 92.8665 267.019 93.0462 267.3 93.2821C267.58 93.5067 267.804 93.7706 267.973 94.0739C268.141 94.3659 268.258 94.6804 268.326 95.0173H267.182C267.059 94.6018 266.829 94.2536 266.492 93.9728C266.156 93.692 265.674 93.5516 265.046 93.5516C264.328 93.5516 263.734 93.8043 263.263 94.3097C262.803 94.8152 262.574 95.5452 262.574 96.4999V97.0727C262.574 98.1059 262.809 98.8865 263.28 99.4144C263.751 99.931 264.34 100.189 265.046 100.189C265.674 100.189 266.156 100.043 266.492 99.7514C266.829 99.4593 267.059 99.0606 267.182 98.5552H268.326C268.258 98.9371 268.141 99.2909 267.973 99.6166C267.804 99.9311 267.58 100.206 267.3 100.442C267.019 100.678 266.683 100.863 266.291 100.998C265.898 101.133 265.455 101.2 264.962 101.2ZM270.426 92.6587H271.301L271.435 93.9223H271.469C271.839 93.4393 272.248 93.0911 272.697 92.8777C273.145 92.6531 273.672 92.5408 274.278 92.5408C274.771 92.5408 275.225 92.6307 275.64 92.8104C276.055 92.9788 276.408 93.2372 276.7 93.5853C277.002 93.9223 277.238 94.3434 277.406 94.8488C277.574 95.3543 277.658 95.9327 277.658 96.5841V97.1569C277.658 97.8083 277.574 98.3867 277.406 98.8922C277.238 99.3863 277.002 99.8075 276.7 100.156C276.397 100.493 276.038 100.751 275.623 100.931C275.208 101.11 274.76 101.2 274.278 101.2C273.067 101.2 272.164 100.768 271.57 99.903H271.536V104.452H270.426V92.6587ZM274.025 100.189C274.765 100.189 275.365 99.9423 275.825 99.4481C276.285 98.9427 276.515 98.179 276.515 97.1569V96.5841C276.515 95.5845 276.279 94.832 275.808 94.3266C275.349 93.81 274.754 93.5516 274.025 93.5516C273.285 93.5516 272.685 93.8043 272.226 94.3097C271.766 94.8039 271.536 95.562 271.536 96.5841V97.1569C271.536 98.1565 271.766 98.9146 272.226 99.4313C272.697 99.9367 273.297 100.189 274.025 100.189ZM282.205 101.2C281.275 101.2 280.579 100.987 280.12 100.56C279.66 100.122 279.43 99.5211 279.43 98.7574C279.43 97.9599 279.705 97.3254 280.254 96.8537C280.804 96.3819 281.678 96.1461 282.878 96.1461H285.048V95.5227C285.048 94.8489 284.885 94.3603 284.56 94.057C284.235 93.7426 283.702 93.5853 282.962 93.5853C282.278 93.5853 281.773 93.7033 281.448 93.9391C281.134 94.175 280.955 94.4782 280.91 94.8488H279.766C279.789 94.5456 279.873 94.2536 280.019 93.9728C280.164 93.692 280.366 93.4449 280.624 93.2315C280.893 93.0181 281.224 92.8497 281.617 92.7261C282.009 92.6026 282.457 92.5408 282.962 92.5408C284.05 92.5408 284.851 92.7935 285.367 93.2989C285.894 93.7931 286.158 94.5344 286.158 95.5227V101.082H285.283L285.149 99.6503H285.115C284.779 100.156 284.358 100.543 283.853 100.813C283.36 101.071 282.811 101.2 282.205 101.2ZM282.289 100.156C282.693 100.156 283.063 100.094 283.399 99.9704C283.736 99.8356 284.027 99.6559 284.274 99.4313C284.521 99.1954 284.711 98.9202 284.846 98.6057C284.98 98.28 285.048 97.9263 285.048 97.5444V97.0895H282.962C282.099 97.0895 281.482 97.2411 281.112 97.5444C280.753 97.8476 280.574 98.252 280.574 98.7574C280.574 99.1842 280.708 99.5267 280.977 99.785C281.258 100.032 281.695 100.156 282.289 100.156ZM292.234 101.2C291.09 101.2 290.182 100.835 289.509 100.105C288.847 99.3639 288.517 98.2127 288.517 96.6515V95.7417C288.517 95.1016 288.545 94.4951 288.601 93.9223C288.657 93.3495 288.752 92.8272 288.887 92.3555C289.032 91.8838 289.229 91.4682 289.475 91.1088C289.722 90.7382 290.042 90.4349 290.434 90.1991C290.782 89.9969 291.124 89.8621 291.46 89.7947C291.808 89.7161 292.172 89.66 292.553 89.6263C292.935 89.5926 293.344 89.5533 293.781 89.5083C294.218 89.4522 294.706 89.3399 295.244 89.1714V90.1991C294.818 90.3563 294.403 90.4574 294 90.5023C293.607 90.5472 293.226 90.5865 292.856 90.6202C292.497 90.6539 292.155 90.6989 291.83 90.755C291.505 90.8112 291.208 90.9235 290.939 91.092C290.524 91.3615 290.21 91.7434 289.997 92.2376C289.795 92.7317 289.66 93.3775 289.593 94.175H289.627C289.918 93.7033 290.299 93.3438 290.77 93.0968C291.253 92.8384 291.808 92.7093 292.436 92.7093C292.94 92.7093 293.405 92.7991 293.832 92.9788C294.258 93.1585 294.622 93.4168 294.925 93.7538C295.239 94.0907 295.48 94.5063 295.648 95.0005C295.827 95.4947 295.917 96.0506 295.917 96.6683V97.2411C295.917 97.8589 295.827 98.4148 295.648 98.909C295.469 99.392 295.216 99.8075 294.891 100.156C294.577 100.493 294.19 100.751 293.731 100.931C293.282 101.11 292.783 101.2 292.234 101.2ZM292.234 100.189C292.996 100.189 293.607 99.9423 294.067 99.4481C294.538 98.9427 294.773 98.207 294.773 97.2411V96.6683C294.773 95.7024 294.538 94.9724 294.067 94.4782C293.607 93.9728 292.996 93.7201 292.234 93.7201C291.449 93.7201 290.821 93.9672 290.35 94.4614C289.89 94.9555 289.66 95.6912 289.66 96.6683V97.2411C289.66 98.1958 289.896 98.9258 290.367 99.4313C290.838 99.9367 291.46 100.189 292.234 100.189ZM301.463 101.2C300.33 101.2 299.427 100.852 298.755 100.156C298.093 99.4593 297.762 98.4597 297.762 97.1569V96.5841C297.762 95.9439 297.846 95.3711 298.015 94.8657C298.194 94.3603 298.446 93.9391 298.772 93.6022C299.097 93.254 299.484 92.9901 299.932 92.8104C300.392 92.6307 300.902 92.5408 301.463 92.5408C302.595 92.5408 303.492 92.889 304.154 93.5853C304.826 94.2817 305.163 95.2813 305.163 96.5841V97.1569C305.163 97.7971 305.073 98.3699 304.894 98.8753C304.726 99.3807 304.479 99.8075 304.154 100.156C303.829 100.493 303.436 100.751 302.976 100.931C302.528 101.11 302.023 101.2 301.463 101.2ZM301.463 100.189C302.236 100.189 302.853 99.9367 303.313 99.4313C303.784 98.9258 304.019 98.1677 304.019 97.1569V96.5841C304.019 95.5845 303.784 94.832 303.313 94.3266C302.842 93.81 302.225 93.5516 301.463 93.5516C300.689 93.5516 300.067 93.8043 299.596 94.3097C299.136 94.8152 298.906 95.5733 298.906 96.5841V97.1569C298.906 98.1565 299.142 98.9146 299.612 99.4313C300.083 99.9367 300.7 100.189 301.463 100.189ZM308.901 93.6696H306.092V92.6587H312.82V93.6696H310.011V101.082H308.901V93.6696ZM316.615 101.2C315.685 101.2 314.99 100.987 314.53 100.56C314.07 100.122 313.84 99.5211 313.84 98.7574C313.84 97.9599 314.115 97.3254 314.664 96.8537C315.214 96.3819 316.088 96.1461 317.288 96.1461H319.458V95.5227C319.458 94.8489 319.295 94.3603 318.97 94.057C318.645 93.7426 318.112 93.5853 317.372 93.5853C316.688 93.5853 316.184 93.7033 315.859 93.9391C315.545 94.175 315.365 94.4782 315.32 94.8488H314.177C314.199 94.5456 314.283 94.2536 314.429 93.9728C314.575 93.692 314.776 93.4449 315.034 93.2315C315.303 93.0181 315.634 92.8497 316.027 92.7261C316.419 92.6026 316.868 92.5408 317.372 92.5408C318.46 92.5408 319.262 92.7935 319.777 93.2989C320.304 93.7931 320.568 94.5344 320.568 95.5227V101.082H319.693L319.559 99.6503H319.525C319.189 100.156 318.768 100.543 318.264 100.813C317.77 101.071 317.221 101.2 316.615 101.2ZM316.699 100.156C317.103 100.156 317.473 100.094 317.81 99.9704C318.146 99.8356 318.437 99.6559 318.684 99.4313C318.931 99.1954 319.121 98.9202 319.256 98.6057C319.391 98.28 319.458 97.9263 319.458 97.5444V97.0895H317.372C316.509 97.0895 315.892 97.2411 315.522 97.5444C315.163 97.8476 314.984 98.252 314.984 98.7574C314.984 99.1842 315.118 99.5267 315.388 99.785C315.668 100.032 316.105 100.156 316.699 100.156ZM322.255 100.189H322.507C322.855 100.189 323.124 100.071 323.314 99.8356C323.505 99.5997 323.645 99.2572 323.735 98.8079C323.836 98.3587 323.892 97.8139 323.903 97.1738C323.925 96.5336 323.937 95.8148 323.937 95.0173V92.6587H329.655V101.082H328.545V93.6696H325.047V95.0173C325.047 95.9271 325.03 96.7582 324.996 97.5107C324.974 98.2632 324.879 98.9146 324.71 99.4649C324.553 100.015 324.301 100.442 323.954 100.745C323.617 101.049 323.135 101.2 322.507 101.2H322.255V100.189ZM335.709 101.2C334.576 101.2 333.674 100.852 333.001 100.156C332.339 99.4593 332.009 98.4597 332.009 97.1569V96.5841C332.009 95.9439 332.093 95.3711 332.261 94.8657C332.44 94.3603 332.693 93.9391 333.018 93.6022C333.343 93.254 333.73 92.9901 334.178 92.8104C334.638 92.6307 335.148 92.5408 335.709 92.5408C336.841 92.5408 337.738 92.889 338.4 93.5853C339.073 94.2817 339.409 95.2813 339.409 96.5841V97.1569C339.409 97.7971 339.319 98.3699 339.14 98.8753C338.972 99.3807 338.725 99.8075 338.4 100.156C338.075 100.493 337.682 100.751 337.223 100.931C336.774 101.11 336.269 101.2 335.709 101.2ZM335.709 100.189C336.482 100.189 337.099 99.9367 337.559 99.4313C338.03 98.9258 338.265 98.1677 338.265 97.1569V96.5841C338.265 95.5845 338.03 94.832 337.559 94.3266C337.088 93.81 336.471 93.5516 335.709 93.5516C334.935 93.5516 334.313 93.8043 333.842 94.3097C333.382 94.8152 333.152 95.5733 333.152 96.5841V97.1569C333.152 98.1565 333.388 98.9146 333.859 99.4313C334.33 99.9367 334.946 100.189 335.709 100.189Z" fill="black"/>
<path d="M165.163 21.0592L165.148 21.761L165.163 21.0592ZM40.4546 70.0653C40.5757 70.4336 40.972 70.6336 41.3395 70.5122L47.3297 68.5342C47.6972 68.4127 47.897 68.0159 47.7758 67.6476C47.6546 67.2795 47.2584 67.0794 46.8908 67.2008L41.5662 68.959L39.8109 63.6257C39.6897 63.2575 39.2935 63.0574 38.9259 63.1788C38.5583 63.3002 38.3586 63.6971 38.4798 64.0653L40.4546 70.0653ZM41.7459 70.1615C42.1246 69.4089 42.586 68.5876 43.1337 67.7075L41.9443 66.9648C41.3767 67.8768 40.8942 68.735 40.4944 69.5295L41.7459 70.1615ZM46.452 63.0603C47.5536 61.6838 48.8144 60.235 50.2421 58.7368L49.2281 57.7675C47.7735 59.2939 46.4861 60.7731 45.3584 62.1822L46.452 63.0603ZM54.3582 54.7238C55.7084 53.4967 57.1649 52.2516 58.7311 50.9996L57.8569 49.9023C56.2676 51.1726 54.7886 52.4369 53.4164 53.6841L54.3582 54.7238ZM63.3293 47.5396C64.8444 46.4652 66.443 45.393 68.127 44.33L67.3793 43.1423C65.6749 44.2186 64.0553 45.3047 62.5192 46.3937L63.3293 47.5396ZM73.0621 41.3848C74.69 40.467 76.386 39.5613 78.1506 38.6725L77.5213 37.4182C75.7364 38.3168 74.0215 39.2328 72.3746 40.1614L73.0621 41.3848ZM83.3681 36.1903C85.0753 35.4236 86.8399 34.6741 88.6627 33.9453L88.1434 32.6414C86.3024 33.3774 84.5195 34.1345 82.7942 34.9092L83.3681 36.1903ZM94.0554 31.914C95.8291 31.2854 97.6526 30.6769 99.528 30.0911L99.1103 28.7508C97.2188 29.3419 95.3778 29.956 93.5872 30.5905L94.0554 31.914ZM105.066 28.4699C106.886 27.9722 108.75 27.4959 110.659 27.0433L110.336 25.6771C108.411 26.1334 106.533 26.6136 104.697 27.1156L105.066 28.4699ZM116.295 25.8034C118.146 25.4273 120.037 25.0731 121.967 24.7426L121.731 23.3588C119.787 23.6917 117.882 24.0485 116.016 24.4275L116.295 25.8034ZM127.669 23.8531C129.543 23.5888 131.451 23.3464 133.395 23.1274L133.239 21.7322C131.281 21.9527 129.36 22.1967 127.473 22.463L127.669 23.8531ZM139.143 22.5581C141.035 22.3961 142.957 22.2559 144.911 22.1385L144.827 20.7371C142.861 20.8552 140.927 20.9963 139.024 21.1593L139.143 22.5581ZM150.698 21.8623C152.591 21.7949 154.512 21.7486 156.463 21.7244L156.445 20.3205C154.484 20.3449 152.552 20.3915 150.648 20.4593L150.698 21.8623ZM162.226 21.7168C163.193 21.7262 164.167 21.7408 165.148 21.761L165.177 20.3574C164.191 20.3371 163.212 20.3224 162.239 20.313L162.226 21.7168ZM165.148 21.761C166.135 21.7812 167.115 21.8066 168.088 21.837L168.132 20.4338C167.154 20.4032 166.169 20.3777 165.177 20.3574L165.148 21.761ZM173.885 22.0812C175.846 22.1854 177.776 22.3103 179.677 22.455L179.783 21.0551C177.871 20.9096 175.93 20.784 173.96 20.6793L173.885 22.0812ZM185.487 22.9668C187.447 23.1634 189.375 23.3814 191.272 23.6197L191.446 22.2267C189.539 21.9869 187.599 21.7676 185.626 21.5698L185.487 22.9668ZM197.032 24.4197C198.979 24.7163 200.89 25.0345 202.766 25.3731L203.014 23.9914C201.126 23.6506 199.202 23.3302 197.243 23.0318L197.032 24.4197ZM208.468 26.4865C210.397 26.8921 212.285 27.3193 214.135 27.7667L214.464 26.402C212.601 25.9513 210.698 25.5209 208.755 25.1125L208.468 26.4865ZM219.76 29.2207C221.663 29.745 223.522 30.2907 225.336 30.8556L225.752 29.5149C223.923 28.9454 222.05 28.3954 220.132 27.8671L219.76 29.2207ZM230.852 32.678C232.719 33.3308 234.534 34.0037 236.298 34.6943L236.809 33.3865C235.028 32.6898 233.197 32.011 231.315 31.3526L230.852 32.678ZM241.66 36.91C243.471 37.6998 245.225 38.5075 246.92 39.3296L247.531 38.0659C245.818 37.2355 244.048 36.4201 242.219 35.6227L241.66 36.91ZM252.102 41.9782C253.854 42.9213 255.536 43.8781 257.151 44.8439L257.87 43.6385C256.237 42.6619 254.536 41.6948 252.766 40.7416L252.102 41.9782ZM262.047 47.931C263.717 49.0408 265.302 50.1561 266.804 51.2701L267.638 50.1416C266.116 49.0133 264.511 47.8843 262.822 46.7612L262.047 47.931ZM271.364 54.8464C272.917 56.1369 274.361 57.416 275.7 58.6732L276.658 57.649C275.299 56.3722 273.833 55.0743 272.259 53.7658L271.364 54.8464ZM279.784 62.776C281.202 64.3058 282.455 65.7802 283.548 67.177L284.651 66.3108C283.533 64.8821 282.255 63.378 280.811 61.8205L279.784 62.776ZM286.847 71.8873C287.393 72.7802 287.851 73.6107 288.227 74.3688L289.482 73.7454C289.086 72.9452 288.607 72.0783 288.042 71.1545L286.847 71.8873Z" fill="#FF4B53"/>
<path d="M29.2067 220.416C32.69 220.416 35.5139 217.588 35.5139 214.098C35.5139 210.609 32.69 207.781 29.2067 207.781C25.7233 207.781 22.8994 210.609 22.8994 214.098C22.8994 217.588 25.7233 220.416 29.2067 220.416Z" fill="#8DC4FF"/>
<path d="M0.48877 237.707H0.656962C1.15033 237.707 1.53157 237.555 1.80068 237.252C2.081 236.949 2.28283 236.533 2.40617 236.005C2.54073 235.466 2.61922 234.837 2.64164 234.118C2.66407 233.388 2.67528 232.602 2.67528 231.76V226.874H10.0758V238.667H8.89842V227.952H3.85263V231.76C3.85263 232.692 3.83021 233.579 3.78535 234.422C3.75172 235.264 3.63398 236.011 3.43215 236.662C3.23032 237.314 2.91075 237.83 2.47345 238.212C2.04736 238.594 1.44186 238.785 0.656962 238.785H0.48877V237.707ZM16.1235 238.785C15.5853 238.785 15.0919 238.695 14.6434 238.515C14.1949 238.336 13.8137 238.077 13.4997 237.74C13.1857 237.392 12.9391 236.971 12.7596 236.477C12.5915 235.971 12.5074 235.393 12.5074 234.742V234.169C12.5074 233.529 12.5915 232.956 12.7596 232.45C12.9391 231.945 13.1857 231.524 13.4997 231.187C13.8249 230.839 14.2061 230.575 14.6434 230.395C15.0919 230.215 15.5853 230.126 16.1235 230.126C16.6617 230.126 17.1551 230.215 17.6036 230.395C18.0521 230.575 18.4334 230.839 18.7473 231.187C19.0613 231.535 19.3024 231.967 19.4706 232.484C19.65 232.989 19.7397 233.579 19.7397 234.253V234.758H13.6511C13.6511 235.736 13.8641 236.482 14.2902 236.999C14.7163 237.516 15.3274 237.774 16.1235 237.774C17.3233 237.774 18.1194 237.286 18.5119 236.308H19.6556C19.4537 237.117 19.0501 237.735 18.4446 238.162C17.8503 238.577 17.0766 238.785 16.1235 238.785ZM16.1235 231.136C15.4059 231.136 14.8284 231.367 14.3911 231.827C13.9538 232.276 13.7071 232.939 13.6511 233.815H18.5959C18.5399 232.905 18.2876 232.231 17.8391 231.793C17.4018 231.355 16.8299 231.136 16.1235 231.136ZM22.095 230.243H23.2051V233.781H24.7188L27.1744 230.243H28.4863L25.6102 234.253L28.8227 238.667H27.4772L24.7188 234.792H23.2051V238.667H22.095V230.243ZM37.2957 238.667H30.6689V230.243H31.779V237.656H36.0343V230.243H37.1444V237.656H38.4058V240.857H37.2957V238.667ZM40.2612 230.243H41.3713V237.403H41.4049L45.6097 230.243H47.1571V238.667H46.047V231.507H46.0134L41.8086 238.667H40.2612V230.243ZM50.0177 230.243H51.1278V237.403H51.1614L55.3663 230.243H56.9136V238.667H55.8036V231.507H55.7699L51.5651 238.667H50.0177V230.243Z" fill="black"/>
<path d="M29.5566 214.449H169.718C175.716 214.449 180.58 209.577 180.58 203.568" stroke="#8DC4FF" stroke-width="2" stroke-dasharray="8 8"/>
<path d="M181.281 157.239C184.765 157.239 187.589 154.411 187.589 150.922C187.589 147.433 184.765 144.604 181.281 144.604C177.798 144.604 174.974 147.433 174.974 150.922C174.974 154.411 177.798 157.239 181.281 157.239Z" fill="#8DC4FF"/>
<path d="M145.466 163.698H154.212V175.491H153.034V164.776H146.643V175.491H145.466V163.698ZM157.159 167.067H158.033L158.168 168.331H158.201C158.571 167.848 158.981 167.5 159.429 167.286C159.878 167.062 160.405 166.949 161.01 166.949C161.504 166.949 161.958 167.039 162.373 167.219C162.787 167.387 163.141 167.646 163.432 167.994C163.735 168.331 163.97 168.752 164.139 169.257C164.307 169.763 164.391 170.341 164.391 170.993V171.565C164.391 172.217 164.307 172.795 164.139 173.301C163.97 173.795 163.735 174.216 163.432 174.564C163.129 174.901 162.771 175.159 162.356 175.339C161.941 175.519 161.492 175.609 161.01 175.609C159.799 175.609 158.897 175.176 158.302 174.311H158.269V178.86H157.159V167.067ZM160.758 174.598C161.498 174.598 162.098 174.351 162.558 173.857C163.017 173.351 163.247 172.587 163.247 171.565V170.993C163.247 169.993 163.012 169.24 162.541 168.735C162.081 168.218 161.487 167.96 160.758 167.96C160.018 167.96 159.418 168.213 158.958 168.718C158.499 169.212 158.269 169.97 158.269 170.993V171.565C158.269 172.565 158.499 173.323 158.958 173.84C159.429 174.345 160.029 174.598 160.758 174.598ZM169.947 175.609C168.814 175.609 167.912 175.26 167.239 174.564C166.577 173.868 166.247 172.868 166.247 171.565V170.993C166.247 170.352 166.331 169.78 166.499 169.274C166.678 168.769 166.931 168.348 167.256 168.011C167.581 167.662 167.968 167.398 168.416 167.219C168.876 167.039 169.386 166.949 169.947 166.949C171.079 166.949 171.976 167.297 172.638 167.994C173.311 168.69 173.647 169.69 173.647 170.993V171.565C173.647 172.206 173.557 172.778 173.378 173.284C173.21 173.789 172.963 174.216 172.638 174.564C172.313 174.901 171.92 175.159 171.461 175.339C171.012 175.519 170.508 175.609 169.947 175.609ZM169.947 174.598C170.721 174.598 171.337 174.345 171.797 173.84C172.268 173.334 172.503 172.576 172.503 171.565V170.993C172.503 169.993 172.268 169.24 171.797 168.735C171.326 168.218 170.709 167.96 169.947 167.96C169.173 167.96 168.551 168.213 168.08 168.718C167.62 169.224 167.39 169.982 167.39 170.993V171.565C167.39 172.565 167.626 173.323 168.097 173.84C168.568 174.345 169.184 174.598 169.947 174.598ZM175.998 167.067H179.194C180.181 167.067 180.904 167.275 181.364 167.691C181.823 168.106 182.053 168.668 182.053 169.375C182.053 169.746 181.958 170.083 181.767 170.386C181.588 170.689 181.33 170.925 180.994 171.094V171.127C181.453 171.307 181.801 171.565 182.036 171.902C182.272 172.239 182.39 172.632 182.39 173.082C182.39 173.834 182.16 174.424 181.7 174.851C181.24 175.277 180.517 175.491 179.53 175.491H175.998V167.067ZM180.91 169.392C180.91 168.977 180.775 168.656 180.506 168.432C180.237 168.196 179.771 168.078 179.11 168.078H177.108V170.723H179.11C179.771 170.723 180.237 170.611 180.506 170.386C180.775 170.15 180.91 169.819 180.91 169.392ZM181.246 173.065C181.246 172.604 181.111 172.256 180.842 172.02C180.573 171.784 180.108 171.666 179.446 171.666H177.108V174.48H179.446C180.108 174.48 180.573 174.362 180.842 174.126C181.111 173.89 181.246 173.536 181.246 173.065ZM187.848 175.609C187.31 175.609 186.817 175.519 186.368 175.339C185.92 175.159 185.538 174.901 185.224 174.564C184.91 174.216 184.664 173.795 184.484 173.301C184.316 172.795 184.232 172.217 184.232 171.565V170.993C184.232 170.352 184.316 169.78 184.484 169.274C184.664 168.769 184.91 168.348 185.224 168.011C185.55 167.662 185.931 167.398 186.368 167.219C186.817 167.039 187.31 166.949 187.848 166.949C188.386 166.949 188.88 167.039 189.328 167.219C189.777 167.398 190.158 167.662 190.472 168.011C190.786 168.359 191.027 168.791 191.195 169.308C191.375 169.813 191.464 170.403 191.464 171.077V171.582H185.376C185.376 172.559 185.589 173.306 186.015 173.823C186.441 174.339 187.052 174.598 187.848 174.598C189.048 174.598 189.844 174.109 190.237 173.132H191.38C191.178 173.941 190.775 174.559 190.169 174.985C189.575 175.401 188.801 175.609 187.848 175.609ZM187.848 167.96C187.131 167.96 186.553 168.19 186.116 168.651C185.679 169.1 185.432 169.763 185.376 170.639H190.321C190.265 169.729 190.012 169.055 189.564 168.617C189.127 168.179 188.555 167.96 187.848 167.96ZM193.82 167.067H194.694L194.829 168.331H194.863C195.233 167.848 195.642 167.5 196.09 167.286C196.539 167.062 197.066 166.949 197.671 166.949C198.165 166.949 198.619 167.039 199.034 167.219C199.449 167.387 199.802 167.646 200.093 167.994C200.396 168.331 200.632 168.752 200.8 169.257C200.968 169.763 201.052 170.341 201.052 170.993V171.565C201.052 172.217 200.968 172.795 200.8 173.301C200.632 173.795 200.396 174.216 200.093 174.564C199.791 174.901 199.432 175.159 199.017 175.339C198.602 175.519 198.154 175.609 197.671 175.609C196.46 175.609 195.558 175.176 194.963 174.311H194.93V178.86H193.82V167.067ZM197.419 174.598C198.159 174.598 198.759 174.351 199.219 173.857C199.679 173.351 199.908 172.587 199.908 171.565V170.993C199.908 169.993 199.673 169.24 199.202 168.735C198.742 168.218 198.148 167.96 197.419 167.96C196.679 167.96 196.079 168.213 195.619 168.718C195.16 169.212 194.93 169.97 194.93 170.993V171.565C194.93 172.565 195.16 173.323 195.619 173.84C196.09 174.345 196.69 174.598 197.419 174.598ZM203.412 167.067H204.522V170.605H206.036L208.491 167.067H209.803L206.927 171.077L210.139 175.491H208.794L206.036 171.616H204.522V175.491H203.412V167.067ZM214.008 175.609C213.077 175.609 212.382 175.395 211.922 174.968C211.463 174.53 211.233 173.93 211.233 173.166C211.233 172.368 211.507 171.734 212.057 171.262C212.606 170.79 213.481 170.555 214.681 170.555H216.85V169.931C216.85 169.257 216.688 168.769 216.363 168.465C216.037 168.151 215.505 167.994 214.765 167.994C214.081 167.994 213.576 168.112 213.251 168.348C212.937 168.583 212.758 168.887 212.713 169.257H211.569C211.591 168.954 211.676 168.662 211.821 168.381C211.967 168.1 212.169 167.853 212.427 167.64C212.696 167.427 213.027 167.258 213.419 167.135C213.812 167.011 214.26 166.949 214.765 166.949C215.852 166.949 216.654 167.202 217.17 167.707C217.697 168.202 217.96 168.943 217.96 169.931V175.491H217.086L216.951 174.059H216.918C216.581 174.564 216.161 174.952 215.656 175.221C215.163 175.479 214.613 175.609 214.008 175.609ZM214.092 174.564C214.496 174.564 214.866 174.502 215.202 174.379C215.538 174.244 215.83 174.064 216.077 173.84C216.323 173.604 216.514 173.329 216.649 173.014C216.783 172.688 216.85 172.335 216.85 171.953V171.498H214.765C213.901 171.498 213.285 171.65 212.915 171.953C212.556 172.256 212.376 172.66 212.376 173.166C212.376 173.593 212.511 173.935 212.78 174.193C213.06 174.441 213.498 174.564 214.092 174.564ZM136.003 188.828H137.113V192.45H141.789V188.828H142.899V197.252H141.789V193.461H137.113V197.252H136.003V188.828ZM147.946 197.369C147.015 197.369 146.32 197.156 145.86 196.729C145.401 196.291 145.171 195.69 145.171 194.927C145.171 194.129 145.445 193.495 145.995 193.023C146.544 192.551 147.419 192.315 148.619 192.315H150.788V191.692C150.788 191.018 150.626 190.53 150.301 190.226C149.975 189.912 149.443 189.755 148.703 189.755C148.019 189.755 147.514 189.872 147.189 190.108C146.875 190.344 146.696 190.647 146.651 191.018H145.507C145.529 190.715 145.614 190.423 145.759 190.142C145.905 189.861 146.107 189.614 146.365 189.401C146.634 189.187 146.965 189.019 147.357 188.895C147.75 188.772 148.198 188.71 148.703 188.71C149.79 188.71 150.592 188.963 151.108 189.468C151.635 189.962 151.898 190.704 151.898 191.692V197.252H151.024L150.889 195.819H150.856C150.519 196.325 150.099 196.712 149.594 196.982C149.101 197.24 148.551 197.369 147.946 197.369ZM148.03 196.325C148.434 196.325 148.804 196.263 149.14 196.14C149.476 196.005 149.768 195.825 150.015 195.601C150.261 195.365 150.452 195.089 150.586 194.775C150.721 194.449 150.788 194.095 150.788 193.714V193.259H148.703C147.839 193.259 147.223 193.41 146.853 193.714C146.494 194.017 146.314 194.421 146.314 194.927C146.314 195.353 146.449 195.696 146.718 195.954C146.998 196.201 147.436 196.325 148.03 196.325ZM158.883 188.828H165.443V197.252H164.333V189.839H159.993V197.252H158.883V188.828ZM168.295 188.828H169.17L169.304 190.091H169.338C169.708 189.609 170.117 189.26 170.566 189.047C171.014 188.822 171.541 188.71 172.147 188.71C172.64 188.71 173.094 188.8 173.509 188.98C173.924 189.148 174.277 189.406 174.569 189.755C174.871 190.092 175.107 190.513 175.275 191.018C175.443 191.524 175.527 192.102 175.527 192.753V193.326C175.527 193.978 175.443 194.556 175.275 195.061C175.107 195.556 174.871 195.977 174.569 196.325C174.266 196.662 173.907 196.92 173.492 197.1C173.077 197.28 172.629 197.369 172.147 197.369C170.936 197.369 170.033 196.937 169.439 196.072H169.405V200.621H168.295V188.828ZM171.894 196.359C172.634 196.359 173.234 196.112 173.694 195.617C174.154 195.112 174.384 194.348 174.384 193.326V192.753C174.384 191.754 174.148 191.001 173.677 190.496C173.218 189.979 172.623 189.721 171.894 189.721C171.154 189.721 170.554 189.974 170.095 190.479C169.635 190.973 169.405 191.731 169.405 192.753V193.326C169.405 194.326 169.635 195.084 170.095 195.601C170.566 196.106 171.166 196.359 171.894 196.359ZM180.074 197.369C179.143 197.369 178.448 197.156 177.988 196.729C177.528 196.291 177.298 195.69 177.298 194.927C177.298 194.129 177.573 193.495 178.122 193.023C178.672 192.551 179.547 192.315 180.746 192.315H182.916V191.692C182.916 191.018 182.753 190.53 182.428 190.226C182.103 189.912 181.57 189.755 180.83 189.755C180.146 189.755 179.642 189.872 179.317 190.108C179.003 190.344 178.823 190.647 178.778 191.018H177.635C177.657 190.715 177.741 190.423 177.887 190.142C178.033 189.861 178.235 189.614 178.492 189.401C178.762 189.187 179.092 189.019 179.485 188.895C179.877 188.772 180.326 188.71 180.83 188.71C181.918 188.71 182.72 188.963 183.236 189.468C183.763 189.962 184.026 190.704 184.026 191.692V197.252H183.151L183.017 195.819H182.983C182.647 196.325 182.226 196.712 181.722 196.982C181.228 197.24 180.679 197.369 180.074 197.369ZM180.158 196.325C180.561 196.325 180.931 196.263 181.268 196.14C181.604 196.005 181.896 195.825 182.142 195.601C182.389 195.365 182.58 195.089 182.714 194.775C182.849 194.449 182.916 194.095 182.916 193.714V193.259H180.83C179.967 193.259 179.35 193.41 178.98 193.714C178.621 194.017 178.442 194.421 178.442 194.927C178.442 195.353 178.577 195.696 178.846 195.954C179.126 196.201 179.563 196.325 180.158 196.325ZM186.806 188.828H187.916V192.366H189.43L191.886 188.828H193.197L190.321 192.838L193.534 197.252H192.188L189.43 193.377H187.916V197.252H186.806V188.828ZM197.26 189.839H194.451V188.828H201.179V189.839H198.37V197.252H197.26V189.839ZM202.952 188.828H204.062V195.988H204.096L208.301 188.828H209.848V197.252H208.738V190.091H208.704L204.499 197.252H202.952V188.828ZM212.709 188.828H213.819V192.366H215.332L217.788 188.828H219.1L216.224 192.838L219.436 197.252H218.091L215.332 193.377H213.819V197.252H212.709V188.828ZM224.148 197.369C223.61 197.369 223.116 197.28 222.668 197.1C222.219 196.92 221.838 196.662 221.524 196.325C221.21 195.977 220.963 195.556 220.784 195.061C220.616 194.556 220.532 193.978 220.532 193.326V192.753C220.532 192.113 220.616 191.54 220.784 191.035C220.963 190.53 221.21 190.108 221.524 189.771C221.849 189.423 222.23 189.159 222.668 188.98C223.116 188.8 223.61 188.71 224.148 188.71C224.686 188.71 225.179 188.8 225.628 188.98C226.076 189.159 226.458 189.423 226.772 189.771C227.086 190.12 227.327 190.552 227.495 191.069C227.674 191.574 227.764 192.164 227.764 192.838V193.343H221.675C221.675 194.32 221.888 195.067 222.315 195.584C222.741 196.1 223.352 196.359 224.148 196.359C225.348 196.359 226.144 195.87 226.536 194.893H227.68C227.478 195.702 227.074 196.319 226.469 196.746C225.875 197.162 225.101 197.369 224.148 197.369ZM224.148 189.721C223.43 189.721 222.853 189.951 222.415 190.412C221.978 190.861 221.731 191.524 221.675 192.4H226.62C226.564 191.49 226.312 190.816 225.863 190.378C225.426 189.94 224.854 189.721 224.148 189.721Z" fill="black"/>
<path d="M287.803 213.397C291.287 213.397 294.111 210.568 294.111 207.079C294.111 203.59 291.287 200.761 287.803 200.761C284.32 200.761 281.496 203.59 281.496 207.079C281.496 210.568 284.32 213.397 287.803 213.397Z" fill="#21EA4D"/>
<path d="M252.389 231.765C251.682 231.765 251.038 231.642 250.454 231.395C249.871 231.147 249.367 230.788 248.941 230.316C248.515 229.833 248.184 229.244 247.948 228.547C247.713 227.84 247.595 227.031 247.595 226.121V225.212C247.595 224.347 247.713 223.577 247.948 222.904C248.184 222.218 248.515 221.646 248.941 221.185C249.367 220.713 249.871 220.354 250.454 220.107C251.049 219.86 251.694 219.736 252.389 219.736C253.028 219.736 253.6 219.832 254.104 220.023C254.62 220.202 255.069 220.45 255.45 220.764C255.831 221.078 256.134 221.449 256.358 221.876C256.594 222.291 256.756 222.741 256.846 223.224H255.601C255.511 222.887 255.377 222.572 255.198 222.28C255.029 221.988 254.811 221.735 254.542 221.522C254.272 221.297 253.959 221.123 253.6 221C253.241 220.876 252.837 220.815 252.389 220.815C251.873 220.815 251.396 220.91 250.959 221.101C250.522 221.292 250.141 221.573 249.815 221.943C249.501 222.314 249.255 222.774 249.075 223.325C248.896 223.864 248.806 224.493 248.806 225.212V226.121C248.806 226.874 248.896 227.537 249.075 228.109C249.266 228.682 249.518 229.159 249.832 229.541C250.157 229.923 250.539 230.21 250.976 230.401C251.413 230.591 251.884 230.687 252.389 230.687C253.297 230.687 254.015 230.445 254.542 229.962C255.08 229.48 255.433 228.862 255.601 228.109H256.846C256.756 228.637 256.594 229.126 256.358 229.575C256.134 230.013 255.831 230.395 255.45 230.721C255.069 231.046 254.62 231.305 254.104 231.496C253.6 231.675 253.028 231.765 252.389 231.765ZM259.2 223.224H260.074L260.209 224.487H260.243C260.613 224.004 261.022 223.656 261.47 223.443C261.919 223.218 262.446 223.106 263.051 223.106C263.545 223.106 263.999 223.196 264.414 223.375C264.829 223.544 265.182 223.802 265.473 224.15C265.776 224.487 266.012 224.908 266.18 225.414C266.348 225.919 266.432 226.498 266.432 227.149V227.722C266.432 228.373 266.348 228.952 266.18 229.457C266.012 229.951 265.776 230.372 265.473 230.721C265.171 231.058 264.812 231.316 264.397 231.496C263.982 231.675 263.534 231.765 263.051 231.765C261.84 231.765 260.938 231.333 260.344 230.468H260.31V235.017H259.2V223.224ZM262.799 230.754C263.539 230.754 264.139 230.507 264.599 230.013C265.059 229.508 265.288 228.744 265.288 227.722V227.149C265.288 226.149 265.053 225.397 264.582 224.892C264.122 224.375 263.528 224.117 262.799 224.117C262.059 224.117 261.459 224.369 260.999 224.875C260.54 225.369 260.31 226.127 260.31 227.149V227.722C260.31 228.721 260.54 229.48 260.999 229.996C261.47 230.502 262.07 230.754 262.799 230.754ZM270.978 231.765C270.048 231.765 269.352 231.552 268.893 231.125C268.433 230.687 268.203 230.086 268.203 229.322C268.203 228.525 268.478 227.89 269.027 227.419C269.577 226.947 270.451 226.711 271.651 226.711H273.821V226.088C273.821 225.414 273.658 224.925 273.333 224.622C273.008 224.307 272.475 224.15 271.735 224.15C271.051 224.15 270.547 224.268 270.221 224.504C269.907 224.74 269.728 225.043 269.683 225.414H268.539C268.562 225.111 268.646 224.819 268.792 224.538C268.938 224.257 269.139 224.01 269.397 223.796C269.666 223.583 269.997 223.415 270.39 223.291C270.782 223.168 271.231 223.106 271.735 223.106C272.823 223.106 273.624 223.358 274.14 223.864C274.667 224.358 274.931 225.099 274.931 226.088V231.647H274.056L273.922 230.215H273.888C273.552 230.721 273.131 231.108 272.627 231.378C272.133 231.636 271.584 231.765 270.978 231.765ZM271.062 230.721C271.466 230.721 271.836 230.659 272.172 230.535C272.509 230.401 272.8 230.221 273.047 229.996C273.294 229.76 273.484 229.485 273.619 229.171C273.753 228.845 273.821 228.491 273.821 228.109V227.654H271.735C270.872 227.654 270.255 227.806 269.885 228.109C269.526 228.413 269.347 228.817 269.347 229.322C269.347 229.749 269.481 230.092 269.75 230.35C270.031 230.597 270.468 230.721 271.062 230.721ZM281.007 231.765C279.864 231.765 278.956 231.4 278.283 230.67C277.621 229.929 277.29 228.778 277.29 227.216V226.307C277.29 225.666 277.318 225.06 277.374 224.487C277.431 223.914 277.526 223.392 277.66 222.92C277.806 222.449 278.002 222.033 278.249 221.674C278.496 221.303 278.815 221 279.208 220.764C279.555 220.562 279.897 220.427 280.234 220.36C280.581 220.281 280.946 220.225 281.327 220.191C281.708 220.157 282.118 220.118 282.555 220.073C282.992 220.017 283.48 219.905 284.018 219.736V220.764C283.592 220.921 283.177 221.022 282.773 221.067C282.381 221.112 282 221.151 281.63 221.185C281.271 221.219 280.929 221.264 280.604 221.32C280.279 221.376 279.981 221.488 279.712 221.657C279.297 221.926 278.984 222.308 278.77 222.802C278.569 223.297 278.434 223.942 278.367 224.74H278.4C278.692 224.268 279.073 223.909 279.544 223.662C280.026 223.403 280.581 223.274 281.209 223.274C281.714 223.274 282.179 223.364 282.605 223.544C283.031 223.723 283.396 223.982 283.699 224.319C284.013 224.656 284.254 225.071 284.422 225.565C284.601 226.06 284.691 226.616 284.691 227.233V227.806C284.691 228.424 284.601 228.98 284.422 229.474C284.242 229.957 283.99 230.372 283.665 230.721C283.351 231.058 282.964 231.316 282.504 231.496C282.056 231.675 281.557 231.765 281.007 231.765ZM281.007 230.754C281.77 230.754 282.381 230.507 282.841 230.013C283.312 229.508 283.547 228.772 283.547 227.806V227.233C283.547 226.267 283.312 225.537 282.841 225.043C282.381 224.538 281.77 224.285 281.007 224.285C280.223 224.285 279.595 224.532 279.124 225.026C278.664 225.52 278.434 226.256 278.434 227.233V227.806C278.434 228.761 278.67 229.491 279.141 229.996C279.611 230.502 280.234 230.754 281.007 230.754ZM290.236 231.765C289.103 231.765 288.201 231.417 287.528 230.721C286.866 230.024 286.535 229.025 286.535 227.722V227.149C286.535 226.509 286.62 225.936 286.788 225.431C286.967 224.925 287.219 224.504 287.545 224.167C287.87 223.819 288.257 223.555 288.705 223.375C289.165 223.196 289.675 223.106 290.236 223.106C291.368 223.106 292.265 223.454 292.927 224.15C293.6 224.847 293.936 225.846 293.936 227.149V227.722C293.936 228.362 293.846 228.935 293.667 229.44C293.499 229.946 293.252 230.372 292.927 230.721C292.602 231.058 292.209 231.316 291.749 231.496C291.301 231.675 290.796 231.765 290.236 231.765ZM290.236 230.754C291.009 230.754 291.626 230.502 292.086 229.996C292.557 229.491 292.792 228.733 292.792 227.722V227.149C292.792 226.149 292.557 225.397 292.086 224.892C291.615 224.375 290.998 224.117 290.236 224.117C289.462 224.117 288.84 224.369 288.369 224.875C287.909 225.38 287.679 226.138 287.679 227.149V227.722C287.679 228.721 287.915 229.48 288.386 229.996C288.856 230.502 289.473 230.754 290.236 230.754ZM297.675 224.234H294.866V223.224H301.594V224.234H298.785V231.647H297.675V224.234ZM305.389 231.765C304.458 231.765 303.763 231.552 303.304 231.125C302.844 230.687 302.614 230.086 302.614 229.322C302.614 228.525 302.889 227.89 303.438 227.419C303.988 226.947 304.862 226.711 306.062 226.711H308.232V226.088C308.232 225.414 308.069 224.925 307.744 224.622C307.419 224.307 306.886 224.15 306.146 224.15C305.462 224.15 304.957 224.268 304.632 224.504C304.318 224.74 304.139 225.043 304.094 225.414H302.95C302.973 225.111 303.057 224.819 303.203 224.538C303.348 224.257 303.55 224.01 303.808 223.796C304.077 223.583 304.408 223.415 304.8 223.291C305.193 223.168 305.641 223.106 306.146 223.106C307.234 223.106 308.035 223.358 308.551 223.864C309.078 224.358 309.342 225.099 309.342 226.088V231.647H308.467L308.333 230.215H308.299C307.963 230.721 307.542 231.108 307.037 231.378C306.544 231.636 305.995 231.765 305.389 231.765ZM305.473 230.721C305.877 230.721 306.247 230.659 306.583 230.535C306.92 230.401 307.211 230.221 307.458 229.996C307.705 229.76 307.895 229.485 308.03 229.171C308.164 228.845 308.232 228.491 308.232 228.109V227.654H306.146C305.283 227.654 304.666 227.806 304.296 228.109C303.937 228.413 303.758 228.817 303.758 229.322C303.758 229.749 303.892 230.092 304.161 230.35C304.442 230.597 304.879 230.721 305.473 230.721ZM311.028 230.754H311.28C311.628 230.754 311.897 230.636 312.087 230.401C312.278 230.165 312.418 229.822 312.508 229.373C312.609 228.924 312.665 228.379 312.676 227.739C312.699 227.098 312.71 226.38 312.71 225.582V223.224H318.428V231.647H317.318V224.234H313.82V225.582C313.82 226.492 313.803 227.323 313.769 228.076C313.747 228.828 313.652 229.48 313.483 230.03C313.326 230.58 313.074 231.007 312.727 231.31C312.39 231.613 311.908 231.765 311.28 231.765H311.028V230.754ZM324.482 231.765C323.349 231.765 322.447 231.417 321.774 230.721C321.112 230.024 320.782 229.025 320.782 227.722V227.149C320.782 226.509 320.866 225.936 321.034 225.431C321.213 224.925 321.466 224.504 321.791 224.167C322.116 223.819 322.503 223.555 322.951 223.375C323.411 223.196 323.921 223.106 324.482 223.106C325.614 223.106 326.511 223.454 327.173 224.15C327.846 224.847 328.182 225.846 328.182 227.149V227.722C328.182 228.362 328.092 228.935 327.913 229.44C327.745 229.946 327.498 230.372 327.173 230.721C326.848 231.058 326.455 231.316 325.996 231.496C325.547 231.675 325.043 231.765 324.482 231.765ZM324.482 230.754C325.256 230.754 325.872 230.502 326.332 229.996C326.803 229.491 327.038 228.733 327.038 227.722V227.149C327.038 226.149 326.803 225.397 326.332 224.892C325.861 224.375 325.244 224.117 324.482 224.117C323.708 224.117 323.086 224.369 322.615 224.875C322.155 225.38 321.925 226.138 321.925 227.149V227.722C321.925 228.721 322.161 229.48 322.632 229.996C323.103 230.502 323.719 230.754 324.482 230.754Z" fill="black"/>
<path d="M165.162 28.0782C168.646 28.0782 171.469 25.2497 171.469 21.7605C171.469 18.2714 168.646 15.4429 165.162 15.4429C161.679 15.4429 158.855 18.2714 158.855 21.7605C158.855 25.2497 161.679 28.0782 165.162 28.0782Z" fill="#FF4B53"/>
<path d="M139.556 34.5366H148.302V46.3296H147.124V35.6148H140.733V46.3296H139.556V34.5366ZM154.444 46.4475C153.311 46.4475 152.409 46.0993 151.736 45.403C151.074 44.7066 150.743 43.707 150.743 42.4042V41.8314C150.743 41.1912 150.828 40.6184 150.996 40.113C151.175 39.6076 151.427 39.1864 151.753 38.8495C152.078 38.5013 152.465 38.2374 152.913 38.0577C153.373 37.878 153.883 37.7881 154.444 37.7881C155.576 37.7881 156.473 38.1363 157.135 38.8326C157.808 39.529 158.144 40.5286 158.144 41.8314V42.4042C158.144 43.0444 158.054 43.6172 157.875 44.1226C157.707 44.628 157.46 45.0548 157.135 45.403C156.81 45.7399 156.417 45.9982 155.957 46.1779C155.509 46.3576 155.004 46.4475 154.444 46.4475ZM154.444 45.4367C155.217 45.4367 155.834 45.184 156.294 44.6786C156.765 44.1731 157 43.415 157 42.4042V41.8314C157 40.8318 156.765 40.0793 156.294 39.5739C155.823 39.0573 155.206 38.7989 154.444 38.7989C153.67 38.7989 153.048 39.0516 152.577 39.557C152.117 40.0625 151.887 40.8206 151.887 41.8314V42.4042C151.887 43.4038 152.123 44.1619 152.594 44.6786C153.064 45.184 153.681 45.4367 154.444 45.4367ZM161.883 38.9169H159.074V37.906H165.802V38.9169H162.993V46.3296H161.883V38.9169ZM170.358 46.4475C169.82 46.4475 169.327 46.3576 168.878 46.1779C168.43 45.9982 168.048 45.7399 167.734 45.403C167.42 45.0548 167.174 44.6336 166.994 44.1395C166.826 43.634 166.742 43.0556 166.742 42.4042V41.8314C166.742 41.1912 166.826 40.6184 166.994 40.113C167.174 39.6076 167.42 39.1864 167.734 38.8495C168.06 38.5013 168.441 38.2374 168.878 38.0577C169.327 37.878 169.82 37.7881 170.358 37.7881C170.896 37.7881 171.39 37.878 171.838 38.0577C172.287 38.2374 172.668 38.5013 172.982 38.8495C173.296 39.1976 173.537 39.6301 173.705 40.1467C173.885 40.6521 173.974 41.2418 173.974 41.9156V42.421H167.886C167.886 43.3982 168.099 44.1451 168.525 44.6617C168.951 45.1784 169.562 45.4367 170.358 45.4367C171.558 45.4367 172.354 44.9481 172.747 43.971H173.89C173.688 44.7796 173.285 45.3974 172.679 45.8242C172.085 46.2397 171.311 46.4475 170.358 46.4475ZM170.358 38.7989C169.641 38.7989 169.063 39.0292 168.626 39.4897C168.189 39.9389 167.942 40.6016 167.886 41.4776H172.831C172.775 40.5679 172.522 39.894 172.074 39.456C171.636 39.0179 171.065 38.7989 170.358 38.7989ZM176.33 37.906H177.204L177.339 39.1696H177.373C177.743 38.6866 178.152 38.3384 178.6 38.125C179.049 37.9004 179.576 37.7881 180.181 37.7881C180.675 37.7881 181.129 37.878 181.544 38.0577C181.959 38.2261 182.312 38.4845 182.603 38.8326C182.906 39.1696 183.142 39.5907 183.31 40.0962C183.478 40.6016 183.562 41.18 183.562 41.8314V42.4042C183.562 43.0556 183.478 43.634 183.31 44.1395C183.142 44.6336 182.906 45.0548 182.603 45.403C182.301 45.7399 181.942 45.9982 181.527 46.1779C181.112 46.3576 180.664 46.4475 180.181 46.4475C178.97 46.4475 178.068 46.0151 177.473 45.1503H177.44V49.699H176.33V37.906ZM179.929 45.4367C180.669 45.4367 181.269 45.1896 181.729 44.6954C182.189 44.19 182.418 43.4263 182.418 42.4042V41.8314C182.418 40.8318 182.183 40.0793 181.712 39.5739C181.252 39.0573 180.658 38.7989 179.929 38.7989C179.189 38.7989 178.589 39.0516 178.129 39.557C177.67 40.0512 177.44 40.8093 177.44 41.8314V42.4042C177.44 43.4038 177.67 44.1619 178.129 44.6786C178.6 45.184 179.2 45.4367 179.929 45.4367ZM187.133 42.9602C186.561 42.7692 186.146 42.4716 185.888 42.0673C185.63 41.6629 185.501 41.1575 185.501 40.551C185.501 39.7087 185.759 39.0573 186.275 38.5968C186.802 38.1363 187.665 37.906 188.865 37.906H191.556V46.3296H190.446V43.196H188.865C188.753 43.196 188.641 43.196 188.529 43.196C188.428 43.196 188.327 43.1904 188.226 43.1792L186.443 46.3296H185.165L187.133 42.9602ZM186.645 40.551C186.645 41.0789 186.813 41.4832 187.149 41.764C187.486 42.0448 188.086 42.1852 188.949 42.1852H190.446V38.9169H188.949C188.086 38.9169 187.486 39.0573 187.149 39.338C186.813 39.6188 186.645 40.0232 186.645 40.551ZM136.338 68.2083C135.194 68.2083 134.286 67.8433 133.613 67.1132C132.951 66.372 132.621 65.2208 132.621 63.6596V62.7498C132.621 62.1097 132.649 61.5032 132.705 60.9304C132.761 60.3576 132.856 59.8353 132.991 59.3636C133.136 58.8919 133.333 58.4763 133.579 58.1169C133.826 57.7463 134.146 57.443 134.538 57.2072C134.886 57.005 135.228 56.8702 135.564 56.8028C135.912 56.7242 136.276 56.6681 136.657 56.6344C137.038 56.6007 137.448 56.5614 137.885 56.5164C138.322 56.4603 138.81 56.348 139.348 56.1795V57.2072C138.922 57.3644 138.507 57.4655 138.104 57.5104C137.711 57.5553 137.33 57.5946 136.96 57.6283C136.601 57.662 136.259 57.707 135.934 57.7631C135.609 57.8193 135.312 57.9316 135.043 58.1001C134.628 58.3696 134.314 58.7515 134.101 59.2457C133.899 59.7398 133.764 60.3856 133.697 61.1831H133.731C134.022 60.7114 134.403 60.352 134.874 60.1049C135.357 59.8465 135.912 59.7174 136.54 59.7174C137.044 59.7174 137.509 59.8072 137.936 59.9869C138.362 60.1666 138.726 60.425 139.029 60.7619C139.343 61.0988 139.584 61.5144 139.752 62.0086C139.931 62.5028 140.021 63.0587 140.021 63.6764V64.2492C140.021 64.867 139.931 65.4229 139.752 65.9171C139.573 66.4 139.32 66.8156 138.995 67.1638C138.681 67.5007 138.294 67.759 137.835 67.9387C137.386 68.1185 136.887 68.2083 136.338 68.2083ZM136.338 67.1975C137.1 67.1975 137.711 66.9504 138.171 66.4562C138.642 65.9508 138.877 65.2151 138.877 64.2492V63.6764C138.877 62.7105 138.642 61.9805 138.171 61.4863C137.711 60.9809 137.1 60.7282 136.338 60.7282C135.553 60.7282 134.925 60.9753 134.454 61.4695C133.994 61.9637 133.764 62.6993 133.764 63.6764V64.2492C133.764 65.2039 134 65.9339 134.471 66.4394C134.942 66.9448 135.564 67.1975 136.338 67.1975ZM142.371 59.6668H143.481V63.289H145.365C145.387 62.7049 145.488 62.1827 145.667 61.7222C145.847 61.2505 146.094 60.8574 146.408 60.5429C146.721 60.2172 147.092 59.9701 147.518 59.8016C147.944 59.6331 148.409 59.5489 148.914 59.5489C149.441 59.5489 149.923 59.6388 150.36 59.8185C150.797 59.9982 151.167 60.2621 151.47 60.6103C151.784 60.9472 152.025 61.3684 152.193 61.8738C152.373 62.368 152.462 62.9408 152.462 63.5922V64.165C152.462 64.8052 152.373 65.378 152.193 65.8834C152.025 66.3888 151.784 66.8156 151.47 67.1638C151.156 67.5007 150.781 67.759 150.343 67.9387C149.906 68.1185 149.429 68.2083 148.914 68.2083C148.387 68.2083 147.904 68.1241 147.467 67.9556C147.041 67.7759 146.671 67.5232 146.357 67.1975C146.054 66.8605 145.813 66.4506 145.634 65.9676C145.454 65.4847 145.365 64.9287 145.365 64.2998H143.481V68.0904H142.371V59.6668ZM148.914 67.1975C149.609 67.1975 150.181 66.9448 150.629 66.4394C151.089 65.9339 151.319 65.1758 151.319 64.165V63.5922C151.319 63.0868 151.257 62.6488 151.134 62.2781C151.01 61.8963 150.842 61.5818 150.629 61.3347C150.416 61.0764 150.164 60.8854 149.872 60.7619C149.581 60.6271 149.261 60.5597 148.914 60.5597C148.207 60.5597 147.63 60.8068 147.181 61.301C146.733 61.7952 146.508 62.5308 146.508 63.508V64.0808C146.508 65.1253 146.733 65.9059 147.181 66.4225C147.641 66.9392 148.218 67.1975 148.914 67.1975ZM153.563 67.0795H154.489C154.668 66.7988 154.814 66.5124 154.926 66.2203C155.049 65.9283 155.144 65.597 155.212 65.2264C155.29 64.8557 155.341 64.4289 155.363 63.946C155.397 63.4518 155.414 62.8678 155.414 62.1939V59.6668H161.132V67.0795H162.225V70.2805H161.149V68.0904H154.64V70.2805H153.563V67.0795ZM160.022 67.0795V60.6777H156.49V62.1939C156.49 62.8004 156.479 63.3339 156.456 63.7944C156.434 64.2549 156.395 64.676 156.339 65.0579C156.283 65.4285 156.204 65.7767 156.103 66.1024C156.002 66.4169 155.879 66.7314 155.733 67.0459V67.0795H160.022ZM165.814 63.6596L163.392 59.6668H164.636L166.705 63.2047H168.219V59.6668H169.329V63.2047H170.842L172.911 59.6668H174.156L171.734 63.6596L174.324 68.0904H173.046L170.842 64.2155H169.329V68.0904H168.219V64.2155H166.705L164.502 68.0904H163.223L165.814 63.6596ZM179.038 68.2083C178.5 68.2083 178.007 68.1185 177.558 67.9387C177.11 67.759 176.729 67.5007 176.415 67.1638C176.101 66.8156 175.854 66.3944 175.675 65.9003C175.506 65.3948 175.422 64.8164 175.422 64.165V63.5922C175.422 62.952 175.506 62.3792 175.675 61.8738C175.854 61.3684 176.101 60.9472 176.415 60.6103C176.74 60.2621 177.121 59.9982 177.558 59.8185C178.007 59.6388 178.5 59.5489 179.038 59.5489C179.577 59.5489 180.07 59.6388 180.518 59.8185C180.967 59.9982 181.348 60.2621 181.662 60.6103C181.976 60.9584 182.217 61.3909 182.385 61.9075C182.565 62.4129 182.655 63.0026 182.655 63.6764V64.1819H176.566C176.566 65.159 176.779 65.9059 177.205 66.4225C177.631 66.9392 178.242 67.1975 179.038 67.1975C180.238 67.1975 181.034 66.7089 181.427 65.7318H182.57C182.369 66.5404 181.965 67.1582 181.359 67.585C180.765 68.0005 179.991 68.2083 179.038 68.2083ZM179.038 60.5597C178.321 60.5597 177.743 60.79 177.306 61.2505C176.869 61.6997 176.622 62.3624 176.566 63.2384H181.511C181.455 62.3287 181.202 61.6548 180.754 61.2168C180.317 60.7787 179.745 60.5597 179.038 60.5597ZM186.398 60.6777H183.589V59.6668H190.316V60.6777H187.508V68.0904H186.398V60.6777ZM194.111 68.2083C193.181 68.2083 192.485 67.9949 192.026 67.5681C191.566 67.1301 191.336 66.5292 191.336 65.7655C191.336 64.9681 191.611 64.3335 192.16 63.8618C192.71 63.39 193.584 63.1542 194.784 63.1542H196.954V62.5308C196.954 61.857 196.791 61.3684 196.466 61.0651C196.141 60.7507 195.608 60.5934 194.868 60.5934C194.184 60.5934 193.68 60.7114 193.354 60.9472C193.04 61.1831 192.861 61.4863 192.816 61.857H191.672C191.695 61.5537 191.779 61.2617 191.925 60.9809C192.071 60.7001 192.272 60.453 192.53 60.2396C192.799 60.0262 193.13 59.8578 193.523 59.7342C193.915 59.6107 194.364 59.5489 194.868 59.5489C195.956 59.5489 196.758 59.8016 197.273 60.307C197.8 60.8012 198.064 61.5425 198.064 62.5308V68.0904H197.189L197.055 66.6584H197.021C196.685 67.1638 196.264 67.5513 195.76 67.8208C195.266 68.0791 194.717 68.2083 194.111 68.2083ZM194.195 67.1638C194.599 67.1638 194.969 67.102 195.305 66.9785C195.642 66.8437 195.933 66.664 196.18 66.4394C196.427 66.2035 196.617 65.9283 196.752 65.6139C196.886 65.2881 196.954 64.9344 196.954 64.5525V64.0976H194.868C194.005 64.0976 193.388 64.2492 193.018 64.5525C192.659 64.8557 192.48 65.2601 192.48 65.7655C192.48 66.1923 192.614 66.5348 192.883 66.7931C193.164 67.0402 193.601 67.1638 194.195 67.1638Z" fill="black"/>
<path d="M286.399 108.74C286.364 108.354 286.023 108.07 285.637 108.105L279.356 108.677C278.97 108.712 278.687 109.053 278.722 109.439C278.757 109.825 279.097 110.11 279.483 110.075L285.067 109.566L285.574 115.16C285.609 115.546 285.95 115.83 286.335 115.795C286.721 115.76 287.005 115.419 286.97 115.033L286.399 108.74ZM251.199 151.371L252.951 149.265L251.875 148.367L250.123 150.473L251.199 151.371ZM256.455 145.053L259.959 140.842L258.883 139.943L255.379 144.155L256.455 145.053ZM263.463 136.63L266.967 132.418L265.891 131.52L262.387 135.731L263.463 136.63ZM270.471 128.206L273.975 123.995L272.899 123.096L269.395 127.308L270.471 128.206ZM277.479 119.783L280.983 115.571L279.907 114.673L276.403 118.884L277.479 119.783ZM284.487 111.359L286.239 109.253L285.163 108.355L283.411 110.461L284.487 111.359Z" fill="#8DC4FF"/>
<path d="M279.943 197.936C280.32 198.021 280.695 197.782 280.779 197.404L282.147 191.236C282.231 190.858 281.992 190.483 281.615 190.399C281.237 190.315 280.863 190.553 280.779 190.932L279.563 196.414L274.089 195.195C273.712 195.112 273.337 195.35 273.253 195.729C273.169 196.107 273.408 196.482 273.785 196.566L279.943 197.936ZM250.069 151.299L251.541 153.615L252.724 152.861L251.252 150.545L250.069 151.299ZM254.484 158.248L257.428 162.881L258.611 162.127L255.667 157.494L254.484 158.248ZM260.371 167.514L263.315 172.147L264.497 171.393L261.554 166.76L260.371 167.514ZM266.258 176.78L269.201 181.413L270.384 180.659L267.441 176.026L266.258 176.78ZM272.145 186.046L275.088 190.679L276.271 189.925L273.328 185.292L272.145 186.046ZM278.031 195.312L279.503 197.628L280.686 196.874L279.214 194.558L278.031 195.312Z" fill="#8DC4FF"/>
</g>
<defs>
<clipPath id="clip0_119_605">
<rect width="339" height="241" fill="white"/>
</clipPath>
</defs>
</svg>
