<svg width="196" height="221" viewBox="0 0 196 221" fill="none" xmlns="http://www.w3.org/2000/svg">
<g clip-path="url(#clip0_119_631)">
<path d="M399.955 -4093.93H-641.521V2289.71H399.955V-4093.93Z" fill="white"/>
<path d="M141.033 8.69531H55.6899V45.6494H141.033V8.69531Z" fill="white"/>
<path d="M98.3618 21.7379C101.957 21.7379 104.871 18.8182 104.871 15.2166C104.871 11.615 101.957 8.69531 98.3618 8.69531C94.7668 8.69531 91.8525 11.615 91.8525 15.2166C91.8525 18.8182 94.7668 21.7379 98.3618 21.7379Z" fill="#8DC4FF"/>
<path d="M17.7109 28.4043H26.7371V40.5774H25.522V29.5173H18.926V40.5774H17.7109V28.4043ZM33.0763 40.6991C31.9076 40.6991 30.976 40.3397 30.2817 39.621C29.5989 38.9022 29.2576 37.8703 29.2576 36.5255V35.9342C29.2576 35.2734 29.3444 34.6821 29.5179 34.1604C29.7031 33.6387 29.9635 33.204 30.2991 32.8562C30.6346 32.4968 31.0339 32.2243 31.4967 32.0388C31.9712 31.8533 32.4977 31.7606 33.0763 31.7606C34.2451 31.7606 35.1708 32.12 35.8536 32.8388C36.5479 33.5576 36.8951 34.5894 36.8951 35.9342V36.5255C36.8951 37.1863 36.8025 37.7776 36.6173 38.2993C36.4438 38.821 36.1892 39.2616 35.8536 39.621C35.518 39.9688 35.113 40.2354 34.6385 40.4209C34.1757 40.6064 33.6549 40.6991 33.0763 40.6991ZM33.0763 39.6557C33.8748 39.6557 34.5112 39.3949 34.9857 38.8732C35.4717 38.3515 35.7147 37.5689 35.7147 36.5255V35.9342C35.7147 34.9024 35.4717 34.1257 34.9857 33.604C34.4997 33.0707 33.8632 32.804 33.0763 32.804C32.2779 32.804 31.6356 33.0649 31.1496 33.5866C30.6751 34.1083 30.4379 34.8908 30.4379 35.9342V36.5255C30.4379 37.5573 30.6809 38.3399 31.1669 38.8732C31.653 39.3949 32.2894 39.6557 33.0763 39.6557ZM38.0241 39.6557H38.2844C38.6432 39.6557 38.9209 39.534 39.1176 39.2905C39.3143 39.0471 39.459 38.6935 39.5516 38.2297C39.6557 37.766 39.7136 37.2037 39.7251 36.5429C39.7483 35.8821 39.7598 35.1401 39.7598 34.317V31.8823H45.6615V40.5774H44.5159V32.9257H40.9055V34.317C40.9055 35.256 40.8881 36.1139 40.8534 36.8907C40.8302 37.6675 40.7319 38.3399 40.5583 38.908C40.3963 39.476 40.1359 39.9166 39.7772 40.2296C39.43 40.5426 38.9325 40.6991 38.2844 40.6991H38.0241V39.6557ZM51.1973 40.5774L47.5695 31.8823H48.8192L51.7875 39.1514H51.8222L54.5474 31.8823H55.7277L51.0411 44.0554H49.8607L51.1973 40.5774ZM60.5756 37.6211C59.4184 37.6211 58.5795 37.3718 58.0587 36.8733C57.538 36.3748 57.2776 35.6038 57.2776 34.5604V31.8823H58.4232V34.4909C58.4232 35.256 58.5795 35.7951 58.8919 36.1081C59.2159 36.4212 59.7772 36.5777 60.5756 36.5777C61.0154 36.5777 61.4204 36.5487 61.7907 36.4907C62.161 36.4212 62.4734 36.3574 62.728 36.2994V31.8823H63.8736V40.5774H62.728V37.3428C62.4734 37.4008 62.161 37.4646 61.7907 37.5341C61.4204 37.5921 61.0154 37.6211 60.5756 37.6211ZM69.0731 40.6991C68.1126 40.6991 67.3951 40.4789 66.9207 40.0383C66.4462 39.5862 66.209 38.9659 66.209 38.1776C66.209 37.3544 66.4925 36.6994 67.0595 36.2125C67.6266 35.7256 68.5292 35.4821 69.7674 35.4821H72.0065V34.8387C72.0065 34.1431 71.8388 33.6387 71.5032 33.3257C71.1676 33.0011 70.6179 32.8388 69.8542 32.8388C69.1483 32.8388 68.6275 32.9605 68.2919 33.204C67.9679 33.4474 67.7828 33.7605 67.7365 34.1431H66.5562C66.5793 33.83 66.6661 33.5286 66.8165 33.2388C66.967 32.9489 67.1753 32.6939 67.4414 32.4736C67.7191 32.2533 68.0605 32.0794 68.4655 31.9519C68.8705 31.8244 69.3334 31.7606 69.8542 31.7606C70.9766 31.7606 71.804 32.0215 72.3364 32.5432C72.8802 33.0533 73.1522 33.8184 73.1522 34.8387V40.5774H72.2496L72.1107 39.0992H72.076C71.7288 39.621 71.2949 40.0209 70.7741 40.2992C70.265 40.5658 69.6979 40.6991 69.0731 40.6991ZM69.1598 39.621C69.5764 39.621 69.9583 39.5572 70.3055 39.4297C70.6526 39.2905 70.9535 39.105 71.2081 38.8732C71.4627 38.6297 71.6594 38.3457 71.7983 38.0211C71.9371 37.6848 72.0065 37.3197 72.0065 36.9255V36.4559H69.8542C68.9631 36.4559 68.3267 36.6125 67.9448 36.9255C67.5745 37.2385 67.3893 37.6559 67.3893 38.1776C67.3893 38.6181 67.5282 38.9717 67.8059 39.2384C68.0952 39.4934 68.5465 39.621 69.1598 39.621ZM79.2318 40.6991C78.6763 40.6991 78.1672 40.6064 77.7043 40.4209C77.2414 40.2354 76.848 39.9688 76.524 39.621C76.1999 39.2616 75.9454 38.8268 75.7602 38.3167C75.5866 37.795 75.4998 37.1979 75.4998 36.5255V35.9342C75.4998 35.2734 75.5866 34.6821 75.7602 34.1604C75.9454 33.6387 76.1999 33.204 76.524 32.8562C76.8595 32.4968 77.253 32.2243 77.7043 32.0388C78.1672 31.8533 78.6763 31.7606 79.2318 31.7606C79.7872 31.7606 80.2964 31.8533 80.7593 32.0388C81.2222 32.2243 81.6156 32.4968 81.9396 32.8562C82.2636 33.2156 82.5124 33.6619 82.686 34.1952C82.8712 34.7169 82.9638 35.3256 82.9638 36.0212V36.5429H76.6802C76.6802 37.5515 76.9 38.3225 77.3398 38.8558C77.7795 39.3891 78.4102 39.6557 79.2318 39.6557C80.47 39.6557 81.2916 39.1514 81.6966 38.1428H82.877C82.6687 38.9775 82.2521 39.6152 81.6272 40.0557C81.0139 40.4847 80.2154 40.6991 79.2318 40.6991ZM79.2318 32.804C78.4912 32.804 77.8952 33.0417 77.4439 33.517C76.9926 33.9807 76.738 34.6648 76.6802 35.569H81.7834C81.7255 34.63 81.4652 33.9344 81.0023 33.4822C80.551 33.0301 79.9608 32.804 79.2318 32.804ZM86.8266 32.9257H83.9278V31.8823H90.871V32.9257H87.9722V40.5774H86.8266V32.9257ZM95.5728 40.6991C95.0174 40.6991 94.5082 40.6064 94.0453 40.4209C93.5825 40.2354 93.189 39.9688 92.865 39.621C92.541 39.2616 92.2864 38.8268 92.1012 38.3167C91.9277 37.795 91.8409 37.1979 91.8409 36.5255V35.9342C91.8409 35.2734 91.9277 34.6821 92.1012 34.1604C92.2864 33.6387 92.541 33.204 92.865 32.8562C93.2006 32.4968 93.594 32.2243 94.0453 32.0388C94.5082 31.8533 95.0174 31.7606 95.5728 31.7606C96.1283 31.7606 96.6375 31.8533 97.1003 32.0388C97.5632 32.2243 97.9567 32.4968 98.2807 32.8562C98.6047 33.2156 98.8535 33.6619 99.0271 34.1952C99.2122 34.7169 99.3048 35.3256 99.3048 36.0212V36.5429H93.0212C93.0212 37.5515 93.2411 38.3225 93.6808 38.8558C94.1206 39.3891 94.7512 39.6557 95.5728 39.6557C96.811 39.6557 97.6326 39.1514 98.0377 38.1428H99.218C99.0097 38.9775 98.5931 39.6152 97.9682 40.0557C97.3549 40.4847 96.5564 40.6991 95.5728 40.6991ZM95.5728 32.804C94.8322 32.804 94.2363 33.0417 93.785 33.517C93.3337 33.9807 93.0791 34.6648 93.0212 35.569H98.1245C98.0666 34.63 97.8062 33.9344 97.3434 33.4822C96.892 33.0301 96.3019 32.804 95.5728 32.804ZM106.075 31.8823H107.741L110.519 37.2385H110.553L113.331 31.8823H114.928V40.5774H113.782V33.3605H113.747L111.074 38.4906H109.929L107.255 33.3605H107.221V40.5774H106.075V31.8823ZM120.13 40.6991C119.169 40.6991 118.452 40.4789 117.978 40.0383C117.503 39.5862 117.266 38.9659 117.266 38.1776C117.266 37.3544 117.549 36.6994 118.116 36.2125C118.683 35.7256 119.586 35.4821 120.824 35.4821H123.063V34.8387C123.063 34.1431 122.896 33.6387 122.56 33.3257C122.225 33.0011 121.675 32.8388 120.911 32.8388C120.205 32.8388 119.684 32.9605 119.349 33.204C119.025 33.4474 118.84 33.7605 118.793 34.1431H117.613C117.636 33.83 117.723 33.5286 117.873 33.2388C118.024 32.9489 118.232 32.6939 118.498 32.4736C118.776 32.2533 119.117 32.0794 119.522 31.9519C119.927 31.8244 120.39 31.7606 120.911 31.7606C122.034 31.7606 122.861 32.0215 123.393 32.5432C123.937 33.0533 124.209 33.8184 124.209 34.8387V40.5774H123.306L123.168 39.0992H123.133C122.786 39.621 122.352 40.0209 121.831 40.2992C121.322 40.5658 120.755 40.6991 120.13 40.6991ZM120.217 39.621C120.633 39.621 121.015 39.5572 121.362 39.4297C121.71 39.2905 122.01 39.105 122.265 38.8732C122.52 38.6297 122.716 38.3457 122.855 38.0211C122.994 37.6848 123.063 37.3197 123.063 36.9255V36.4559H120.911C120.02 36.4559 119.384 36.6125 119.002 36.9255C118.631 37.2385 118.446 37.6559 118.446 38.1776C118.446 38.6181 118.585 38.9717 118.863 39.2384C119.152 39.4934 119.603 39.621 120.217 39.621ZM128.509 32.9257H125.61V31.8823H132.553V32.9257H129.654V40.5774H128.509V32.9257ZM137.256 40.6991C136.7 40.6991 136.191 40.6064 135.728 40.4209C135.265 40.2354 134.872 39.9688 134.548 39.621C134.224 39.2616 133.969 38.8268 133.784 38.3167C133.611 37.795 133.524 37.1979 133.524 36.5255V35.9342C133.524 35.2734 133.611 34.6821 133.784 34.1604C133.969 33.6387 134.224 33.204 134.548 32.8562C134.883 32.4968 135.277 32.2243 135.728 32.0388C136.191 31.8533 136.7 31.7606 137.256 31.7606C137.811 31.7606 138.32 31.8533 138.783 32.0388C139.246 32.2243 139.64 32.4968 139.964 32.8562C140.288 33.2156 140.536 33.6619 140.71 34.1952C140.895 34.7169 140.988 35.3256 140.988 36.0212V36.5429H134.704C134.704 37.5515 134.924 38.3225 135.364 38.8558C135.803 39.3891 136.434 39.6557 137.256 39.6557C138.494 39.6557 139.316 39.1514 139.721 38.1428H140.901C140.693 38.9775 140.276 39.6152 139.651 40.0557C139.038 40.4847 138.239 40.6991 137.256 40.6991ZM137.256 32.804C136.515 32.804 135.919 33.0417 135.468 33.517C135.017 33.9807 134.762 34.6648 134.704 35.569H139.807C139.749 34.63 139.489 33.9344 139.026 33.4822C138.575 33.0301 137.985 32.804 137.256 32.804ZM143.419 31.8823H144.321L144.46 33.1866H144.495C144.877 32.6881 145.299 32.3287 145.762 32.1084C146.225 31.8765 146.769 31.7606 147.394 31.7606C147.903 31.7606 148.371 31.8533 148.799 32.0388C149.228 32.2127 149.592 32.4794 149.893 32.8388C150.205 33.1866 150.448 33.6213 150.622 34.1431C150.796 34.6648 150.882 35.2618 150.882 35.9342V36.5255C150.882 37.1979 150.796 37.795 150.622 38.3167C150.448 38.8268 150.205 39.2616 149.893 39.621C149.581 39.9688 149.21 40.2354 148.782 40.4209C148.354 40.6064 147.891 40.6991 147.394 40.6991C146.144 40.6991 145.212 40.2528 144.599 39.3601H144.564V44.0554H143.419V31.8823ZM147.133 39.6557C147.897 39.6557 148.516 39.4007 148.99 38.8906C149.465 38.3689 149.702 37.5805 149.702 36.5255V35.9342C149.702 34.9024 149.459 34.1257 148.973 33.604C148.499 33.0707 147.885 32.804 147.133 32.804C146.369 32.804 145.75 33.0649 145.276 33.5866C144.801 34.0967 144.564 34.8792 144.564 35.9342V36.5255C144.564 37.5573 144.801 38.3399 145.276 38.8732C145.762 39.3949 146.381 39.6557 147.133 39.6557ZM153.318 31.8823H154.463V39.2731H154.498L158.837 31.8823H160.434V40.5774H159.289V33.1866H159.254L154.915 40.5774H153.318V31.8823ZM165.643 40.6991C164.683 40.6991 163.965 40.4789 163.491 40.0383C163.016 39.5862 162.779 38.9659 162.779 38.1776C162.779 37.3544 163.063 36.6994 163.63 36.2125C164.197 35.7256 165.099 35.4821 166.338 35.4821H168.577V34.8387C168.577 34.1431 168.409 33.6387 168.073 33.3257C167.738 33.0011 167.188 32.8388 166.424 32.8388C165.718 32.8388 165.198 32.9605 164.862 33.204C164.538 33.4474 164.353 33.7605 164.307 34.1431H163.126C163.149 33.83 163.236 33.5286 163.387 33.2388C163.537 32.9489 163.745 32.6939 164.012 32.4736C164.289 32.2533 164.631 32.0794 165.036 31.9519C165.441 31.8244 165.904 31.7606 166.424 31.7606C167.547 31.7606 168.374 32.0215 168.906 32.5432C169.45 33.0533 169.722 33.8184 169.722 34.8387V40.5774H168.82L168.681 39.0992H168.646C168.299 39.621 167.865 40.0209 167.344 40.2992C166.835 40.5658 166.268 40.6991 165.643 40.6991ZM165.73 39.621C166.147 39.621 166.528 39.5572 166.876 39.4297C167.223 39.2905 167.524 39.105 167.778 38.8732C168.033 38.6297 168.23 38.3457 168.368 38.0211C168.507 37.6848 168.577 37.3197 168.577 36.9255V36.4559H166.424C165.533 36.4559 164.897 36.6125 164.515 36.9255C164.145 37.2385 163.959 37.6559 163.959 38.1776C163.959 38.6181 164.098 38.9717 164.376 39.2384C164.665 39.4934 165.117 39.621 165.73 39.621ZM171.463 39.6557H171.724C172.082 39.6557 172.36 39.534 172.557 39.2905C172.753 39.0471 172.898 38.6935 172.991 38.2297C173.095 37.766 173.153 37.2037 173.164 36.5429C173.187 35.8821 173.199 35.1401 173.199 34.317V31.8823H179.101V40.5774H177.955V32.9257H174.345V34.317C174.345 35.256 174.327 36.1139 174.293 36.8907C174.269 37.6675 174.171 38.3399 173.997 38.908C173.835 39.476 173.575 39.9166 173.216 40.2296C172.869 40.5426 172.372 40.6991 171.724 40.6991H171.463V39.6557Z" fill="black"/>
<path d="M97.8505 92.5351C98.1325 92.8184 98.5911 92.8184 98.8732 92.5351L103.476 87.9238C103.759 87.6412 103.759 87.1818 103.476 86.8992C103.194 86.6159 102.735 86.6159 102.453 86.8992L98.3618 90.9982L94.2704 86.8992C93.9883 86.6159 93.5298 86.6159 93.2477 86.8992C92.9649 87.1818 92.9649 87.6412 93.2477 87.9238L97.8505 92.5351ZM99.0851 92.0228V89.3962H97.6386V92.0228H99.0851ZM99.0851 84.1429V78.8896H97.6386V84.1429H99.0851ZM99.0851 73.6363V68.3831H97.6386V73.6363H99.0851ZM99.0851 63.1298V57.8765H97.6386V63.1298H99.0851ZM99.0851 52.6232V49.9966H97.6386V52.6232H99.0851Z" fill="#8DC4FF"/>
<path d="M141.033 96.3706H55.6899V133.325H141.033V96.3706Z" fill="white"/>
<path d="M98.3618 109.413C101.957 109.413 104.871 106.494 104.871 102.892C104.871 99.2903 101.957 96.3706 98.3618 96.3706C94.7668 96.3706 91.8525 99.2903 91.8525 102.892C91.8525 106.494 94.7668 109.413 98.3618 109.413Z" fill="#8DC4FF"/>
<path d="M2.36719 116.08H11.3933V128.253H10.1783V117.193H3.58224V128.253H2.36719V116.08ZM14.4346 119.558H15.3372L15.476 120.862H15.5108C15.8926 120.363 16.315 120.004 16.7779 119.784C17.2408 119.552 17.7846 119.436 18.4095 119.436C18.9187 119.436 19.3874 119.529 19.8155 119.714C20.2437 119.888 20.6082 120.155 20.9091 120.514C21.2215 120.862 21.4645 121.297 21.6381 121.818C21.8117 122.34 21.8985 122.937 21.8985 123.61V124.201C21.8985 124.873 21.8117 125.47 21.6381 125.992C21.4645 126.502 21.2215 126.937 20.9091 127.296C20.5966 127.644 20.2263 127.911 19.7982 128.096C19.37 128.282 18.9071 128.374 18.4095 128.374C17.1598 128.374 16.2282 127.928 15.6149 127.035H15.5802V131.731H14.4346V119.558ZM18.1492 127.331C18.9129 127.331 19.532 127.076 20.0065 126.566C20.4809 126.044 20.7181 125.256 20.7181 124.201V123.61C20.7181 122.578 20.4751 121.801 19.9891 121.279C19.5147 120.746 18.9013 120.479 18.1492 120.479C17.3854 120.479 16.7663 120.74 16.2919 121.262C15.8174 121.772 15.5802 122.555 15.5802 123.61V124.201C15.5802 125.233 15.8174 126.015 16.2919 126.548C16.7779 127.07 17.397 127.331 18.1492 127.331ZM27.6317 128.374C26.4629 128.374 25.5314 128.015 24.837 127.296C24.1543 126.577 23.8129 125.546 23.8129 124.201V123.61C23.8129 122.949 23.8997 122.357 24.0733 121.836C24.2584 121.314 24.5188 120.879 24.8544 120.531C25.19 120.172 25.5892 119.9 26.0521 119.714C26.5265 119.529 27.0531 119.436 27.6317 119.436C28.8004 119.436 29.7262 119.795 30.4089 120.514C31.1032 121.233 31.4504 122.265 31.4504 123.61V124.201C31.4504 124.862 31.3578 125.453 31.1727 125.975C30.9991 126.496 30.7445 126.937 30.4089 127.296C30.0733 127.644 29.6683 127.911 29.1939 128.096C28.731 128.282 28.2103 128.374 27.6317 128.374ZM27.6317 127.331C28.4301 127.331 29.0666 127.07 29.541 126.548C30.0271 126.027 30.2701 125.244 30.2701 124.201V123.61C30.2701 122.578 30.0271 121.801 29.541 121.279C29.055 120.746 28.4186 120.479 27.6317 120.479C26.8332 120.479 26.191 120.74 25.7049 121.262C25.2305 121.784 24.9933 122.566 24.9933 123.61V124.201C24.9933 125.233 25.2363 126.015 25.7223 126.548C26.2083 127.07 26.8448 127.331 27.6317 127.331ZM33.8776 119.558H37.1756C38.194 119.558 38.9403 119.772 39.4148 120.201C39.8892 120.63 40.1265 121.21 40.1265 121.94C40.1265 122.323 40.0281 122.67 39.8314 122.983C39.6462 123.297 39.3801 123.54 39.0329 123.714V123.749C39.5074 123.934 39.8661 124.201 40.1091 124.549C40.3521 124.896 40.4736 125.302 40.4736 125.766C40.4736 126.543 40.2364 127.151 39.762 127.592C39.2875 128.032 38.5411 128.253 37.5228 128.253H33.8776V119.558ZM38.9461 121.957C38.9461 121.529 38.8073 121.198 38.5295 120.966C38.2518 120.723 37.7716 120.601 37.0888 120.601H35.0232V123.331H37.0888C37.7716 123.331 38.2518 123.215 38.5295 122.983C38.8073 122.74 38.9461 122.398 38.9461 121.957ZM39.2933 125.749C39.2933 125.273 39.1544 124.914 38.8767 124.67C38.599 124.427 38.1187 124.305 37.436 124.305H35.0232V127.209H37.436C38.1187 127.209 38.599 127.088 38.8767 126.844C39.1544 126.601 39.2933 126.235 39.2933 125.749ZM46.107 128.374C45.5516 128.374 45.0424 128.282 44.5795 128.096C44.1166 127.911 43.7232 127.644 43.3992 127.296C43.0752 126.937 42.8206 126.502 42.6354 125.992C42.4618 125.47 42.375 124.873 42.375 124.201V123.61C42.375 122.949 42.4618 122.357 42.6354 121.836C42.8206 121.314 43.0752 120.879 43.3992 120.531C43.7348 120.172 44.1282 119.9 44.5795 119.714C45.0424 119.529 45.5516 119.436 46.107 119.436C46.6625 119.436 47.1716 119.529 47.6345 119.714C48.0974 119.9 48.4908 120.172 48.8148 120.531C49.1389 120.891 49.3877 121.337 49.5612 121.871C49.7464 122.392 49.839 123.001 49.839 123.696V124.218H43.5554C43.5554 125.227 43.7753 125.998 44.215 126.531C44.6547 127.064 45.2854 127.331 46.107 127.331C47.3452 127.331 48.1668 126.827 48.5718 125.818H49.7522C49.5439 126.653 49.1273 127.29 48.5024 127.731C47.8891 128.16 47.0906 128.374 46.107 128.374ZM46.107 120.479C45.3664 120.479 44.7704 120.717 44.3191 121.192C43.8678 121.656 43.6133 122.34 43.5554 123.244H48.6586C48.6008 122.305 48.3404 121.61 47.8775 121.158C47.4262 120.705 46.836 120.479 46.107 120.479ZM52.2691 119.558H53.1717L53.3106 120.862H53.3453C53.7271 120.363 54.1495 120.004 54.6124 119.784C55.0753 119.552 55.6192 119.436 56.244 119.436C56.7532 119.436 57.2219 119.529 57.65 119.714C58.0782 119.888 58.4427 120.155 58.7436 120.514C59.056 120.862 59.299 121.297 59.4726 121.818C59.6462 122.34 59.733 122.937 59.733 123.61V124.201C59.733 124.873 59.6462 125.47 59.4726 125.992C59.299 126.502 59.056 126.937 58.7436 127.296C58.4311 127.644 58.0608 127.911 57.6327 128.096C57.2045 128.282 56.7416 128.374 56.244 128.374C54.9943 128.374 54.0627 127.928 53.4494 127.035H53.4147V131.731H52.2691V119.558ZM55.9837 127.331C56.7474 127.331 57.3665 127.076 57.841 126.566C58.3154 126.044 58.5526 125.256 58.5526 124.201V123.61C58.5526 122.578 58.3096 121.801 57.8236 121.279C57.3492 120.746 56.7359 120.479 55.9837 120.479C55.2199 120.479 54.6008 120.74 54.1264 121.262C53.6519 121.772 53.4147 122.555 53.4147 123.61V124.201C53.4147 125.233 53.6519 126.015 54.1264 126.548C54.6124 127.07 55.2315 127.331 55.9837 127.331ZM63.4187 124.775C62.8285 124.578 62.4003 124.27 62.1342 123.853C61.868 123.436 61.7349 122.914 61.7349 122.288C61.7349 121.418 62.0011 120.746 62.5334 120.271C63.0773 119.795 63.9683 119.558 65.2065 119.558H67.9838V128.253H66.8382V125.018H65.2065C65.0908 125.018 64.9751 125.018 64.8594 125.018C64.7552 125.018 64.6511 125.012 64.5469 125.001L62.707 128.253H61.3878L63.4187 124.775ZM62.9153 122.288C62.9153 122.833 63.0889 123.25 63.436 123.54C63.7832 123.83 64.4023 123.975 65.2933 123.975H66.8382V120.601H65.2933C64.4023 120.601 63.7832 120.746 63.436 121.036C63.0889 121.326 62.9153 121.743 62.9153 122.288ZM74.1437 128.374C73.5882 128.374 73.0791 128.282 72.6162 128.096C72.1533 127.911 71.7599 127.644 71.4358 127.296C71.1118 126.937 70.8572 126.502 70.6721 125.992C70.4985 125.47 70.4117 124.873 70.4117 124.201V123.61C70.4117 122.949 70.4985 122.357 70.6721 121.836C70.8572 121.314 71.1118 120.879 71.4358 120.531C71.7714 120.172 72.1649 119.9 72.6162 119.714C73.0791 119.529 73.5882 119.436 74.1437 119.436C74.6991 119.436 75.2083 119.529 75.6712 119.714C76.1341 119.9 76.5275 120.172 76.8515 120.531C77.1755 120.891 77.4243 121.337 77.5979 121.871C77.7831 122.392 77.8756 123.001 77.8756 123.696V124.218H71.5921C71.5921 125.227 71.8119 125.998 72.2517 126.531C72.6914 127.064 73.3221 127.331 74.1437 127.331C75.3819 127.331 76.2035 126.827 76.6085 125.818H77.7888C77.5806 126.653 77.164 127.29 76.5391 127.731C75.9258 128.16 75.1273 128.374 74.1437 128.374ZM74.1437 120.479C73.4031 120.479 72.8071 120.717 72.3558 121.192C71.9045 121.656 71.6499 122.34 71.5921 123.244H76.6953C76.6374 122.305 76.3771 121.61 75.9142 121.158C75.4629 120.705 74.8727 120.479 74.1437 120.479ZM81.7378 120.601H78.839V119.558H85.7822V120.601H82.8834V128.253H81.7378V120.601ZM90.4847 128.374C89.9293 128.374 89.4201 128.282 88.9572 128.096C88.4944 127.911 88.1009 127.644 87.7769 127.296C87.4529 126.937 87.1983 126.502 87.0132 125.992C86.8396 125.47 86.7528 124.873 86.7528 124.201V123.61C86.7528 122.949 86.8396 122.357 87.0132 121.836C87.1983 121.314 87.4529 120.879 87.7769 120.531C88.1125 120.172 88.5059 119.9 88.9572 119.714C89.4201 119.529 89.9293 119.436 90.4847 119.436C91.0402 119.436 91.5493 119.529 92.0122 119.714C92.4751 119.9 92.8686 120.172 93.1926 120.531C93.5166 120.891 93.7654 121.337 93.939 121.871C94.1241 122.392 94.2167 123.001 94.2167 123.696V124.218H87.9331C87.9331 125.227 88.153 125.998 88.5927 126.531C89.0325 127.064 89.6631 127.331 90.4847 127.331C91.7229 127.331 92.5445 126.827 92.9496 125.818H94.1299C93.9216 126.653 93.505 127.29 92.8801 127.731C92.2668 128.16 91.4683 128.374 90.4847 128.374ZM90.4847 120.479C89.7441 120.479 89.1482 120.717 88.6969 121.192C88.2456 121.656 87.991 122.34 87.9331 123.244H93.0363C92.9785 122.305 92.7181 121.61 92.2552 121.158C91.8039 120.705 91.2138 120.479 90.4847 120.479ZM100.987 119.558H102.133V123.297H106.958V119.558H108.104V128.253H106.958V124.34H102.133V128.253H100.987V119.558ZM113.313 128.374C112.352 128.374 111.635 128.154 111.16 127.714C110.686 127.261 110.449 126.641 110.449 125.853C110.449 125.03 110.732 124.375 111.299 123.888C111.866 123.401 112.769 123.157 114.007 123.157H116.246V122.514C116.246 121.818 116.078 121.314 115.743 121.001C115.407 120.676 114.857 120.514 114.094 120.514C113.388 120.514 112.867 120.636 112.531 120.879C112.207 121.123 112.022 121.436 111.976 121.818H110.796C110.819 121.505 110.906 121.204 111.056 120.914C111.206 120.624 111.415 120.369 111.681 120.149C111.959 119.929 112.3 119.755 112.705 119.627C113.11 119.5 113.573 119.436 114.094 119.436C115.216 119.436 116.044 119.697 116.576 120.218C117.12 120.729 117.392 121.494 117.392 122.514V128.253H116.489L116.35 126.775H116.316C115.968 127.296 115.534 127.696 115.014 127.974C114.504 128.241 113.937 128.374 113.313 128.374ZM113.399 127.296C113.816 127.296 114.198 127.232 114.545 127.105C114.892 126.966 115.193 126.78 115.448 126.548C115.702 126.305 115.899 126.021 116.038 125.696C116.177 125.36 116.246 124.995 116.246 124.601V124.131H114.094C113.203 124.131 112.566 124.288 112.184 124.601C111.814 124.914 111.629 125.331 111.629 125.853C111.629 126.293 111.768 126.647 112.045 126.914C112.335 127.169 112.786 127.296 113.399 127.296ZM124.6 119.558H131.369V128.253H130.224V120.601H125.745V128.253H124.6V119.558ZM134.313 119.558H135.215L135.354 120.862H135.389C135.771 120.363 136.193 120.004 136.656 119.784C137.119 119.552 137.663 119.436 138.288 119.436C138.797 119.436 139.266 119.529 139.694 119.714C140.122 119.888 140.486 120.155 140.787 120.514C141.1 120.862 141.343 121.297 141.516 121.818C141.69 122.34 141.777 122.937 141.777 123.61V124.201C141.777 124.873 141.69 125.47 141.516 125.992C141.343 126.502 141.1 126.937 140.787 127.296C140.475 127.644 140.105 127.911 139.676 128.096C139.248 128.282 138.785 128.374 138.288 128.374C137.038 128.374 136.106 127.928 135.493 127.035H135.458V131.731H134.313V119.558ZM138.027 127.331C138.791 127.331 139.41 127.076 139.885 126.566C140.359 126.044 140.596 125.256 140.596 124.201V123.61C140.596 122.578 140.353 121.801 139.867 121.279C139.393 120.746 138.78 120.479 138.027 120.479C137.264 120.479 136.645 120.74 136.17 121.262C135.696 121.772 135.458 122.555 135.458 123.61V124.201C135.458 125.233 135.696 126.015 136.17 126.548C136.656 127.07 137.275 127.331 138.027 127.331ZM146.468 128.374C145.508 128.374 144.79 128.154 144.316 127.714C143.842 127.261 143.604 126.641 143.604 125.853C143.604 125.03 143.888 124.375 144.455 123.888C145.022 123.401 145.925 123.157 147.163 123.157H149.402V122.514C149.402 121.818 149.234 121.314 148.899 121.001C148.563 120.676 148.013 120.514 147.25 120.514C146.544 120.514 146.023 120.636 145.687 120.879C145.363 121.123 145.178 121.436 145.132 121.818H143.952C143.975 121.505 144.061 121.204 144.212 120.914C144.362 120.624 144.571 120.369 144.837 120.149C145.114 119.929 145.456 119.755 145.861 119.627C146.266 119.5 146.729 119.436 147.25 119.436C148.372 119.436 149.199 119.697 149.732 120.218C150.276 120.729 150.548 121.494 150.548 122.514V128.253H149.645L149.506 126.775H149.471C149.124 127.296 148.69 127.696 148.169 127.974C147.66 128.241 147.093 128.374 146.468 128.374ZM146.555 127.296C146.972 127.296 147.354 127.232 147.701 127.105C148.048 126.966 148.349 126.78 148.603 126.548C148.858 126.305 149.055 126.021 149.194 125.696C149.332 125.36 149.402 124.995 149.402 124.601V124.131H147.25C146.358 124.131 145.722 124.288 145.34 124.601C144.97 124.914 144.785 125.331 144.785 125.853C144.785 126.293 144.924 126.647 145.201 126.914C145.491 127.169 145.942 127.296 146.555 127.296ZM153.417 119.558H154.562V123.21H156.124L158.659 119.558H160.013L157.044 123.696L160.36 128.253H158.971L156.124 124.253H154.562V128.253H153.417V119.558ZM164.205 120.601H161.307V119.558H168.25V120.601H165.351V128.253H164.205V120.601ZM170.08 119.558H171.225V126.948H171.26L175.599 119.558H177.196V128.253H176.051V120.862H176.016L171.676 128.253H170.08V119.558ZM180.149 119.558H181.294V123.21H182.856L185.391 119.558H186.745L183.776 123.696L187.092 128.253H185.703L182.856 124.253H181.294V128.253H180.149V119.558ZM191.954 128.374C191.399 128.374 190.89 128.282 190.427 128.096C189.964 127.911 189.57 127.644 189.246 127.296C188.922 126.937 188.668 126.502 188.483 125.992C188.309 125.47 188.222 124.873 188.222 124.201V123.61C188.222 122.949 188.309 122.357 188.483 121.836C188.668 121.314 188.922 120.879 189.246 120.531C189.582 120.172 189.975 119.9 190.427 119.714C190.89 119.529 191.399 119.436 191.954 119.436C192.51 119.436 193.019 119.529 193.482 119.714C193.945 119.9 194.338 120.172 194.662 120.531C194.986 120.891 195.235 121.337 195.408 121.871C195.594 122.392 195.686 123.001 195.686 123.696V124.218H189.403C189.403 125.227 189.622 125.998 190.062 126.531C190.502 127.064 191.133 127.331 191.954 127.331C193.192 127.331 194.014 126.827 194.419 125.818H195.599C195.391 126.653 194.974 127.29 194.35 127.731C193.736 128.16 192.938 128.374 191.954 128.374ZM191.954 120.479C191.214 120.479 190.618 120.717 190.166 121.192C189.715 121.656 189.46 122.34 189.403 123.244H194.506C194.448 122.305 194.188 121.61 193.725 121.158C193.273 120.705 192.683 120.479 191.954 120.479Z" fill="black"/>
<path d="M97.8505 180.211C98.1325 180.494 98.5911 180.494 98.8732 180.211L103.476 175.6C103.759 175.317 103.759 174.858 103.476 174.575C103.194 174.292 102.735 174.292 102.453 174.575L98.3618 178.674L94.2704 174.575C93.9883 174.292 93.5298 174.292 93.2477 174.575C92.9649 174.858 92.9649 175.317 93.2477 175.6L97.8505 180.211ZM99.0851 179.699V177.072H97.6386V179.699H99.0851ZM99.0851 171.819V166.565H97.6386V171.819H99.0851ZM99.0851 161.312V156.059H97.6386V161.312H99.0851ZM99.0851 150.806V145.552H97.6386V150.806H99.0851ZM99.0851 140.299V137.672H97.6386V140.299H99.0851Z" fill="#8DC4FF"/>
<path d="M141.033 184.046H55.6899V221H141.033V184.046Z" fill="white"/>
<path d="M98.3618 197.089C101.957 197.089 104.871 194.169 104.871 190.567C104.871 186.966 101.957 184.046 98.3618 184.046C94.7668 184.046 91.8525 186.966 91.8525 190.567C91.8525 194.169 94.7668 197.089 98.3618 197.089Z" fill="#21EA4D"/>
<path d="M64.1064 203.755H68.012C69.4585 203.755 70.5289 204.085 71.2232 204.746C71.9175 205.407 72.2647 206.335 72.2647 207.529C72.2647 208.711 71.9117 209.639 71.2058 210.311C70.5 210.972 69.4353 211.302 68.012 211.302H65.3215V215.928H64.1064V203.755ZM65.3215 204.868V210.189H67.9252C69.0245 210.189 69.8114 209.969 70.2859 209.529C70.7719 209.076 71.0149 208.41 71.0149 207.529C71.0149 206.659 70.7719 205.998 70.2859 205.546C69.7999 205.094 69.013 204.868 67.9252 204.868H65.3215ZM76.5145 216.05C75.554 216.05 74.8365 215.83 74.3621 215.389C73.8876 214.937 73.6504 214.317 73.6504 213.528C73.6504 212.705 73.9339 212.05 74.501 211.563C75.068 211.076 75.9706 210.833 77.2088 210.833H79.448V210.189C79.448 209.494 79.2802 208.989 78.9446 208.676C78.609 208.352 78.0593 208.19 77.2956 208.19C76.5897 208.19 76.069 208.311 75.7334 208.555C75.4094 208.798 75.2242 209.111 75.1779 209.494H73.9976C74.0207 209.181 74.1075 208.879 74.258 208.589C74.4084 208.3 74.6167 208.045 74.8828 207.824C75.1606 207.604 75.5019 207.43 75.907 207.303C76.312 207.175 76.7748 207.111 77.2956 207.111C78.4181 207.111 79.2455 207.372 79.7778 207.894C80.3216 208.404 80.5936 209.169 80.5936 210.189V215.928H79.691L79.5521 214.45H79.5174C79.1702 214.972 78.7363 215.372 78.2156 215.65C77.7064 215.917 77.1394 216.05 76.5145 216.05ZM76.6013 214.972C77.0179 214.972 77.3997 214.908 77.7469 214.78C78.094 214.641 78.3949 214.456 78.6495 214.224C78.9041 213.98 79.1008 213.696 79.2397 213.372C79.3785 213.036 79.448 212.67 79.448 212.276V211.807H77.2956C76.4045 211.807 75.7681 211.963 75.3862 212.276C75.0159 212.589 74.8308 213.007 74.8308 213.528C74.8308 213.969 74.9696 214.322 75.2474 214.589C75.5366 214.844 75.988 214.972 76.6013 214.972ZM86.8641 216.05C85.6838 216.05 84.7465 215.673 84.0522 214.92C83.3694 214.154 83.028 212.966 83.028 211.355V210.415C83.028 209.755 83.057 209.129 83.1148 208.537C83.1727 207.946 83.2711 207.407 83.4099 206.92C83.5604 206.433 83.7629 206.004 84.0175 205.633C84.272 205.251 84.6018 204.938 85.0069 204.694C85.3656 204.485 85.7185 204.346 86.0657 204.277C86.4244 204.196 86.8005 204.138 87.194 204.103C87.5874 204.068 88.0098 204.027 88.4611 203.981C88.9124 203.923 89.4158 203.807 89.9712 203.633V204.694C89.5315 204.856 89.1033 204.961 88.6867 205.007C88.2817 205.053 87.8883 205.094 87.5064 205.129C87.1361 205.164 86.7831 205.21 86.4476 205.268C86.112 205.326 85.8053 205.442 85.5276 205.616C85.0994 205.894 84.7754 206.288 84.5555 206.798C84.3472 207.308 84.2084 207.975 84.139 208.798H84.1737C84.4745 208.311 84.868 207.94 85.354 207.685C85.8516 207.419 86.4244 207.285 87.0724 207.285C87.5932 207.285 88.0734 207.378 88.5131 207.563C88.9529 207.749 89.329 208.016 89.6414 208.363C89.9654 208.711 90.2142 209.14 90.3878 209.65C90.573 210.16 90.6655 210.734 90.6655 211.372V211.963C90.6655 212.601 90.573 213.175 90.3878 213.685C90.2027 214.183 89.9423 214.612 89.6067 214.972C89.2827 215.319 88.8835 215.586 88.409 215.772C87.9461 215.957 87.4312 216.05 86.8641 216.05ZM86.8641 215.006C87.651 215.006 88.2817 214.751 88.7562 214.241C89.2422 213.72 89.4852 212.96 89.4852 211.963V211.372C89.4852 210.375 89.2422 209.621 88.7562 209.111C88.2817 208.589 87.651 208.329 86.8641 208.329C86.0541 208.329 85.4061 208.584 84.9201 209.094C84.4456 209.604 84.2084 210.363 84.2084 211.372V211.963C84.2084 212.949 84.4514 213.702 84.9374 214.224C85.4234 214.746 86.0657 215.006 86.8641 215.006ZM96.3886 216.05C95.2198 216.05 94.2883 215.69 93.594 214.972C92.9112 214.253 92.5698 213.221 92.5698 211.876V211.285C92.5698 210.624 92.6566 210.033 92.8302 209.511C93.0154 208.989 93.2757 208.555 93.6113 208.207C93.9469 207.848 94.3461 207.575 94.809 207.39C95.2835 207.204 95.81 207.111 96.3886 207.111C97.5574 207.111 98.4831 207.471 99.1659 208.19C99.8602 208.908 100.207 209.94 100.207 211.285V211.876C100.207 212.537 100.115 213.128 99.9296 213.65C99.756 214.172 99.5014 214.612 99.1659 214.972C98.8303 215.319 98.4253 215.586 97.9508 215.772C97.4879 215.957 96.9672 216.05 96.3886 216.05ZM96.3886 215.006C97.1871 215.006 97.8235 214.746 98.298 214.224C98.784 213.702 99.027 212.92 99.027 211.876V211.285C99.027 210.253 98.784 209.476 98.298 208.955C97.8119 208.421 97.1755 208.155 96.3886 208.155C95.5901 208.155 94.9479 208.416 94.4619 208.937C93.9874 209.459 93.7502 210.242 93.7502 211.285V211.876C93.7502 212.908 93.9932 213.691 94.4792 214.224C94.9652 214.746 95.6017 215.006 96.3886 215.006ZM104.065 208.276H101.166V207.233H108.11V208.276H105.211V215.928H104.065V208.276ZM112.027 216.05C111.066 216.05 110.349 215.83 109.874 215.389C109.4 214.937 109.163 214.317 109.163 213.528C109.163 212.705 109.446 212.05 110.013 211.563C110.58 211.076 111.483 210.833 112.721 210.833H114.96V210.189C114.96 209.494 114.792 208.989 114.457 208.676C114.121 208.352 113.571 208.19 112.808 208.19C112.102 208.19 111.581 208.311 111.246 208.555C110.922 208.798 110.736 209.111 110.69 209.494H109.51C109.533 209.181 109.62 208.879 109.77 208.589C109.921 208.3 110.129 208.045 110.395 207.824C110.673 207.604 111.014 207.43 111.419 207.303C111.824 207.175 112.287 207.111 112.808 207.111C113.93 207.111 114.758 207.372 115.29 207.894C115.834 208.404 116.106 209.169 116.106 210.189V215.928H115.203L115.064 214.45H115.03C114.682 214.972 114.248 215.372 113.728 215.65C113.219 215.917 112.652 216.05 112.027 216.05ZM112.113 214.972C112.53 214.972 112.912 214.908 113.259 214.78C113.606 214.641 113.907 214.456 114.162 214.224C114.416 213.98 114.613 213.696 114.752 213.372C114.891 213.036 114.96 212.67 114.96 212.276V211.807H112.808C111.917 211.807 111.28 211.963 110.898 212.276C110.528 212.589 110.343 213.007 110.343 213.528C110.343 213.969 110.482 214.322 110.76 214.589C111.049 214.844 111.5 214.972 112.113 214.972ZM122.186 216.05C121.631 216.05 121.121 215.957 120.659 215.772C120.196 215.586 119.802 215.319 119.478 214.972C119.154 214.612 118.9 214.178 118.715 213.667C118.541 213.146 118.454 212.549 118.454 211.876V211.285C118.454 210.624 118.541 210.033 118.715 209.511C118.9 208.989 119.154 208.555 119.478 208.207C119.814 207.848 120.207 207.575 120.659 207.39C121.121 207.204 121.631 207.111 122.186 207.111C122.742 207.111 123.251 207.204 123.714 207.39C124.176 207.575 124.57 207.848 124.894 208.207C125.218 208.566 125.467 209.013 125.64 209.546C125.825 210.068 125.918 210.676 125.918 211.372V211.894H119.634C119.634 212.902 119.854 213.673 120.294 214.207C120.734 214.74 121.364 215.006 122.186 215.006C123.424 215.006 124.246 214.502 124.651 213.494H125.831C125.623 214.328 125.206 214.966 124.581 215.406C123.968 215.835 123.17 216.05 122.186 216.05ZM122.186 208.155C121.445 208.155 120.85 208.392 120.398 208.868C119.947 209.331 119.692 210.015 119.634 210.92H124.738C124.68 209.981 124.419 209.285 123.957 208.833C123.505 208.381 122.915 208.155 122.186 208.155ZM129.78 208.276H126.881V207.233H133.825V208.276H130.926V215.928H129.78V208.276Z" fill="black"/>
</g>
<defs>
<clipPath id="clip0_119_631">
<rect width="196" height="221" fill="white"/>
</clipPath>
</defs>
</svg>
