<svg width="82" height="73" viewBox="0 0 82 73" fill="none" xmlns="http://www.w3.org/2000/svg">
<path d="M28.5447 67.6581C24.5021 58.8186 24.9565 38.8342 24.9565 38.8342L68.9963 4.69336C67.7545 16.801 48.2675 64.2612 28.5447 67.6581Z" fill="#CEE5FE"/>
<path d="M9.26682 30.3306C7.31287 28.6191 7.39485 25.8627 9.53927 24.3969C21.4036 16.2866 54.647 -0.167229 71.9824 -3.33916C74.7667 -3.8486 77.0543 -1.58832 76.8568 1.23523C75.6321 18.7416 69.121 52.1577 63.3429 63.434C62.3421 65.387 60.007 65.7926 58.1034 64.7008C53.6831 62.1656 44.6307 56.6542 30.5489 46.6287C18.8388 38.2915 12.5424 33.1998 9.26682 30.3306Z" fill="#CEE5FE"/>
<path d="M68.74 4.66687C67.0318 2.95854 27.2752 35.274 24.0939 41.9527C24.0939 41.9527 23.9612 66.9362 28.5443 67.6575C31.0238 67.6575 35.5715 54.4946 36.5295 51.6371C36.652 51.2718 36.8196 50.9502 37.0532 50.6437C47.044 37.5384 70.4285 6.35554 68.74 4.66687Z" fill="#4C73FF"/>
</svg>
