<svg width="82" height="80" viewBox="0 0 82 80" fill="none" xmlns="http://www.w3.org/2000/svg">
<g clip-path="url(#clip0_77_252)">
<path d="M3.86905 22.6607C4.93613 19.8616 7.47038 18.1526 10.4586 18.3606C15.1102 18.6843 23.6559 19.8618 38.0073 23.6294C52.3588 27.397 60.3808 30.5689 64.5917 32.5718C67.2967 33.8584 68.6647 36.5918 68.2193 39.5541C67.618 43.5525 66.269 50.5328 63.2462 62.0471C60.2234 73.5615 57.9699 80.3043 56.5296 84.0825C55.4625 86.8816 52.9283 88.5906 49.9401 88.3826C45.2884 88.0589 36.7428 86.8814 22.3913 83.1138C8.0399 79.3462 0.0178234 76.1743 -4.19296 74.1715C-6.89805 72.8848 -8.26606 70.1514 -7.82065 67.1891C-7.21947 63.1906 -5.87033 56.2104 -2.84755 44.696C0.175232 33.1817 2.4287 26.4389 3.86905 22.6607Z" fill="#CEE5FF"/>
<path d="M59.2628 22.2549C60.2733 22.6112 60.7845 23.5542 60.5831 24.6066C60.3981 25.5736 60.0698 27.0516 59.4878 29.2685C59.3944 29.6246 59.3045 29.9609 59.2183 30.2784C61.4656 31.1523 63.2282 31.9232 64.5914 32.5716C67.2965 33.8583 68.6644 36.5917 68.219 39.554C67.9929 41.0583 67.6608 42.9847 67.1736 45.4159L1.90014 28.2802C2.6699 25.9232 3.32692 24.082 3.86881 22.6606C4.93588 19.8615 7.47013 18.1525 10.4584 18.3605C11.9644 18.4653 13.8785 18.6596 16.2656 19.0023C16.3465 18.6834 16.4334 18.3463 16.5269 17.9902C17.1089 15.7734 17.5489 14.3247 17.8627 13.3916C18.2043 12.3759 19.1127 11.8056 20.168 11.9916C20.8861 12.1182 21.8767 12.3298 23.219 12.6822C24.5614 13.0346 25.5282 13.3369 26.2159 13.5793C27.2264 13.9357 27.7376 14.8786 27.5362 15.9311C27.3513 16.898 27.0229 18.376 26.441 20.5929C26.4189 20.6768 26.3972 20.7597 26.3755 20.8414C29.7423 21.56 33.6011 22.4726 38.007 23.6293C42.4133 24.786 46.2229 25.8866 49.5087 26.9144L49.5738 26.6658C50.1558 24.4489 50.5958 23.0002 50.9096 22.0671C51.2511 21.0515 52.1596 20.4812 53.2148 20.6672C53.933 20.7938 54.9236 21.0054 56.2659 21.3578C57.6083 21.7102 58.5751 22.0124 59.2628 22.2549Z" fill="#4C73FF"/>
<path fill-rule="evenodd" clip-rule="evenodd" d="M10.0079 43.124C10.3147 42.19 11.1252 41.617 12.1003 41.7416C12.8531 41.8376 13.9259 42.0347 15.4109 42.4245C16.8959 42.8143 17.9271 43.1697 18.63 43.4558C19.5406 43.8262 19.9651 44.7234 19.7736 45.6877C19.6367 46.3773 19.4175 47.3463 19.0666 48.6829C18.7157 50.0194 18.4307 50.9712 18.2112 51.6391C17.9044 52.5731 17.0939 53.1461 16.1188 53.0215C15.366 52.9254 14.2932 52.7284 12.8082 52.3386C11.3233 51.9487 10.292 51.5934 9.58908 51.3073C8.67852 50.9369 8.25403 50.0396 8.44552 49.0754C8.58241 48.3858 8.80164 47.4168 9.15252 46.0802C9.50341 44.7436 9.7884 43.7919 10.0079 43.124ZM5.67013 59.6474C5.97696 58.7134 6.78743 58.1404 7.76253 58.265C8.51533 58.3611 9.58815 58.5581 11.0731 58.9479C12.5581 59.3378 13.5893 59.6931 14.2923 59.9792C15.2028 60.3496 15.6273 61.2469 15.4358 62.2111C15.2989 62.9007 15.0797 63.8697 14.7288 65.2063C14.3779 66.5429 14.0929 67.4946 13.8734 68.1625C13.5666 69.0965 12.7561 69.6695 11.781 69.5449C11.0282 69.4489 9.95541 69.2518 8.47045 68.862C6.98549 68.4722 5.95422 68.1168 5.2513 67.8307C4.34075 67.4603 3.91625 66.5631 4.10775 65.5988C4.24464 64.9092 4.46387 63.9402 4.81475 62.6036C5.16563 61.2671 5.45062 60.3153 5.67013 59.6474ZM28.6237 46.0793C27.6486 45.9548 26.8382 46.5278 26.5313 47.4617C26.3118 48.1297 26.0268 49.0814 25.676 50.418C25.3251 51.7546 25.1059 52.7235 24.969 53.4132C24.7775 54.3774 25.202 55.2746 26.1125 55.6451C26.8154 55.9312 27.8467 56.2865 29.3317 56.6763C30.8166 57.0662 31.8894 57.2632 32.6422 57.3593C33.6173 57.4839 34.4278 56.9108 34.7346 55.9769C34.9541 55.3089 35.2391 54.3572 35.59 53.0206C35.9409 51.6841 36.1601 50.7151 36.297 50.0255C36.4885 49.0612 36.064 48.164 35.1535 47.7935C34.4506 47.5074 33.4193 47.1521 31.9343 46.7623C30.4494 46.3724 29.3765 46.1754 28.6237 46.0793ZM22.1936 63.9852C22.5004 63.0512 23.3109 62.4782 24.286 62.6028C25.0388 62.6988 26.1116 62.8959 27.5966 63.2857C29.0815 63.6756 30.1128 64.0309 30.8157 64.317C31.7263 64.6874 32.1507 65.5847 31.9592 66.5489C31.8224 67.2385 31.6031 68.2075 31.2522 69.5441C30.9014 70.8807 30.6164 71.8324 30.3969 72.5003C30.09 73.4343 29.2796 74.0073 28.3045 73.8827C27.5517 73.7867 26.4788 73.5896 24.9939 73.1998C23.5089 72.8099 22.4777 72.4546 21.7747 72.1685C20.8642 71.7981 20.4397 70.9008 20.6312 69.9366C20.7681 69.247 20.9873 68.278 21.3382 66.9414C21.6891 65.6048 21.9741 64.6531 22.1936 63.9852ZM45.1472 50.4171C44.1721 50.2925 43.3616 50.8656 43.0548 51.7995C42.8353 52.4675 42.5503 53.4192 42.1994 54.7558C41.8485 56.0923 41.6293 57.0613 41.4924 57.7509C41.3009 58.7152 41.7254 59.6124 42.636 59.9829C43.3389 60.2689 44.3701 60.6243 45.8551 61.0141C47.3401 61.404 48.4129 61.601 49.1657 61.6971C50.1408 61.8216 50.9513 61.2486 51.2581 60.3146C51.4776 59.6467 51.7626 58.695 52.1135 57.3584C52.4643 56.0218 52.6836 55.0529 52.8205 54.3632C53.012 53.399 52.5875 52.5018 51.6769 52.1313C50.974 51.8452 49.9427 51.4899 48.4578 51.1001C46.9728 50.7102 45.9 50.5132 45.1472 50.4171Z" fill="#4C73FF"/>
</g>
<defs>
<clipPath id="clip0_77_252">
<rect width="82" height="82" fill="white" transform="translate(1.82129) rotate(14.7095)"/>
</clipPath>
</defs>
</svg>
